<svg width="24" height="24" viewBox="0 0 24 24" fill="none" xmlns="http://www.w3.org/2000/svg">
<circle cx="12" cy="12" r="12" fill="white"/>
<path d="M7.67924 15.417C7.44491 15.6513 7.43375 16.0697 7.68482 16.3152C7.9303 16.5607 8.34875 16.5551 8.58307 16.3208L11.9976 12.901L15.4176 16.3208C15.6575 16.5607 16.0704 16.5607 16.3159 16.3152C16.5558 16.0642 16.5614 15.6569 16.3159 15.417L12.9014 11.9972L16.3159 8.58299C16.5614 8.3431 16.5614 7.93027 16.3159 7.6848C16.0648 7.44492 15.6575 7.43934 15.4176 7.67922L11.9976 11.099L8.58307 7.67922C8.34875 7.44492 7.92472 7.43376 7.68482 7.6848C7.43933 7.93027 7.44491 8.34868 7.67924 8.58299L11.0993 11.9972L7.67924 15.417Z" fill="#DA8433"/>
</svg>
