<svg width="248" height="88" viewBox="0 0 248 88" fill="none" xmlns="http://www.w3.org/2000/svg">
<path d="M21.6778 28.2662C21.5892 28.1843 20.8411 27.7138 20.0154 27.2206C19.1032 26.6757 18.443 26.3239 18.3329 26.3239C18.2333 26.3239 18.0826 26.3723 17.9982 26.4314C17.7603 26.5979 15.4499 29.4466 15.3724 29.6689C15.3283 29.7952 15.3269 29.9276 15.3684 30.0367C15.4613 30.2812 19.6923 34.5279 19.9334 34.6188C20.0712 34.6708 20.195 34.6729 20.3309 34.6255C20.5534 34.548 23.4032 32.2385 23.5697 32.0007C23.6289 31.9163 23.6774 31.7657 23.6774 31.6661C23.6774 31.4627 21.9399 28.5084 21.6778 28.2662Z" fill="#20222B"/>
<path d="M33.5548 10.0661C33.1964 10.3726 32.7429 10.6659 32.7429 10.6659C32.7429 10.6659 28.2196 14.5904 24.3131 17.8902C20.4066 21.1899 17.0879 24.0432 16.9382 24.2308C16.6296 24.6178 15.5833 26.6596 15.5833 26.875C15.5833 27.0528 15.7781 27.4369 15.8537 27.4081C15.8849 27.3963 16.2222 27.0095 16.6034 26.5485C17.362 25.631 17.619 25.446 18.2212 25.3839C18.4925 25.3559 18.6549 25.3812 18.899 25.4891C19.5162 25.762 22.1208 27.3739 22.3861 27.6471C22.6599 27.9293 24.2565 30.5221 24.5124 31.1002C24.6204 31.3442 24.6456 31.5066 24.6176 31.7778C24.5555 32.3797 24.3704 32.6366 23.4525 33.3949C22.9914 33.7759 22.6044 34.1131 22.5926 34.1443C22.5638 34.2199 22.948 34.4146 23.126 34.4146C23.3281 34.4146 25.2904 33.4223 25.7122 33.1069C25.9455 32.9324 28.5704 29.8849 33.3947 24.1874C37.4252 19.4275 40.7923 15.4402 40.8772 15.3269C40.9705 15.2024 41.0316 15.0233 41.0316 14.8741C41.0316 14.7384 40.8308 13.6264 40.5854 12.4031C40.2108 10.5361 40.1142 10.154 39.9839 10.0238C39.8537 9.89357 39.4714 9.79703 37.6037 9.42259C36.3799 9.17726 35.2642 8.97656 35.1245 8.97656C34.8479 8.97656 34.7504 9.04424 33.5548 10.0661Z" fill="#20222B"/>
<path fill-rule="evenodd" clip-rule="evenodd" d="M34.8581 8.01892C34.7261 8.04189 34.5218 8.11121 34.4042 8.17285C34.1611 8.30038 32.23 9.98176 32.23 9.98176L32.7429 10.6659C32.7429 10.6659 33.1964 10.3726 33.5548 10.0662C34.7504 9.04426 34.8479 8.97658 35.1245 8.97658C35.2642 8.97658 36.3799 9.17728 37.6037 9.42261C39.4714 9.79705 39.8537 9.89359 39.9839 10.0238C40.1142 10.154 40.2108 10.5361 40.5854 12.4031C40.8308 13.6264 41.0316 14.7384 41.0316 14.8741C41.0316 15.0233 40.9705 15.2024 40.8772 15.3269C40.7923 15.4403 37.4253 19.4275 33.3948 24.1875C28.5704 29.8849 25.9455 32.9325 25.7122 33.107C25.2905 33.4224 23.3281 34.4147 23.1261 34.4147C22.948 34.4147 22.5639 34.2199 22.5926 34.1443C22.6045 34.1132 22.9914 33.776 23.4526 33.3949C24.3704 32.6366 24.5555 32.3797 24.6176 31.7778C24.6456 31.5066 24.6204 31.3443 24.5124 31.1002C24.2565 30.5221 22.66 27.9293 22.3861 27.6472C22.1208 27.3739 19.5162 25.762 18.899 25.4891C18.6549 25.3812 18.4925 25.356 18.2212 25.3839C17.619 25.4461 17.362 25.631 16.6034 26.5485C16.2222 27.0095 15.8849 27.3963 15.8537 27.4081C15.7781 27.4369 15.5833 27.0528 15.5833 26.875C15.5833 26.6596 16.6296 24.6178 16.9382 24.2309C17.0879 24.0433 20.4066 21.1899 24.3131 17.8902C28.2196 14.5904 32.7429 10.6659 32.7429 10.6659L32.23 9.98176C32.23 9.98176 16.479 23.2619 16.1806 23.634C15.8117 24.0939 14.6993 26.3167 14.647 26.6983C14.5895 27.1174 14.7256 27.5616 15.0152 27.8997L15.254 28.1786L15.0585 28.4251C14.6031 28.9993 14.4905 29.1867 14.4144 29.4969C14.2886 30.0096 14.4332 30.527 14.8171 30.937L14.9955 31.1276L12.0853 34.0373C9.58378 36.5383 9.15294 36.9414 9.0176 36.9074C8.64795 36.8147 8.38325 36.9463 7.78566 37.5198C7.46485 37.8276 7.15631 38.1686 7.1 38.2774C6.98263 38.5043 6.96459 39.005 7.06714 39.191C7.10535 39.2604 7.96586 40.1425 8.97926 41.1513C10.912 43.0751 10.8558 43.0325 11.399 42.9859C11.6788 42.9618 11.8863 42.8177 12.4037 42.2876C12.9873 41.6898 13.1422 41.4156 13.0949 41.0635L13.0608 40.8095L15.9662 37.9058L18.8717 35.0022L19.0623 35.1805C19.6339 35.7152 20.4508 35.7702 21.078 35.3164C21.2162 35.2164 21.4401 35.0467 21.5756 34.9393L21.8219 34.7438L22.1008 34.9825C22.4391 35.2719 22.8834 35.408 23.3027 35.3506C23.7121 35.2945 25.9342 34.1691 26.3971 33.7834C26.8642 33.3942 26.3706 33.9682 34.5355 24.3181C38.4842 19.6512 41.7795 15.7064 41.8583 15.5519C41.95 15.3722 42.0011 15.1436 42 14.9178C41.999 14.7236 41.7841 13.5069 41.5224 12.214C41.0014 9.63934 40.9489 9.4935 40.4164 9.14128C40.195 8.99482 39.7456 8.88135 37.9647 8.52199C35.3572 7.99581 35.1674 7.96509 34.8581 8.01892ZM24.8988 8.20521C24.8421 8.27124 24.7729 8.36525 24.7449 8.41427C24.6896 8.51102 25.2973 10.8718 25.4165 11.0236C25.6271 11.2917 26.149 11.2131 26.249 10.8984C26.2997 10.7388 25.7123 8.47379 25.56 8.24149C25.4331 8.04772 25.052 8.0268 24.8988 8.20521ZM35.2451 10.5168C35.0997 10.5686 34.8527 10.7135 34.6964 10.8387C34.3105 11.1478 24.4033 19.5405 24.4033 19.5405L24.7461 20.3586C24.7461 20.3586 26.4429 19.0594 30.1403 15.9302C33.018 13.4945 35.4498 11.4712 35.5441 11.4337C35.6719 11.3831 35.9598 11.4132 36.6759 11.5521C37.8827 11.7862 38.0615 11.8569 38.1778 12.1453C38.2277 12.2692 38.3525 12.8026 38.4551 13.3305C38.594 14.0458 38.6241 14.3341 38.5735 14.4619C38.488 14.6777 26.2198 29.1693 26.1226 29.1693C26.0833 29.1693 25.6745 28.5368 25.2143 27.7637C24.6435 26.805 24.2607 26.2414 24.0102 25.9911C23.7598 25.7408 23.196 25.3581 22.2369 24.7875C21.4635 24.3275 20.8307 23.919 20.8307 23.8798C20.8307 23.8406 21.4428 23.2906 22.1908 22.6577C22.9389 22.0247 24.7461 20.3586 24.7461 20.3586L24.5747 19.9495L24.4033 19.5405C24.4033 19.5405 20.1745 23.0999 19.9843 23.3795C19.855 23.5697 19.8298 23.6797 19.8547 23.9462C19.8716 24.1282 19.9462 24.3596 20.0203 24.4605C20.0945 24.5614 20.8398 25.0605 21.6766 25.5696C22.5134 26.0787 23.2672 26.5645 23.3519 26.6491C23.4366 26.7338 23.9226 27.4873 24.4319 28.3238C24.9424 29.1622 25.4448 29.9084 25.5515 29.9869C25.8189 30.1834 26.4047 30.184 26.6733 29.988C26.9183 29.8092 39.1266 15.417 39.3538 15.0391C39.624 14.5896 39.6258 14.284 39.3661 13.0126C38.9881 11.1624 38.8399 11.0127 37.0227 10.6452C35.7859 10.3951 35.6202 10.3832 35.2451 10.5168ZM17.7108 12.3848C17.6098 12.5131 17.5774 12.6242 17.606 12.7448C17.6293 12.8437 18.0416 13.3126 18.558 13.8276C19.5545 14.8216 19.6885 14.8899 20.0107 14.5678C20.3062 14.2725 20.2478 14.1651 19.239 13.1475C18.418 12.3193 18.271 12.1992 18.078 12.1992C17.9193 12.1992 17.8156 12.2516 17.7108 12.3848ZM13.5991 19.5108C13.5209 19.6101 13.4569 19.7167 13.4569 19.7475C13.4569 19.906 13.6328 20.152 13.7916 20.2155C14.094 20.3365 16.0192 20.8376 16.1835 20.8381C16.5527 20.8392 16.752 20.3006 16.475 20.05C16.3228 19.9123 14.3028 19.3362 13.9592 19.3325C13.8036 19.3308 13.7004 19.3819 13.5991 19.5108ZM39.0581 23.7642C39.0101 23.7835 38.9253 23.8873 38.8696 23.9949C38.7617 24.2036 38.8089 24.4481 38.9838 24.5854C39.0349 24.6255 39.6274 24.8056 40.3005 24.9856L41.5243 25.3128L41.7067 25.1773C41.9612 24.9881 41.9961 24.592 41.7714 24.4448C41.6234 24.3479 39.3676 23.712 39.2138 23.7239C39.1761 23.7268 39.106 23.7449 39.0581 23.7642ZM20.0154 27.2206C20.8411 27.7137 21.5891 28.1843 21.6778 28.2662C21.9399 28.5084 23.6773 31.4627 23.6773 31.6661C23.6773 31.7657 23.6289 31.9163 23.5697 32.0007C23.4032 32.2385 20.5534 34.548 20.3309 34.6255C20.195 34.6729 20.0712 34.6708 19.9334 34.6188C19.6922 34.5279 15.4613 30.2811 15.3684 30.0367C15.3269 29.9275 15.3283 29.7952 15.3723 29.6689C15.4499 29.4466 17.7603 26.5979 17.9982 26.4314C18.0826 26.3722 18.2333 26.3238 18.3329 26.3238C18.443 26.3238 19.1032 26.6757 20.0154 27.2206ZM18.9787 28.1107C18.8597 28.1455 18.5029 28.4423 18.1333 28.8137C17.5817 29.3679 17.4885 29.495 17.456 29.7373C17.4353 29.8918 17.44 30.1049 17.4666 30.2109C17.52 30.4241 19.3346 32.3035 19.644 32.4661C19.864 32.5816 20.2322 32.5919 20.5004 32.49C20.8161 32.3701 21.8112 31.2932 21.8955 30.9804C22.0326 30.4714 21.9268 30.2959 20.8142 29.1863C19.6723 28.0476 19.5128 27.9541 18.9787 28.1107ZM20.1458 29.8654L21.0118 30.733L20.5803 31.1682C20.3429 31.4076 20.1175 31.6034 20.0792 31.6034C19.9893 31.6034 18.3956 30.016 18.3956 29.9265C18.3956 29.8712 19.2127 28.9979 19.2644 28.9979C19.2729 28.9979 19.6695 29.3883 20.1458 29.8654ZM35.4381 29.989C35.1194 30.3075 35.1877 30.446 36.1364 31.4045C37.1222 32.4004 37.3097 32.5172 37.5891 32.3095C37.7144 32.2165 37.7799 32.0979 37.7937 31.9394C37.8125 31.7216 37.7508 31.6436 36.8621 30.7634C35.8408 29.7519 35.7337 29.6936 35.4381 29.989ZM17.9997 34.5128C17.8968 34.6258 17.6892 34.8349 17.5385 34.9775L17.2646 35.2368L16.0129 33.987L14.7612 32.7372L15.2224 32.2726L15.6836 31.808L16.9353 33.0577L18.1868 34.3074L17.9997 34.5128ZM29.302 33.5233C29.115 33.7102 29.1251 33.817 29.441 34.9975C29.7904 36.3032 29.8203 36.3738 30.0668 36.4759C30.2446 36.5495 30.2949 36.5427 30.4554 36.4236C30.5591 36.3464 30.6494 36.2047 30.6619 36.0991C30.6931 35.8356 30.1271 33.7499 29.9702 33.5506C29.809 33.3457 29.4926 33.3328 29.302 33.5233ZM15.3254 34.6711C15.9954 35.34 16.5434 35.9186 16.5431 35.9567C16.5426 36.0405 15.7598 36.8145 15.6757 36.8145C15.6429 36.8145 15.0615 36.2594 14.3835 35.5809L13.1509 34.3474L13.5934 33.901C13.8368 33.6556 14.052 33.4547 14.0715 33.4547C14.0911 33.4547 14.6553 34.0021 15.3254 34.6711ZM14.5199 38.0129L14.0399 38.4571L12.7886 37.2085L11.5373 35.9598L11.9987 35.495L12.4602 35.0301L13.73 36.2994L14.9997 37.5687L14.5199 38.0129ZM12.1149 37.9071C13.498 39.2913 13.4226 39.1014 12.8316 39.7106C12.6574 39.8902 12.4873 40.0371 12.4535 40.0371C12.4198 40.0371 11.8376 39.482 11.1596 38.8035L9.92695 37.57L10.3695 37.1236C10.6129 36.8782 10.8287 36.6773 10.8491 36.6773C10.8694 36.6773 11.439 37.2307 12.1149 37.9071ZM11.7262 41.5958C11.4919 41.8321 11.2686 42.0255 11.2301 42.0255C11.1403 42.0255 7.96935 38.8606 7.96935 38.771C7.96935 38.734 8.16169 38.5097 8.39683 38.2726L8.82431 37.8415L10.4883 39.5038L12.1523 41.1661L11.7262 41.5958Z" fill="#0D1018"/>
<path d="M18.1333 28.8137C18.5029 28.4423 18.8597 28.1455 18.9787 28.1107C19.5128 27.9541 19.6723 28.0476 20.8142 29.1863C21.9268 30.2959 22.0326 30.4714 21.8955 30.9804C21.8113 31.2933 20.8161 32.3701 20.5004 32.49C20.2322 32.5919 19.864 32.5816 19.644 32.4661C19.3346 32.3035 17.52 30.4241 17.4666 30.2109C17.44 30.1049 17.4353 29.8918 17.456 29.7373C17.4885 29.495 17.5818 29.3679 18.1333 28.8137Z" fill="#0D1018"/>
<path d="M24.7449 8.41432C24.7729 8.36529 24.8422 8.27129 24.8988 8.20526C25.0521 8.02685 25.4331 8.04776 25.5601 8.24153C25.7124 8.47383 26.2997 10.7389 26.249 10.8984C26.1491 11.2132 25.6272 11.2917 25.4165 11.0236C25.2973 10.8719 24.6896 8.51107 24.7449 8.41432Z" fill="#20222B"/>
<path d="M17.606 12.7448C17.5775 12.6242 17.6099 12.5131 17.7108 12.3849C17.8156 12.2517 17.9193 12.1992 18.078 12.1992C18.2711 12.1992 18.4181 12.3193 19.2391 13.1475C20.2478 14.1651 20.3062 14.2725 20.0107 14.5679C19.6885 14.89 19.5546 14.8217 18.558 13.8277C18.0417 13.3126 17.6293 12.8437 17.606 12.7448Z" fill="#20222B"/>
<path d="M13.4569 19.7476C13.4569 19.7167 13.5209 19.6102 13.5991 19.5108C13.7005 19.3819 13.8037 19.3308 13.9592 19.3325C14.3028 19.3362 16.3228 19.9124 16.475 20.0501C16.752 20.3006 16.5528 20.8393 16.1835 20.8381C16.0192 20.8376 14.094 20.3365 13.7916 20.2155C13.6329 20.152 13.4569 19.906 13.4569 19.7476Z" fill="#20222B"/>
<path d="M38.8697 23.995C38.9254 23.8874 39.0102 23.7836 39.0581 23.7642C39.1061 23.745 39.1762 23.7268 39.2139 23.7239C39.3677 23.7121 41.6235 24.3479 41.7714 24.4448C41.9962 24.592 41.9612 24.9881 41.7067 25.1773L41.5243 25.3128L40.3006 24.9856C39.6274 24.8056 39.0349 24.6256 38.9838 24.5855C38.809 24.4482 38.7617 24.2037 38.8697 23.995Z" fill="#20222B"/>
<path d="M36.1365 31.4046C35.1878 30.4461 35.1195 30.3076 35.4381 29.9891C35.7337 29.6936 35.8409 29.7519 36.8622 30.7635C37.7509 31.6437 37.8126 31.7217 37.7937 31.9395C37.7799 32.098 37.7144 32.2165 37.5892 32.3096C37.3097 32.5173 37.1223 32.4004 36.1365 31.4046Z" fill="#20222B"/>
<path d="M29.4411 34.9975C29.1252 33.817 29.1151 33.7102 29.3021 33.5233C29.4926 33.3329 29.8091 33.3458 29.9703 33.5506C30.1271 33.75 30.6932 35.8357 30.662 36.0991C30.6494 36.2048 30.5591 36.3465 30.4554 36.4236C30.295 36.5428 30.2447 36.5496 30.0668 36.4759C29.8203 36.3738 29.7905 36.3033 29.4411 34.9975Z" fill="#20222B"/>
<path d="M30.1402 15.9301C26.4429 19.0593 24.7461 20.3585 24.7461 20.3585L22.1908 22.6576C21.4428 23.2906 20.8307 23.8405 20.8307 23.8798C20.8307 23.919 21.4635 24.3274 22.2369 24.7875C23.0048 25.2329 23.3974 25.4948 24.0102 25.991C24.2607 26.2414 24.6435 26.8049 25.2142 27.7637C25.6745 28.5368 26.0833 29.1693 26.1226 29.1693C26.2198 29.1693 38.488 14.6777 38.5735 14.4618C38.6241 14.3341 38.594 14.0457 38.455 13.3305L38.1778 12.1453C38.0615 11.8569 37.8827 11.7862 36.6759 11.552C35.9597 11.4131 35.6719 11.383 35.5441 11.4337L30.1402 15.9301Z" fill="#20222B"/>
<path d="M17.5386 34.9775C17.6893 34.8349 17.8968 34.6259 17.9997 34.5129L18.1869 34.3074L16.9353 33.0577L15.6837 31.808L15.2224 32.2726L14.7612 32.7372L16.0129 33.987L17.2646 35.2368L17.5386 34.9775Z" fill="#20222B"/>
<path d="M16.5432 35.9567C16.5434 35.9186 15.9954 35.34 15.3254 34.6711C14.6554 34.0021 14.0911 33.4547 14.0716 33.4547C14.052 33.4547 13.8368 33.6556 13.5935 33.901L13.1509 34.3474L14.3835 35.5809C15.0615 36.2594 15.643 36.8145 15.6757 36.8145C15.7599 36.8145 16.5426 36.0405 16.5432 35.9567Z" fill="#20222B"/>
<path d="M14.04 38.4571L14.5199 38.0129L14.9998 37.5687L13.73 36.2994L12.4602 35.0301L11.9987 35.495L11.5373 35.9598L12.7886 37.2085L14.04 38.4571Z" fill="#20222B"/>
<path d="M12.8316 39.7107C13.4226 39.1014 13.4981 39.2913 12.1149 37.9072C11.4391 37.2307 10.8694 36.6774 10.8491 36.6774C10.8287 36.6774 10.6129 36.8782 10.3696 37.1236L9.927 37.57L11.1596 38.8035C11.8376 39.482 12.4198 40.0371 12.4536 40.0371C12.4873 40.0371 12.6574 39.8902 12.8316 39.7107Z" fill="#20222B"/>
<path d="M21.0118 30.733L20.1458 29.8654C19.6695 29.3883 19.2729 28.9979 19.2644 28.9979C19.2127 28.9979 18.3956 29.8712 18.3956 29.9265C18.3956 30.016 19.9893 31.6034 20.0792 31.6034C20.1175 31.6034 20.3429 31.4076 20.5803 31.1682L21.0118 30.733Z" fill="#20222B"/>
<path d="M11.2301 42.0255C11.2686 42.0255 11.4919 41.8322 11.7262 41.5958L12.1523 41.1661L10.4883 39.5038L8.82431 37.8416L8.39684 38.2726C8.1617 38.5097 7.96936 38.734 7.96936 38.771C7.96936 38.8607 11.1403 42.0255 11.2301 42.0255Z" fill="#20222B"/>
<path d="M71.8797 46.4537C65.2037 46.4537 58.2686 49.176 58.2686 52.5463C58.2686 55.6574 64.2315 58.6389 72.1389 58.6389C76.7408 58.6389 85.1019 56.4352 85.1019 52.5463C85.1667 49.1111 78.6852 46.4537 71.8797 46.4537ZM71.9445 56.2408C67.213 56.2408 63.713 54.2963 63.713 52.2223C63.713 50.0185 67.9908 48.2037 71.1667 48.2037C72.3334 45.5463 79.6574 49.5 79.6574 52.2223C79.7223 54.75 74.7315 56.2408 71.9445 56.2408Z" fill="#20222B"/>
<path d="M70.9074 49.5648C63.4537 50.1482 62.7407 54.037 70.5185 54.9444L70.9074 49.5648Z" fill="#20222B"/>
<path d="M72.9815 48.5926C72.5278 48.4629 72.2685 48.5926 72.2685 48.9814L71.8148 54.8796C72.5278 55.0092 74.0185 54.8148 74.9259 54.5555L75.1852 49.3055L72.9815 48.5926ZM74.1482 52.6111C74.1482 52.9351 73.8889 53.1944 73.5648 53.1944H73.5C73.1759 53.1944 72.9167 52.9351 72.9167 52.6111V51.8981C72.9167 51.574 73.1759 51.3148 73.5 51.3148H73.5648C73.8889 51.3148 74.1482 51.574 74.1482 51.8981V52.6111Z" fill="#20222B"/>
<path d="M76.4166 49.9537C79.2037 51.7686 78.9444 53.1945 76.2222 54.1667L76.4166 49.9537Z" fill="#20222B"/>
<path d="M81.0186 58.2501C73.5 61.2964 62.2871 60.0001 58.2686 55.5927V62.3982C58.3982 63.6297 59.0463 64.5371 60.0834 65.2501V62.3334C60.0834 61.4908 61.3797 61.4908 61.3797 62.3334V66.0927L63.7778 67.1297V64.0834C63.7778 63.2408 65.0741 63.3056 65.0741 64.0834V67.5186L68.0556 68.1019V64.7964C68.0556 63.8241 69.3519 63.8241 69.3519 64.7964V67.7778C72.9815 65.3797 76.9352 62.0093 81.0186 58.2501Z" fill="#20222B"/>
<path d="M83.4815 48.1389C87.5648 50.0834 90.4167 57.213 87.7593 63.3704L86.8519 62.1389C86.2037 61.426 85.2315 62.2685 85.9445 63.0463L87.0463 64.5371L85.1019 67.1945L83.4815 65.3148C82.7037 64.5371 81.8611 65.5093 82.5741 66.2223L84.3241 68.1019L81.9259 70.6945L79.5278 68.6852C78.8148 67.9722 77.9722 68.8797 78.6852 69.5278L81.1482 71.6667L78.6204 74.0648L75.8982 71.7315C75.1204 70.9537 74.2778 71.7963 75.0556 72.5741L77.713 74.9074L75.1204 77.176C75.0556 76.463 74.7963 75.8148 74.213 75.2963C73.6297 74.7778 73.0463 74.4537 72.3982 74.5834C71.4908 74.7778 71.0371 74.5834 70.6482 74.1945C70 73.3519 70.3889 73.0278 69.6759 72.1204C69.0926 71.3426 68.3797 71.1482 67.7963 71.213H66.8241L72.9815 66.676L77.3241 63.2408C82.5093 58.5093 90.8056 53.1297 83.4815 48.1389Z" fill="#20222B"/>
<path d="M73.4352 76.2685C72.8519 75.75 72.3334 75.8148 71.6852 75.8796C70.9723 75.9444 70.2593 75.5555 69.8704 75.1018C68.8334 74 69.4167 73.6759 68.7686 72.8333C68.0556 71.9259 66.8889 72.8981 65.5278 72.0555L63.9723 73.0926C63.3241 73.6111 63.1945 74.3889 63.713 74.9074L69.9352 79.8981C70.4538 80.2222 70.9723 80.3518 71.4908 79.9629L74.1482 77.8889C73.7593 77.4352 73.9538 76.787 73.4352 76.2685ZM70.3889 77.9537C70.1945 78.2129 69.8056 78.2778 69.5463 78.0185L66.4352 75.5555C66.176 75.3611 66.1112 74.9722 66.3704 74.7129C66.6297 74.4537 66.9538 74.3889 67.213 74.6481L70.3241 77.1111C70.5186 77.3704 70.5834 77.7592 70.3889 77.9537Z" fill="#20222B"/>
<path fill-rule="evenodd" clip-rule="evenodd" d="M145.289 37.705L138.168 44.8925C136.952 46.0034 136.29 45.944 135.14 44.7273L105.716 15.0686C104.78 13.9568 104.743 13.3243 105.716 12.1771L112.755 4.90697C113.726 4.09746 114.254 4.13865 115.169 4.90697L116.804 6.55251L112.61 10.7875C112.418 10.9811 112.42 11.2965 112.611 11.4901C112.803 11.6836 113.116 11.6851 113.307 11.4915L117.502 7.25568L118.876 8.63814L116.802 10.7324C116.61 10.9261 116.612 11.2425 116.804 11.4361C116.996 11.6296 117.31 11.6322 117.501 11.4386L119.576 9.34391L119.179 8.94398L123.038 12.8278L120.974 14.9113C120.783 15.1049 120.783 15.4192 120.975 15.6127C121.167 15.8063 121.478 15.8067 121.67 15.613L123.733 13.5293L123.249 13.0407L125.129 14.9328L123.006 17.0767C122.814 17.2704 122.814 17.5847 123.006 17.7782C123.198 17.9717 123.509 17.9721 123.701 17.7785L125.825 15.634L125.633 15.4409L127.194 17.0121L123.005 21.2429C122.813 21.4365 122.815 21.753 123.007 21.9466C123.199 22.1401 123.513 22.1427 123.704 21.949L127.895 17.7174L129.29 19.1218L127.219 21.2128C127.028 21.4064 127.03 21.7229 127.222 21.9164C127.414 22.11 127.727 22.1126 127.919 21.9189L129.99 19.8277L129.482 19.315L133.441 23.3003L129.246 27.5366C129.054 27.7302 129.057 28.0472 129.249 28.2407C129.441 28.4343 129.755 28.4374 129.947 28.2437L134.142 24.007L133.842 23.7037L135.516 25.3887L133.417 27.508C133.225 27.7016 133.225 28.0154 133.417 28.209C133.609 28.4025 133.92 28.4024 134.112 28.2088L136.21 26.0893L135.742 25.6166L137.606 27.4925L135.459 29.6598C135.268 29.8534 135.268 30.1672 135.459 30.3608C135.651 30.5543 135.962 30.5542 136.154 30.3606L138.3 28.1934L137.641 27.5283L139.696 29.5965L135.45 33.8835C135.258 34.0771 135.258 34.3909 135.45 34.5845C135.642 34.778 135.953 34.778 136.145 34.5843L140.391 30.2965L145.289 35.2266C146.144 36.138 146.326 36.6495 145.289 37.705ZM131.37 21.2165L132.059 21.9117L129.942 24.0491C129.752 24.2412 129.443 24.2412 129.253 24.0492C129.063 23.8573 129.063 23.5459 129.253 23.3539L131.37 21.2165ZM121.662 11.4509L120.963 10.7448L116.775 14.973C116.584 15.1666 116.586 15.4831 116.778 15.6766C116.97 15.8702 117.283 15.8727 117.475 15.6791L121.662 11.4509ZM138.945 41.2162C137.589 41.2162 136.49 40.1066 136.49 38.7377C136.49 37.3689 137.589 36.2593 138.945 36.2593C140.302 36.2593 141.401 37.3689 141.401 38.7377C141.401 40.1066 140.302 41.2162 138.945 41.2162Z" fill="#20222B"/>
<g clip-path="url(#clip0_132_1612)">
<path d="M194.546 53.5185L193.38 52.3519L191.565 54.1019C190.852 54.8148 190.074 53.9074 190.722 53.2593L192.472 51.5093L190.917 50.1482L189.88 51.4445C189.361 52.0278 188.454 51.3797 189.037 50.6019L189.88 49.4352L188.065 48.3334L187.417 49.7593C187.028 50.5371 185.926 50.0834 186.38 49.176L186.963 47.8797L185.019 47.1667L184.565 48.7222C184.306 49.6297 183.204 49.3056 183.398 48.3334L183.787 46.9074L181.778 46.5185L181.583 47.9445C181.519 48.9815 180.287 48.7871 180.352 47.8797L180.481 46.3889H178.407L178.472 47.9445C178.537 48.9167 177.306 48.9815 177.241 48.0093L177.176 46.5185L175.037 46.9074L175.361 48.2037C175.685 49.3056 174.454 49.6297 174.194 48.5926L173.806 47.2315L171.796 48.0093L172.444 49.3056C172.833 50.1482 171.796 50.6667 171.407 49.8889L170.759 48.5278L168.944 49.5648L169.722 50.5371C170.37 51.3148 169.398 52.0278 168.75 51.25L167.907 50.1482L166.352 51.5093L168.102 53.2593C168.75 53.9074 168.037 54.8148 167.259 54.1019L165.509 52.3519L164.148 53.9074L165.315 54.75C166.028 55.2685 165.444 56.2408 164.667 55.7222L163.435 54.8797L162.398 56.6945L163.759 57.3426C164.537 57.926 164.213 58.8982 163.241 58.5741L161.815 57.926L161.102 59.8704L162.463 60.2593C163.37 60.5834 163.241 61.6852 162.139 61.426L160.778 61.1019L160.454 63.176L162.009 63.3056C162.917 63.4352 162.917 64.5371 161.944 64.5371L160.259 64.4074V66.4815L161.944 66.3519C162.722 66.2871 162.917 67.3889 162.139 67.5834L160.519 67.713L160.843 69.7871L162.269 69.3982C163.111 69.2037 163.565 70.2408 162.722 70.5648L161.167 70.9537L161.88 72.963L163.241 72.3148C164.019 71.9908 164.472 72.963 163.889 73.3519L162.398 74.0648L163.435 75.8797L164.731 74.9722C165.38 74.5185 166.157 75.2963 165.509 75.9445L164.148 76.9167L165.509 78.5371L167.324 76.7222C167.907 76.2037 168.815 76.9167 168.231 77.5648L166.352 79.3797L167.389 80.4167C167.907 80.8704 168.62 80.8704 169.204 80.3519L194.352 55.2037C194.806 54.6204 195 53.9722 194.546 53.5185ZM169.204 69.2037C165.509 60.8426 173.87 51.3148 183.139 55.2037L169.204 69.2037Z" fill="#20222B"/>
</g>
<path d="M229.122 38.8699L227.864 37.4596L236.07 30.1349L237.347 31.566C238.995 33.4119 239.15 34.9876 237.81 36.1836L233.667 39.8626C232.32 41.0654 230.788 40.7366 229.122 38.8699ZM226.975 36.464L213.665 21.5515L221.872 14.2268L223.464 16.0105C221.502 18.1711 222.143 21.7541 224.929 24.8755C227.715 27.997 231.202 29.0393 233.58 27.3452L235.182 29.1393L226.975 36.464ZM212.776 20.5559L211.518 19.1455C209.861 17.2892 209.717 15.741 211.055 14.5279L215.17 10.8178C216.501 9.61138 218.058 9.95417 219.715 11.8105L220.983 13.2312L212.776 20.5559ZM225.625 24.2539C223.385 21.7443 222.863 18.8573 224.454 17.1201L225.889 18.7275C224.881 19.8691 225.203 21.7239 226.647 23.3417C228.101 24.9698 229.898 25.4898 231.146 24.6178L232.59 26.2356C230.684 27.6202 227.875 26.7739 225.625 24.2539Z" fill="#20222B"/>
<defs>
<clipPath id="clip0_132_1612">
<rect width="35" height="35" fill="white" transform="translate(160 46)"/>
</clipPath>
</defs>
</svg>
