<svg width="24" height="19" viewBox="0 0 24 19" fill="none" xmlns="http://www.w3.org/2000/svg">
<path d="M3.19288 19H20.7974C22.8937 19 24 17.8991 24 15.7957V5.47491C24 3.37144 22.8937 2.27056 20.7974 2.27056H18.2159C17.459 2.27056 17.2163 2.14278 16.7408 1.64149L15.9741 0.806001C15.4695 0.265391 14.9551 0 13.9652 0H9.97655C8.98666 0 8.4723 0.265391 7.96765 0.806001L7.20097 1.64149C6.73514 2.13295 6.48281 2.27056 5.72584 2.27056H3.19288C1.09664 2.27056 0 3.37144 0 5.47491V15.7957C0 17.8991 1.09664 19 3.19288 19ZM11.9951 15.9136C9.09341 15.9136 6.76425 13.5546 6.76425 10.6058C6.76425 7.64718 9.09341 5.28815 11.9951 5.28815C14.9066 5.28815 17.2357 7.64718 17.2357 10.6058C17.2357 13.5546 14.9066 15.9136 11.9951 15.9136ZM17.8569 6.98862C17.8569 6.29074 18.4488 5.68132 19.1573 5.68132C19.856 5.68132 20.448 6.29074 20.448 6.98862C20.448 7.71599 19.856 8.28608 19.1573 8.29591C18.4488 8.29591 17.8569 7.72581 17.8569 6.98862ZM11.9951 14.1345C13.9264 14.1345 15.4792 12.5618 15.4792 10.6058C15.4792 8.63994 13.9264 7.06725 11.9951 7.06725C10.0736 7.06725 8.52082 8.63994 8.52082 10.6058C8.52082 12.5618 10.0833 14.1345 11.9951 14.1345Z" fill="#DA8433"/>
</svg>
