<svg width="24" height="49" viewBox="0 0 24 49" fill="none" xmlns="http://www.w3.org/2000/svg">
<path fill-rule="evenodd" clip-rule="evenodd" d="M1.24791 0.114113C0.393187 0.309714 -0.156764 1.22691 0.03994 2.12885C0.174135 2.74442 1.13315 4.56794 1.63905 5.16979C2.17691 5.80961 3.01652 6.37775 3.9072 6.70452L4.60311 6.95995H11.9984H19.3937L20.0896 6.70452C20.9803 6.37775 21.8199 5.80961 22.3578 5.16979C22.8637 4.56794 23.8227 2.74442 23.9569 2.12885C24.1638 1.18059 23.6086 0.310921 22.6655 0.105222C21.9964 -0.0405466 1.88779 -0.0323141 1.24791 0.114113ZM8.54454 23.6717L8.54541 38.5723L9.45444 43.2C9.9544 45.7454 10.4353 47.9681 10.5229 48.1394C10.6106 48.3109 10.8124 48.5747 10.9713 48.7256C11.2211 48.9629 11.3598 49 11.9984 49C12.637 49 12.7757 48.9629 13.0256 48.7256C13.1845 48.5747 13.3863 48.3109 13.4739 48.1394C13.5616 47.9681 14.0424 45.7454 14.5424 43.2L15.4514 38.5723L15.4523 23.6717L15.4532 8.77107H11.9984H8.54368L8.54454 23.6717Z" fill="#333642"/>
</svg>
