<svg width="14" height="18" viewBox="0 0 14 18" fill="none" xmlns="http://www.w3.org/2000/svg">
<path d="M6.99606 11.7554C7.33521 11.7554 7.62704 11.4683 7.62704 11.1334V2.94284L7.57972 1.74657L8.10817 2.3128L9.30704 3.60478C9.41746 3.73239 9.57521 3.79619 9.73296 3.79619C10.0563 3.79619 10.3087 3.55693 10.3087 3.22995C10.3087 3.06247 10.2377 2.93487 10.1194 2.81524L7.45352 0.21533C7.29577 0.0558263 7.16169 0 6.99606 0C6.83831 0 6.70423 0.0558263 6.53859 0.21533L3.87268 2.81524C3.75437 2.93487 3.69127 3.06247 3.69127 3.22995C3.69127 3.55693 3.92789 3.79619 4.25915 3.79619C4.40901 3.79619 4.58254 3.73239 4.69296 3.60478L5.88394 2.3128L6.42028 1.74657L6.37296 2.94284V11.1334C6.37296 11.4683 6.6569 11.7554 6.99606 11.7554ZM2.47662 18H11.5234C13.1718 18 14 17.1706 14 15.5277V7.56845C14 5.92556 13.1718 5.09615 11.5234 5.09615H9.32282V6.38015H11.4997C12.2806 6.38015 12.7301 6.81081 12.7301 7.64023V15.4559C12.7301 16.2853 12.2806 16.716 11.4997 16.716H2.49239C1.70366 16.716 1.26986 16.2853 1.26986 15.4559V7.64023C1.26986 6.81081 1.70366 6.38015 2.49239 6.38015H4.67718V5.09615H2.47662C0.828169 5.09615 0 5.92556 0 7.56845V15.5277C0 17.1706 0.828169 18 2.47662 18Z" fill="#0D1018"/>
</svg>
