<svg width="27" height="13" viewBox="0 0 27 13" fill="none" xmlns="http://www.w3.org/2000/svg">
<path d="M26.8694 6.60491C26.8694 2.8683 24.4989 0.427452 20.9933 0.427452C19.1551 0.427452 17.5781 1.20089 15.8906 2.83817L13.4899 5.14843L11.0993 2.83817C9.41182 1.20089 7.83482 0.427452 5.99665 0.427452C2.49107 0.427452 0.120529 2.8683 0.120529 6.60491C0.120529 10.3415 2.49107 12.7824 5.99665 12.7824C7.83482 12.7824 9.41182 11.9989 11.0993 10.3716L13.4899 8.05134L15.8906 10.3716C17.5781 11.9989 19.1551 12.7824 20.9933 12.7824C24.4989 12.7824 26.8694 10.3415 26.8694 6.60491ZM11.9933 6.60491L9.59263 8.85491C8.327 10.0502 7.22209 10.6429 5.99665 10.6429C3.77678 10.6429 2.26004 9.0558 2.26004 6.60491C2.26004 4.14397 3.77678 2.56696 5.99665 2.56696C7.22209 2.56696 8.327 3.1596 9.60267 4.35491L11.9933 6.60491ZM14.9966 6.60491L17.3873 4.35491C18.6629 3.1596 19.7578 2.56696 20.9933 2.56696C23.2132 2.56696 24.7299 4.14397 24.7299 6.60491C24.7299 9.0558 23.2132 10.6429 20.9933 10.6429C19.7679 10.6429 18.6629 10.0502 17.3973 8.85491L14.9966 6.60491Z" fill="white"/>
</svg>
