<svg width="58" height="60" viewBox="0 0 58 60" fill="none" xmlns="http://www.w3.org/2000/svg">
<path fill-rule="evenodd" clip-rule="evenodd" d="M11.768 0.0392446C7.09174 0.388713 2.74584 3.59343 0.940266 8.02398C-1.51432 14.0469 0.986085 21.0678 6.70281 24.2048C7.29952 24.5321 7.46501 24.6779 7.40565 24.8241C7.36301 24.9292 7.22202 25.518 7.09245 26.1324C6.89622 27.0632 6.86653 27.5435 6.91483 29.0133C6.98102 31.0286 7.2497 32.1681 8.06043 33.8714C10.4447 38.8802 15.8469 41.6862 21.3441 40.7707C22.0447 40.654 22.7515 40.592 22.9148 40.633C23.1381 40.6889 24.9457 43.0279 30.2112 50.0745C34.0609 55.2263 37.2473 59.4986 37.2922 59.5683C37.3759 59.6985 42.63 60.0943 42.7453 59.9793C42.9087 59.8162 43.894 55.0698 43.8231 54.7877C43.6933 54.2713 43.3482 54.0681 41.8974 53.6542C40.7003 53.3126 40.4504 53.1975 40.0847 52.8197C39.5863 52.3045 39.4734 51.8144 39.6315 50.8513C39.8121 49.7504 39.868 49.8244 38.5432 49.4134C36.6608 48.8296 36.2692 48.2698 36.5513 46.5649C36.6266 46.1099 36.657 45.7065 36.6188 45.6684C36.5807 45.6304 36.0736 45.4572 35.492 45.2836C34.2685 44.9184 33.9301 44.7242 33.613 44.205C33.3481 43.7712 33.3212 43.1339 33.5135 41.8432L33.6444 40.9644L33.1185 40.2803C30.9008 37.3948 29.849 35.8521 29.849 35.4848C29.849 35.2733 30.0841 34.6039 30.3715 33.9971C33.2129 27.9961 30.8819 20.9558 25.0064 17.793C22.5753 16.4844 19.6001 16.0297 16.8334 16.5437C13.6483 17.1357 10.5665 19.1975 8.80603 21.9143C8.51804 22.3587 8.2218 22.7224 8.14771 22.7224C7.82438 22.7224 6.35345 21.711 5.4698 20.8811C3.85693 19.3664 2.83913 17.6686 2.27374 15.5495C1.93016 14.2617 1.89682 11.7063 2.20719 10.4518C3.03513 7.10551 5.144 4.49203 8.19978 3.02536C11.7333 1.32929 15.803 1.62984 19.0714 3.82848C20.5412 4.81727 22.2638 6.80402 22.8355 8.17015L23.0115 8.59064L22.3961 8.67377C20.8069 8.8886 18.7599 9.70959 17.1868 10.7632C16.2376 11.3988 14.7158 12.9493 14.0368 13.9725C13.1914 15.2465 13.1797 15.2263 14.4995 14.7767C16.0672 14.2426 17.4597 14.0209 19.2481 14.0209C23.3274 14.0209 26.905 15.5265 29.7143 18.4256C32.5919 21.3951 33.9858 25.0426 33.8052 29.1308C33.7653 30.0363 33.7201 30.8964 33.7049 31.0423C33.6804 31.2763 34.814 31.9868 43.3055 37.0598L52.9339 42.812L55.4377 41.9814C56.8148 41.5246 57.9645 41.1307 57.9926 41.1061C58.0863 41.0246 57.2589 36.3098 57.0924 35.9752C56.8172 35.4224 56.5123 35.3591 54.897 35.5191C53.2017 35.6869 52.8123 35.6302 52.2959 35.1406C51.9898 34.8505 51.8541 34.5616 51.638 33.741C51.4566 33.0517 51.3176 32.7252 51.2215 32.762C51.1421 32.7925 50.5279 32.8512 49.8567 32.8924C48.8105 32.9569 48.5776 32.9371 48.2262 32.7543C47.6629 32.4609 47.3361 31.924 47.1626 31.006C47.0818 30.5787 46.9453 30.2019 46.8592 30.169C46.7732 30.136 46.2173 30.1608 45.624 30.224C43.6785 30.4315 43.2026 30.113 42.6844 28.2568C42.4961 27.5822 42.2741 26.9677 42.191 26.8915C42.108 26.8152 40.9256 26.0882 39.5635 25.2759C38.2014 24.4635 36.9833 23.6843 36.8564 23.5444C36.6445 23.3106 36.6283 23.1358 36.6563 21.3894C36.6908 19.2326 36.5059 18.063 35.8724 16.4315C34.2778 12.3248 30.4996 9.31603 26.1573 8.6947L25.1159 8.54572L24.7889 7.78517C22.5905 2.66978 17.4543 -0.385715 11.768 0.0392446ZM17.6829 20.5025C18.6233 20.8467 19.6988 21.9306 20.0666 22.9045C20.4399 23.8936 20.3759 25.34 19.9171 26.2761C19.5257 27.0746 18.7467 27.8129 17.8552 28.2301C17.2866 28.4962 17.0285 28.5429 16.1267 28.5429C15.2239 28.5429 14.9669 28.4963 14.3957 28.2289C13.596 27.8548 12.7217 27.0185 12.4136 26.3333L12.1911 25.8384L13.3933 25.777C14.3978 25.7258 14.6342 25.7475 14.831 25.9093C15.2506 26.2542 15.5705 26.3675 16.1248 26.3675C17.9158 26.3675 18.7966 24.2785 17.5362 23.0202C16.7041 22.1894 15.5015 22.2196 14.7131 23.0908C14.4864 23.3412 14.301 23.5916 14.301 23.6469C14.301 23.7845 13.1831 23.8894 12.5161 23.8143L11.9718 23.753L12.0896 23.3259C12.4337 22.0784 13.4377 20.9356 14.5721 20.5003C15.4294 20.1713 16.7805 20.1722 17.6829 20.5025ZM45.3558 33.4273C50.0105 36.2109 53.938 38.6214 54.0838 38.7841C54.3927 39.129 54.4325 39.7186 54.1718 40.0901C53.902 40.4746 53.2495 40.6522 52.8477 40.4506C51.7751 39.9123 35.9854 30.4102 35.7678 30.1721C35.1879 29.5375 35.69 28.3665 36.542 28.3665C36.7946 28.3665 39.262 29.7833 45.3558 33.4273ZM26.0743 37.7705C26.1924 37.8337 29.3691 42.0086 33.1338 47.0481C39.5185 55.5951 39.9787 56.2429 39.9787 56.6828C39.9787 57.0689 39.9104 57.2118 39.6024 57.4705C39.2977 57.7265 39.1477 57.7738 38.8137 57.7197C38.5868 57.6831 38.2862 57.5323 38.1456 57.3847C37.8792 57.1054 24.9782 39.8396 24.6127 39.2732C24.0412 38.3879 25.1316 37.2669 26.0743 37.7705Z" fill="#333642"/>
</svg>
