<svg width="18" height="17" viewBox="0 0 18 17" fill="none" xmlns="http://www.w3.org/2000/svg">
<path d="M3.45357 16.853C3.78589 17.1093 4.20735 17.0212 4.70987 16.6607L8.9975 13.5449L13.2932 16.6607C13.7958 17.0212 14.2091 17.1093 14.5495 16.853C14.8818 16.6047 14.9548 16.1962 14.7522 15.6114L13.0582 10.6292L17.3863 7.55341C17.8889 7.20097 18.0915 6.83251 17.9618 6.43201C17.8321 6.04753 17.4512 5.85529 16.8271 5.8633L11.5182 5.89534L9.90528 0.889107C9.71075 0.296369 9.41897 0 8.9975 0C8.58414 0 8.29235 0.296369 8.09783 0.889107L6.4849 5.89534L1.17603 5.8633C0.551929 5.85529 0.170987 6.04753 0.0413048 6.43201C-0.0964828 6.83251 0.114251 7.20097 0.616771 7.55341L4.94492 10.6292L3.25095 15.6114C3.04832 16.1962 3.12126 16.6047 3.45357 16.853ZM4.62072 15.267C4.60451 15.251 4.61261 15.243 4.62072 15.1949L6.23364 10.6132C6.34711 10.3008 6.28227 10.0525 5.99859 9.86028L1.96223 7.10485C1.9217 7.08082 1.9136 7.0648 1.9217 7.04077C1.92981 7.01674 1.94602 7.01674 1.99465 7.01674L6.89826 7.10485C7.23058 7.11286 7.44131 6.97669 7.54668 6.64828L8.95697 2.0105C8.96508 1.96244 8.98129 1.94642 8.9975 1.94642C9.02182 1.94642 9.03802 1.96244 9.04613 2.0105L10.4564 6.64828C10.5618 6.97669 10.7725 7.11286 11.1048 7.10485L16.0085 7.01674C16.0571 7.01674 16.0733 7.01674 16.0814 7.04077C16.0895 7.0648 16.0733 7.08082 16.0409 7.10485L12.0045 9.86028C11.7208 10.0525 11.656 10.3008 11.7695 10.6132L13.3824 15.1949C13.3905 15.243 13.3986 15.251 13.3824 15.267C13.3662 15.291 13.3419 15.275 13.3094 15.251L9.41086 12.3113C9.1515 12.1111 8.85161 12.1111 8.59224 12.3113L4.69366 15.251C4.66124 15.275 4.63693 15.291 4.62072 15.267Z" fill="#0D1018"/>
</svg>
