<svg width="14" height="14" viewBox="0 0 14 14" fill="none" xmlns="http://www.w3.org/2000/svg">
<path d="M0.278816 12.3154C-0.0856938 12.6798 -0.103051 13.3307 0.287495 13.7125C0.669362 14.0944 1.32027 14.0857 1.68478 13.7212L6.99621 8.40152L12.3163 13.7212C12.6895 14.0944 13.3317 14.0944 13.7136 13.7125C14.0868 13.322 14.0955 12.6885 13.7136 12.3154L8.40217 6.99566L13.7136 1.68465C14.0955 1.31149 14.0955 0.66931 13.7136 0.287472C13.3231 -0.0856871 12.6895 -0.0943652 12.3163 0.278794L6.99621 5.59848L1.68478 0.278794C1.32027 -0.0856871 0.660683 -0.103043 0.287495 0.287472C-0.0943726 0.66931 -0.0856938 1.32017 0.278816 1.68465L5.59892 6.99566L0.278816 12.3154Z" fill="#DA8433"/>
</svg>
