<svg width="102" height="296" viewBox="0 0 102 296" fill="none" xmlns="http://www.w3.org/2000/svg">
<path d="M1 4L15 4" stroke="#4A4B4E" stroke-linecap="round"/>
<path d="M7 16L15 16" stroke="#4A4B4E" stroke-linecap="round"/>
<path d="M7 28L15 28" stroke="#4A4B4E" stroke-linecap="round"/>
<path d="M7 40L15 40" stroke="#4A4B4E" stroke-linecap="round"/>
<path d="M7 52L15 52" stroke="#4A4B4E" stroke-linecap="round"/>
<path d="M7 64L15 64" stroke="#4A4B4E" stroke-linecap="round"/>
<path d="M1 76L15 76" stroke="#4A4B4E" stroke-linecap="round"/>
<path d="M7 88L15 88" stroke="#4A4B4E" stroke-linecap="round"/>
<path d="M7 100L15 100" stroke="#4A4B4E" stroke-linecap="round"/>
<path d="M7 112L15 112" stroke="#4A4B4E" stroke-linecap="round"/>
<path d="M7 124L15 124" stroke="#4A4B4E" stroke-linecap="round"/>
<path d="M7 136L15 136" stroke="#4A4B4E" stroke-linecap="round"/>
<path d="M1 148L15 148" stroke="#4A4B4E" stroke-linecap="round"/>
<path d="M7 160L15 160" stroke="#4A4B4E" stroke-linecap="round"/>
<path d="M7 172L15 172" stroke="#4A4B4E" stroke-linecap="round"/>
<path d="M7 184H15" stroke="#4A4B4E" stroke-linecap="round"/>
<path d="M7 196L15 196" stroke="#4A4B4E" stroke-linecap="round"/>
<path d="M7 208L15 208" stroke="#4A4B4E" stroke-linecap="round"/>
<path d="M1 220L15 220" stroke="#4A4B4E" stroke-linecap="round"/>
<path d="M7 232L15 232" stroke="#4A4B4E" stroke-linecap="round"/>
<path d="M7 244L15 244" stroke="#4A4B4E" stroke-linecap="round"/>
<path d="M7 256L15 256" stroke="#4A4B4E" stroke-linecap="round"/>
<path d="M7 268L15 268" stroke="#4A4B4E" stroke-linecap="round"/>
<path d="M7 280H15" stroke="#4A4B4E" stroke-linecap="round"/>
<path d="M1 292L15 292" stroke="#4A4B4E" stroke-linecap="round"/>
<path d="M87 4L101 4" stroke="#4A4B4E" stroke-linecap="round"/>
<path d="M87 16L95 16" stroke="#4A4B4E" stroke-linecap="round"/>
<path d="M87 28L95 28" stroke="#4A4B4E" stroke-linecap="round"/>
<path d="M87 40L95 40" stroke="#4A4B4E" stroke-linecap="round"/>
<path d="M87 52L95 52" stroke="#4A4B4E" stroke-linecap="round"/>
<path d="M87 64L95 64" stroke="#4A4B4E" stroke-linecap="round"/>
<path d="M87 76L101 76" stroke="#4A4B4E" stroke-linecap="round"/>
<path d="M87 88L95 88" stroke="#4A4B4E" stroke-linecap="round"/>
<path d="M87 100L95 100" stroke="#4A4B4E" stroke-linecap="round"/>
<path d="M87 112L95 112" stroke="#4A4B4E" stroke-linecap="round"/>
<path d="M87 124L95 124" stroke="#4A4B4E" stroke-linecap="round"/>
<path d="M87 136L95 136" stroke="#4A4B4E" stroke-linecap="round"/>
<path d="M87 148L101 148" stroke="#4A4B4E" stroke-linecap="round"/>
<path d="M87 160L95 160" stroke="#4A4B4E" stroke-linecap="round"/>
<path d="M87 172L95 172" stroke="#4A4B4E" stroke-linecap="round"/>
<path d="M87 184H95" stroke="#4A4B4E" stroke-linecap="round"/>
<path d="M87 196L95 196" stroke="#4A4B4E" stroke-linecap="round"/>
<path d="M87 208L95 208" stroke="#4A4B4E" stroke-linecap="round"/>
<path d="M87 220L101 220" stroke="#4A4B4E" stroke-linecap="round"/>
<path d="M87 232L95 232" stroke="#4A4B4E" stroke-linecap="round"/>
<path d="M87 244L95 244" stroke="#4A4B4E" stroke-linecap="round"/>
<path d="M87 256L95 256" stroke="#4A4B4E" stroke-linecap="round"/>
<path d="M87 268L95 268" stroke="#4A4B4E" stroke-linecap="round"/>
<path d="M87 280H95" stroke="#4A4B4E" stroke-linecap="round"/>
<path d="M87 292L101 292" stroke="#4A4B4E" stroke-linecap="round"/>
</svg>
