<svg width="18" height="14" viewBox="0 0 18 14" fill="none" xmlns="http://www.w3.org/2000/svg">
<path d="M2.63551 14H15.5567C17.1028 14 18 13.1076 18 11.4024V2.59761C18 0.89243 17.0948 0 15.3645 0H2.44326C0.897196 0 0 0.884462 0 2.59761V11.4024C0 13.1076 0.905207 14 2.63551 14ZM8.0988 7.2749L2.26702 1.53785C2.37917 1.51394 2.50734 1.49801 2.64352 1.49801H15.3565C15.5007 1.49801 15.6288 1.51394 15.749 1.54582L9.92523 7.2749C9.58879 7.60159 9.30841 7.74502 9.01202 7.74502C8.71562 7.74502 8.43525 7.59363 8.0988 7.2749ZM1.498 2.70916L5.85581 6.97211L1.498 11.259V2.70916ZM12.1682 6.97211L16.502 2.73307V11.243L12.1682 6.97211ZM2.64352 12.494C2.49933 12.494 2.36315 12.4781 2.24299 12.4542L6.83311 7.92829L7.26569 8.35857C7.85047 8.9243 8.41121 9.16335 9.01202 9.16335C9.60481 9.16335 10.1736 8.9243 10.7503 8.35857L11.1909 7.92829L15.773 12.4462C15.6449 12.4781 15.5087 12.494 15.3565 12.494H2.64352Z" fill="#0D1018"/>
</svg>
