<svg width="25" height="25" viewBox="0 0 25 25" fill="none" xmlns="http://www.w3.org/2000/svg">
<g clip-path="url(#clip0_54_716)">
<path d="M12.5463 24.8611C11.6666 24.8611 10.9259 24.1204 10.9259 23.2407V17.8241H14.1203V23.287C14.1203 24.1667 13.4259 24.8611 12.5463 24.8611Z" fill="#4A4B4E"/>
<path d="M15.0926 17.8241H9.95369C9.58332 17.8241 9.30554 17.5463 9.30554 17.1759V14.6296H15.7407V17.1759C15.7407 17.5 15.4629 17.8241 15.0926 17.8241Z" fill="#4A4B4E"/>
<path d="M14.3519 0.87963C14.3056 0.462963 13.9352 0.138889 13.5185 0.138889H11.4815C11.0648 0.138889 10.6944 0.462963 10.6482 0.87963L9.30469 14.6296H15.7407L14.3519 0.87963ZM14.213 14.0278H10.8333C10.6944 14.0278 10.6019 13.9352 10.6019 13.7963L11.7593 1.80556C11.8056 1.43519 11.8056 1.2037 12.0833 1.2037H12.9096C13.1874 1.2037 13.287 1.43519 13.287 1.80556L14.4444 13.8426C14.4444 13.8889 14.3519 14.0278 14.213 14.0278Z" fill="#4A4B4E"/>
<path d="M17.5 8.65741C19.213 10.9722 19.2593 13.3796 17.5 15.8333" stroke="#4A4B4E" stroke-linecap="round"/>
<path d="M19.3518 6.75926C22.037 10.4167 22.037 14.0741 19.3518 17.7315" stroke="#4A4B4E" stroke-linecap="round"/>
<path d="M21.5278 4.90741C25.0464 9.90741 25.1852 14.8148 21.5278 19.5833" stroke="#4A4B4E" stroke-linecap="round"/>
<path d="M7.50002 8.65741C5.78705 10.9722 5.74076 13.3796 7.50002 15.8333" stroke="#4A4B4E" stroke-linecap="round"/>
<path d="M5.64817 6.75926C2.96298 10.4167 2.96298 14.0741 5.64817 17.7315" stroke="#4A4B4E" stroke-linecap="round"/>
<path d="M3.47228 4.90741C5.74561e-05 9.90741 -0.185128 14.8148 3.47228 19.5833" stroke="#4A4B4E" stroke-linecap="round"/>
</g>
<defs>
<clipPath id="clip0_54_716">
<rect width="25" height="25" fill="white"/>
</clipPath>
</defs>
</svg>
