<svg width="18" height="14" viewBox="0 0 18 14" fill="none" xmlns="http://www.w3.org/2000/svg">
<path d="M6.84932 14H11.1836C12.1151 14 12.7397 13.2856 12.7397 12.2269V1.76674C12.7397 0.707973 12.1151 0 11.1836 0H6.84932C5.90137 0 5.26575 0.707973 5.26575 1.76674V12.2269C5.26575 13.2856 5.90137 14 6.84932 14ZM7.0411 12.6861C6.60822 12.6861 6.35616 12.4118 6.35616 11.9271V2.06651C6.35616 1.58178 6.60822 1.30752 7.0411 1.30752H7.26575V1.62642C7.26575 1.90706 7.41918 2.09203 7.66027 2.09203H10.3507C10.5918 2.09203 10.7452 1.90706 10.7452 1.62642V1.30752H10.9644C11.3973 1.30752 11.6493 1.58815 11.6493 2.07289V11.9271C11.6493 12.4118 11.3973 12.6861 10.9644 12.6861H7.0411ZM2.17534 11.3595C2.36164 11.1043 2.30137 10.7854 2.09315 10.5112C1.38082 9.59271 0.986301 8.35535 0.986301 7.00319C0.986301 5.65103 1.38082 4.41367 2.09315 3.49522C2.30685 3.22096 2.36164 2.90205 2.17534 2.64692C1.98356 2.38542 1.64384 2.36629 1.39726 2.67882C0.509589 3.79499 0 5.34487 0 7.00319C0 8.6615 0.493151 10.1986 1.39726 11.3276C1.64932 11.6401 1.98356 11.6273 2.17534 11.3595ZM15.8247 11.3595C16.0164 11.6273 16.3562 11.6401 16.6027 11.3276C17.5068 10.1986 18 8.6615 18 7.00319C18 5.34487 17.4904 3.79499 16.6027 2.67882C16.3562 2.36629 16.0219 2.38542 15.8247 2.64692C15.6384 2.90205 15.6932 3.22096 15.9068 3.49522C16.6192 4.41367 17.0192 5.65103 17.0192 7.00319C17.0192 8.35535 16.6192 9.59271 15.9068 10.5112C15.6986 10.7854 15.6384 11.1043 15.8247 11.3595ZM3.78082 9.52893C3.96164 9.28018 3.89041 8.97403 3.70959 8.68702C3.4137 8.24693 3.24932 7.62825 3.24932 7.00319C3.24932 6.37813 3.4137 5.75945 3.70959 5.31936C3.89041 5.03235 3.96164 4.7262 3.78082 4.47107C3.58904 4.20957 3.2274 4.19681 2.99726 4.51572C2.52603 5.17267 2.26301 6.05923 2.26301 7.00319C2.26301 7.94715 2.52603 8.83371 2.99726 9.49066C3.2274 9.80957 3.58904 9.79681 3.78082 9.52893ZM14.2192 9.52893C14.411 9.79681 14.7781 9.80957 15.0027 9.49066C15.474 8.83371 15.737 7.94715 15.737 7.00319C15.737 6.05923 15.474 5.17267 15.0027 4.51572C14.7781 4.19681 14.411 4.20957 14.2192 4.47107C14.0384 4.7262 14.1096 5.03235 14.2904 5.31936C14.5863 5.75945 14.7507 6.37813 14.7507 7.00319C14.7507 7.62825 14.5863 8.24693 14.2904 8.68702C14.1096 8.97403 14.0384 9.28018 14.2192 9.52893ZM7.53973 12.1822H10.4712C10.6301 12.1822 10.7452 12.0547 10.7452 11.8569C10.7452 11.6656 10.6301 11.538 10.4712 11.538H7.53973C7.38082 11.538 7.26575 11.6656 7.26575 11.8569C7.26575 12.0547 7.38082 12.1822 7.53973 12.1822Z" fill="#0D1018"/>
</svg>
