<?xml version="1.0" encoding="UTF-8"?>
<!DOCTYPE svg PUBLIC "-//W3C//DTD SVG 1.1//EN" "http://www.w3.org/Graphics/SVG/1.1/DTD/svg11.dtd">
<!-- Creator: CorelDRAW 2021.5 -->
<svg xmlns="http://www.w3.org/2000/svg" xml:space="preserve" width="956px" height="950px" version="1.1" style="shape-rendering:geometricPrecision; text-rendering:geometricPrecision; image-rendering:optimizeQuality; fill-rule:evenodd; clip-rule:evenodd"
viewBox="0 0 130.88 130.02"
 xmlns:xlink="http://www.w3.org/1999/xlink"
 xmlns:xodm="http://www.corel.com/coreldraw/odm/2003">
 <defs>
  <style type="text/css">
   <![CDATA[
    .fil1 {fill:#20222B}
    .fil0 {fill:#0D1018;fill-rule:nonzero}
    .fil2 {fill:#76D6FF;fill-rule:nonzero}
   ]]>
  </style>
 </defs>
 <g id="Layer_x0020_1">
  <metadata id="CorelCorpID_0Corel-Layer"/>
  <path class="fil0" d="M50.86 91.85c-0.23,-0.21 -2.17,-1.43 -4.31,-2.71 -2.36,-1.41 -4.07,-2.32 -4.36,-2.32 -0.26,0 -0.65,0.13 -0.87,0.28 -0.61,0.43 -6.6,7.81 -6.8,8.39 -0.11,0.32 -0.12,0.67 -0.01,0.95 0.24,0.63 11.2,11.63 11.83,11.87 0.35,0.13 0.68,0.14 1.03,0.02 0.57,-0.2 7.96,-6.19 8.39,-6.8 0.15,-0.22 0.28,-0.61 0.28,-0.87 0,-0.53 -4.5,-8.18 -5.18,-8.81z"/>
  <path class="fil0" d="M81.63 44.7c-0.93,0.8 -2.11,1.56 -2.11,1.56 0,0 -11.72,10.16 -21.84,18.71 -10.12,8.55 -18.71,15.94 -19.1,16.43 -0.8,1 -3.51,6.29 -3.51,6.85 0,0.46 0.5,1.45 0.7,1.38 0.08,-0.03 0.95,-1.03 1.94,-2.23 1.97,-2.37 2.63,-2.85 4.19,-3.01 0.7,-0.08 1.13,-0.01 1.76,0.27 1.6,0.7 8.34,4.88 9.03,5.59 0.71,0.73 4.85,7.45 5.51,8.94 0.28,0.64 0.35,1.06 0.27,1.76 -0.16,1.56 -0.64,2.22 -3.02,4.19 -1.19,0.99 -2.19,1.86 -2.22,1.94 -0.08,0.2 0.92,0.7 1.38,0.7 0.52,0 5.61,-2.57 6.7,-3.39 0.6,-0.45 7.4,-8.34 19.9,-23.1 10.44,-12.34 19.17,-22.67 19.39,-22.96 0.24,-0.32 0.4,-0.79 0.4,-1.17 0,-0.35 -0.52,-3.23 -1.16,-6.4 -0.97,-4.84 -1.22,-5.83 -1.56,-6.17 -0.34,-0.34 -1.33,-0.59 -6.16,-1.56 -3.18,-0.63 -6.07,-1.15 -6.43,-1.15 -0.71,0 -0.97,0.17 -4.06,2.82z"/>
  <path class="fil1" d="M85 39.4c-0.34,0.06 -0.87,0.24 -1.17,0.4 -0.63,0.33 -5.64,4.68 -5.64,4.68l1.33 1.78c0,0 1.18,-0.76 2.11,-1.56 3.09,-2.65 3.35,-2.82 4.06,-2.82 0.36,0 3.25,0.52 6.43,1.15 4.83,0.97 5.82,1.22 6.16,1.56 0.34,0.34 0.59,1.33 1.56,6.17 0.64,3.17 1.16,6.05 1.16,6.4 0,0.38 -0.16,0.85 -0.4,1.17 -0.22,0.29 -8.95,10.62 -19.39,22.96 -12.5,14.76 -19.3,22.65 -19.9,23.1 -1.09,0.82 -6.18,3.39 -6.7,3.39 -0.46,0 -1.46,-0.5 -1.38,-0.7 0.03,-0.08 1.03,-0.95 2.22,-1.94 2.38,-1.97 2.86,-2.63 3.02,-4.19 0.08,-0.7 0.01,-1.12 -0.27,-1.76 -0.66,-1.49 -4.8,-8.21 -5.51,-8.94 -0.69,-0.71 -7.43,-4.89 -9.03,-5.59 -0.63,-0.28 -1.06,-0.35 -1.76,-0.27 -1.56,0.16 -2.22,0.64 -4.19,3.01 -0.99,1.2 -1.86,2.2 -1.94,2.23 -0.2,0.07 -0.7,-0.92 -0.7,-1.38 0,-0.56 2.71,-5.85 3.51,-6.85 0.39,-0.49 8.98,-7.88 19.1,-16.43 10.12,-8.55 21.84,-18.71 21.84,-18.71l-1.33 -1.78c0,0 -40.8,34.41 -41.57,35.37 -0.96,1.19 -3.84,6.95 -3.98,7.94 -0.15,1.09 0.21,2.24 0.96,3.11l0.61 0.72 -0.5 0.64c-1.18,1.49 -1.47,1.98 -1.67,2.78 -0.33,1.33 0.05,2.67 1.04,3.73l0.47 0.5 -7.54 7.53c-6.48,6.48 -7.6,7.53 -7.95,7.44 -0.96,-0.24 -1.65,0.1 -3.19,1.59 -0.83,0.79 -1.63,1.68 -1.78,1.96 -0.3,0.59 -0.35,1.88 -0.08,2.36 0.09,0.18 2.32,2.47 4.95,5.08 5.01,4.99 4.86,4.88 6.27,4.76 0.72,-0.07 1.26,-0.44 2.6,-1.81 1.51,-1.55 1.91,-2.26 1.79,-3.17l-0.09 -0.66 7.53 -7.52 7.53 -7.53 0.49 0.46c1.48,1.39 3.6,1.53 5.22,0.36 0.36,-0.26 0.94,-0.7 1.29,-0.98l0.64 -0.51 0.72 0.62c0.88,0.75 2.03,1.1 3.12,0.96 1.06,-0.15 6.81,-3.07 8.01,-4.06 1.21,-1.01 -0.07,0.47 21.09,-24.53 10.23,-12.09 18.76,-22.31 18.97,-22.71 0.24,-0.46 0.37,-1.05 0.36,-1.64 0,-0.5 -0.55,-3.65 -1.23,-7 -1.35,-6.67 -1.49,-7.05 -2.87,-7.96 -0.57,-0.38 -1.74,-0.68 -6.35,-1.61 -6.75,-1.36 -7.25,-1.44 -8.05,-1.3zm-25.8 0.48c-0.15,0.17 -0.32,0.42 -0.4,0.54 -0.14,0.25 1.43,6.37 1.74,6.76 0.55,0.7 1.9,0.49 2.16,-0.32 0.13,-0.42 -1.39,-6.28 -1.79,-6.89 -0.32,-0.5 -1.31,-0.55 -1.71,-0.09zm26.81 5.99c-0.38,0.13 -1.02,0.51 -1.43,0.83 -1,0.8 -26.66,22.55 -26.66,22.55l0.89 2.12c0,0 4.39,-3.37 13.97,-11.48 7.46,-6.31 13.76,-11.55 14,-11.65 0.33,-0.13 1.08,-0.05 2.93,0.31 3.13,0.61 3.59,0.79 3.89,1.54 0.13,0.32 0.46,1.7 0.72,3.07 0.36,1.85 0.44,2.6 0.31,2.93 -0.22,0.56 -32.01,38.1 -32.26,38.1 -0.1,0 -1.16,-1.64 -2.35,-3.64 -1.48,-2.48 -2.47,-3.94 -3.12,-4.59 -0.65,-0.65 -2.11,-1.64 -4.59,-3.12 -2.01,-1.19 -3.65,-2.25 -3.65,-2.35 0,-0.1 1.59,-1.53 3.53,-3.17 1.93,-1.64 6.62,-5.95 6.62,-5.95l-0.45 -1.06 -0.44 -1.06c0,0 -10.96,9.22 -11.45,9.94 -0.34,0.49 -0.4,0.78 -0.34,1.47 0.05,0.47 0.24,1.07 0.43,1.33 0.2,0.26 2.13,1.56 4.29,2.88 2.17,1.31 4.12,2.57 4.34,2.79 0.22,0.22 1.48,2.17 2.8,4.34 1.32,2.17 2.63,4.11 2.9,4.31 0.7,0.51 2.21,0.51 2.91,0 0.63,-0.46 32.26,-37.75 32.85,-38.72 0.7,-1.17 0.7,-1.96 0.03,-5.25 -0.98,-4.8 -1.36,-5.19 -6.07,-6.14 -3.2,-0.65 -3.63,-0.68 -4.6,-0.33zm-45.43 4.84c-0.26,0.33 -0.35,0.62 -0.27,0.93 0.06,0.26 1.13,1.47 2.46,2.81 2.59,2.57 2.93,2.75 3.77,1.91 0.76,-0.76 0.61,-1.04 -2,-3.68 -2.13,-2.14 -2.51,-2.45 -3.01,-2.45 -0.41,0 -0.68,0.13 -0.95,0.48zm-10.65 18.46c-0.21,0.26 -0.37,0.53 -0.37,0.61 0,0.41 0.45,1.05 0.87,1.22 0.78,0.31 5.77,1.61 6.19,1.61 0.96,0 1.48,-1.39 0.76,-2.04 -0.4,-0.36 -5.63,-1.85 -6.52,-1.86 -0.4,-0.01 -0.67,0.13 -0.93,0.46zm65.95 11.02c-0.12,0.05 -0.34,0.32 -0.48,0.6 -0.28,0.54 -0.16,1.17 0.29,1.53 0.13,0.1 1.67,0.57 3.41,1.03l3.17 0.85 0.47 -0.35c0.66,-0.49 0.75,-1.52 0.17,-1.9 -0.38,-0.25 -6.22,-1.9 -6.62,-1.87 -0.1,0.01 -0.28,0.06 -0.41,0.11zm-49.33 8.95c2.14,1.28 4.08,2.5 4.31,2.71 0.68,0.63 5.18,8.28 5.18,8.81 0,0.26 -0.13,0.65 -0.28,0.87 -0.43,0.61 -7.82,6.6 -8.39,6.8 -0.35,0.12 -0.68,0.11 -1.03,-0.02 -0.63,-0.24 -11.59,-11.24 -11.83,-11.87 -0.11,-0.28 -0.1,-0.63 0.01,-0.95 0.2,-0.58 6.19,-7.96 6.8,-8.39 0.22,-0.15 0.61,-0.28 0.87,-0.28 0.29,0 2,0.91 4.36,2.32zm-2.69 2.31c-0.3,0.09 -1.23,0.86 -2.19,1.82 -1.42,1.44 -1.67,1.77 -1.75,2.39 -0.05,0.4 -0.04,0.96 0.03,1.23 0.14,0.55 4.84,5.42 5.64,5.84 0.57,0.3 1.52,0.33 2.22,0.06 0.81,-0.31 3.39,-3.1 3.61,-3.91 0.36,-1.31 0.08,-1.77 -2.8,-4.64 -2.96,-2.95 -3.37,-3.2 -4.76,-2.79zm3.03 4.55l2.24 2.24 -1.12 1.13c-0.61,0.62 -1.2,1.13 -1.29,1.13 -0.24,0 -4.37,-4.11 -4.37,-4.35 0,-0.14 2.12,-2.4 2.25,-2.4 0.03,0 1.05,1.01 2.29,2.25zm39.62 0.32c-0.83,0.82 -0.65,1.18 1.8,3.66 2.56,2.58 3.04,2.89 3.77,2.35 0.32,-0.24 0.49,-0.55 0.53,-0.96 0.05,-0.57 -0.11,-0.77 -2.42,-3.05 -2.64,-2.62 -2.92,-2.77 -3.68,-2zm-45.18 11.72c-0.27,0.29 -0.81,0.83 -1.2,1.2l-0.71 0.67 -3.24 -3.24 -3.24 -3.23 1.19 -1.21 1.2 -1.2 3.24 3.24 3.24 3.23 -0.48 0.54zm29.28 -2.57c-0.49,0.49 -0.46,0.76 0.36,3.82 0.9,3.38 0.98,3.57 1.62,3.83 0.46,0.19 0.59,0.17 1.01,-0.13 0.27,-0.2 0.5,-0.57 0.53,-0.85 0.08,-0.68 -1.38,-6.08 -1.79,-6.6 -0.42,-0.53 -1.24,-0.56 -1.73,-0.07zm-36.21 2.98c1.74,1.73 3.16,3.23 3.15,3.33 0,0.21 -2.02,2.22 -2.24,2.22 -0.09,0 -1.59,-1.44 -3.35,-3.2l-3.19 -3.19 1.14 -1.16c0.63,-0.64 1.19,-1.16 1.24,-1.16 0.05,0 1.51,1.42 3.25,3.16zm-2.09 8.65l-1.24 1.15 -3.24 -3.23 -3.24 -3.24 1.19 -1.2 1.2 -1.2 3.29 3.28 3.29 3.29 -1.25 1.15zm-6.23 -0.27c3.59,3.58 3.39,3.09 1.86,4.67 -0.45,0.47 -0.89,0.85 -0.98,0.85 -0.09,0 -1.6,-1.44 -3.35,-3.2l-3.2 -3.19 1.15 -1.16c0.63,-0.64 1.19,-1.16 1.24,-1.16 0.06,0 1.53,1.44 3.28,3.19zm-1 9.56c-0.61,0.61 -1.19,1.11 -1.29,1.11 -0.23,0 -8.45,-8.2 -8.45,-8.43 0,-0.1 0.5,-0.68 1.11,-1.29l1.11 -1.12 4.31 4.31 4.31 4.3 -1.1 1.12z"/>
  <path class="fil2" d="M72.78 59.89c-9.58,8.11 -13.97,11.48 -13.97,11.48l-6.62 5.95c-1.94,1.64 -3.53,3.07 -3.53,3.17 0,0.1 1.64,1.16 3.65,2.35 1.98,1.15 3,1.83 4.59,3.12 0.65,0.65 1.64,2.11 3.12,4.59 1.19,2 2.25,3.64 2.35,3.64 0.25,0 32.04,-37.54 32.26,-38.1 0.13,-0.33 0.05,-1.08 -0.31,-2.93l-0.72 -3.07c-0.3,-0.75 -0.76,-0.93 -3.89,-1.54 -1.85,-0.36 -2.6,-0.44 -2.93,-0.31l-14 11.65z"/>
  <path class="fil0" d="M40.13 109.24c0.39,-0.37 0.93,-0.91 1.2,-1.2l0.48 -0.54 -3.24 -3.23 -3.24 -3.24 -1.2 1.2 -1.19 1.21 3.24 3.23 3.24 3.24 0.71 -0.67z"/>
  <path class="fil0" d="M37.55 111.78c0.01,-0.1 -1.41,-1.6 -3.15,-3.33 -1.74,-1.74 -3.2,-3.16 -3.25,-3.16 -0.05,0 -0.61,0.52 -1.24,1.16l-1.14 1.16 3.19 3.19c1.76,1.76 3.26,3.2 3.35,3.2 0.22,0 2.24,-2.01 2.24,-2.22z"/>
  <polygon class="fil0" points="31.07,118.25 32.31,117.1 33.56,115.95 30.27,112.66 26.98,109.38 25.78,110.58 24.59,111.78 27.83,115.02 "/>
  <path class="fil0" d="M27.94 121.5c1.53,-1.58 1.73,-1.09 -1.86,-4.67 -1.75,-1.75 -3.22,-3.19 -3.28,-3.19 -0.05,0 -0.61,0.52 -1.24,1.16l-1.15 1.16 3.2 3.19c1.75,1.76 3.26,3.2 3.35,3.2 0.09,0 0.53,-0.38 0.98,-0.85z"/>
  <path class="fil2" d="M49.13 98.24l-2.24 -2.24c-1.24,-1.24 -2.26,-2.25 -2.29,-2.25 -0.13,0 -2.25,2.26 -2.25,2.4 0,0.24 4.13,4.35 4.37,4.35 0.09,0 0.68,-0.51 1.29,-1.13l1.12 -1.13z"/>
  <path class="fil0" d="M23.79 127.5c0.1,0 0.68,-0.5 1.29,-1.11l1.1 -1.12 -4.31 -4.3 -4.31 -4.31 -1.11 1.12c-0.61,0.61 -1.11,1.19 -1.11,1.29 0,0.23 8.22,8.43 8.45,8.43z"/>
  <path class="fil1" d="M1.94 32.1c-0.11,0.05 -0.18,0.14 -0.18,0.27 0,0.09 0.14,0.24 1.02,1.12l1.01 1.01 0 0.35 0 0.35 -0.34 0.34 -0.34 0.33 -0.35 0 -0.34 0 -1.02 -1.01c-0.92,-0.92 -1.02,-1.01 -1.13,-1.01 -0.07,0.01 -0.15,0.04 -0.19,0.08 -0.08,0.08 -0.08,0.11 -0.08,1.36l0 1.28 0.81 0.81 0.82 0.82 1.18 0.01 1.18 0.01 1.25 1.24 1.24 1.24 1.07 -1.07 1.07 -1.07 -1.24 -1.24 -1.24 -1.24 -0.02 -1.18 -0.01 -1.18 -0.81 -0.82 -0.82 -0.81 -1.23 -0.01c-0.68,-0.01 -1.27,0.01 -1.31,0.02zm12.88 0.73c-0.84,0.42 -1.56,0.8 -1.59,0.83 -0.04,0.05 -0.05,0.2 -0.06,0.66l-0.01 0.58 -3.3 3.3 -3.29 3.29 0.78 0.78 0.78 0.78 3.29 -3.3 3.29 -3.29 0.59 -0.01c0.46,-0.01 0.61,-0.02 0.66,-0.06 0.11,-0.1 1.56,-3.03 1.56,-3.16 0,-0.11 -0.06,-0.18 -0.51,-0.62 -0.27,-0.27 -0.53,-0.51 -0.58,-0.52 -0.05,-0.02 -0.49,0.18 -1.61,0.74zm-4.83 9.24l-1.08 1.07 1.25 1.24 1.24 1.24 0.01 1.18 0.01 1.19 0.82 0.81 0.81 0.81 1.28 0c1.27,0 1.28,0 1.36,-0.08 0.05,-0.04 0.08,-0.12 0.08,-0.19 0,-0.1 -0.12,-0.23 -1.01,-1.13l-1.01 -1.01 0 -0.35 0 -0.35 0.35 -0.35 0.36 -0.36 0.31 0 0.31 0 1.03 1.02c0.96,0.97 1.03,1.03 1.15,1.03 0.09,0 0.16,-0.03 0.21,-0.08 0.06,-0.07 0.07,-0.15 0.07,-1.35l0 -1.28 -0.82 -0.81 -0.81 -0.82 -1.18 -0.01 -1.18 -0.01 -1.25 -1.24 -1.24 -1.24 -1.07 1.07zm-4.52 -0.61c-0.03,0.01 -0.21,0.18 -0.41,0.37l-0.36 0.36 1.37 1.36 1.36 1.36 0.36 -0.35c0.32,-0.32 0.36,-0.37 0.36,-0.49 0,-0.12 -0.08,-0.21 -1.24,-1.36 -0.68,-0.68 -1.27,-1.24 -1.31,-1.25 -0.04,-0.01 -0.1,-0.01 -0.13,0zm-3.17 3.13c-1.86,1.87 -1.95,1.96 -2.07,2.22 -0.17,0.35 -0.22,0.58 -0.22,0.92 0.01,0.47 0.11,0.79 0.37,1.13 0.19,0.26 0.4,0.42 0.73,0.58 0.24,0.12 0.31,0.13 0.64,0.15 0.44,0.02 0.68,-0.03 1.05,-0.2 0.26,-0.13 0.36,-0.22 2.23,-2.08l1.95 -1.94 -1.37 -1.36 -1.36 -1.37 -1.95 1.95z"/>
  <path class="fil1" d="M32.83 0.02c-2,0.15 -3.85,1.52 -4.63,3.41 -1.05,2.58 0.02,5.58 2.47,6.92 0.25,0.14 0.32,0.2 0.3,0.27 -0.02,0.04 -0.08,0.29 -0.14,0.56 -0.08,0.4 -0.09,0.6 -0.07,1.23 0.03,0.86 0.14,1.35 0.49,2.08 1.02,2.14 3.33,3.34 5.68,2.95 0.3,-0.05 0.6,-0.08 0.67,-0.06 0.1,0.02 0.87,1.02 3.12,4.04 1.65,2.2 3.01,4.03 3.03,4.06 0.04,0.05 2.28,0.22 2.33,0.17 0.07,-0.07 0.49,-2.1 0.46,-2.22 -0.05,-0.22 -0.2,-0.3 -0.82,-0.48 -0.51,-0.15 -0.62,-0.2 -0.77,-0.36 -0.22,-0.22 -0.27,-0.43 -0.2,-0.84 0.08,-0.47 0.1,-0.44 -0.46,-0.62 -0.81,-0.25 -0.98,-0.48 -0.86,-1.21 0.04,-0.2 0.05,-0.37 0.03,-0.39 -0.01,-0.01 -0.23,-0.09 -0.48,-0.16 -0.52,-0.16 -0.67,-0.24 -0.8,-0.46 -0.12,-0.19 -0.13,-0.46 -0.05,-1.01l0.06 -0.38 -0.22 -0.29c-0.95,-1.24 -1.4,-1.9 -1.4,-2.05 0,-0.09 0.1,-0.38 0.22,-0.64 1.22,-2.57 0.22,-5.58 -2.29,-6.93 -1.04,-0.56 -2.32,-0.75 -3.5,-0.53 -1.36,0.25 -2.68,1.13 -3.43,2.29 -0.13,0.19 -0.25,0.35 -0.28,0.35 -0.14,0 -0.77,-0.43 -1.15,-0.79 -0.69,-0.65 -1.12,-1.37 -1.37,-2.28 -0.14,-0.55 -0.16,-1.64 -0.02,-2.18 0.35,-1.43 1.25,-2.55 2.56,-3.18 1.51,-0.72 3.25,-0.59 4.65,0.35 0.63,0.42 1.36,1.27 1.61,1.85l0.07 0.18 -0.26 0.04c-0.68,0.09 -1.56,0.44 -2.23,0.89 -0.4,0.28 -1.05,0.94 -1.35,1.38 -0.36,0.54 -0.36,0.53 0.2,0.34 0.67,-0.23 1.27,-0.32 2.03,-0.32 1.75,0 3.28,0.64 4.48,1.88 1.23,1.27 1.83,2.83 1.75,4.58 -0.02,0.39 -0.04,0.75 -0.04,0.82 -0.01,0.1 0.47,0.4 4.1,2.57l4.12 2.46 1.07 -0.35c0.59,-0.2 1.08,-0.37 1.09,-0.38 0.04,-0.03 -0.31,-2.05 -0.38,-2.19 -0.12,-0.24 -0.25,-0.27 -0.94,-0.2 -0.72,0.07 -0.89,0.05 -1.11,-0.16 -0.13,-0.12 -0.19,-0.25 -0.28,-0.6 -0.08,-0.29 -0.14,-0.43 -0.18,-0.42 -0.04,0.02 -0.3,0.04 -0.58,0.06 -0.45,0.03 -0.55,0.02 -0.7,-0.06 -0.24,-0.13 -0.38,-0.36 -0.46,-0.75 -0.03,-0.18 -0.09,-0.34 -0.13,-0.36 -0.03,-0.01 -0.27,0 -0.53,0.03 -0.83,0.09 -1.03,-0.05 -1.25,-0.84 -0.08,-0.29 -0.18,-0.56 -0.21,-0.59 -0.04,-0.03 -0.54,-0.34 -1.13,-0.69 -0.58,-0.35 -1.1,-0.68 -1.16,-0.74 -0.09,-0.1 -0.09,-0.17 -0.08,-0.92 0.01,-0.92 -0.07,-1.42 -0.34,-2.12 -0.68,-1.76 -2.29,-3.05 -4.15,-3.31l-0.45 -0.06 -0.14 -0.33c-0.94,-2.19 -3.13,-3.49 -5.57,-3.31zm2.53 8.75c0.41,0.15 0.87,0.61 1.02,1.03 0.16,0.42 0.14,1.04 -0.06,1.44 -0.17,0.34 -0.5,0.66 -0.88,0.83 -0.25,0.12 -0.36,0.14 -0.74,0.14 -0.39,0 -0.5,-0.02 -0.74,-0.14 -0.34,-0.16 -0.72,-0.51 -0.85,-0.81l-0.09 -0.21 0.51 -0.02c0.43,-0.03 0.53,-0.02 0.61,0.05 0.18,0.15 0.32,0.2 0.56,0.2 0.76,0 1.14,-0.9 0.6,-1.43 -0.35,-0.36 -0.87,-0.35 -1.21,0.03 -0.09,0.1 -0.17,0.21 -0.17,0.23 0,0.06 -0.48,0.11 -0.77,0.08l-0.23 -0.03 0.05 -0.18c0.15,-0.54 0.58,-1.03 1.06,-1.21 0.37,-0.14 0.95,-0.14 1.33,0zm11.84 5.53c1.99,1.19 3.67,2.22 3.73,2.29 0.14,0.15 0.15,0.4 0.04,0.56 -0.11,0.16 -0.39,0.24 -0.57,0.15 -0.45,-0.23 -7.21,-4.29 -7.3,-4.4 -0.25,-0.27 -0.03,-0.77 0.33,-0.77 0.11,0 1.16,0.61 3.77,2.17zm-8.25 1.85c0.05,0.03 1.41,1.82 3.02,3.97 2.73,3.66 2.93,3.94 2.93,4.12 0,0.17 -0.03,0.23 -0.16,0.34 -0.13,0.11 -0.2,0.13 -0.34,0.11 -0.1,-0.02 -0.22,-0.08 -0.28,-0.15 -0.12,-0.12 -5.64,-7.5 -5.79,-7.74 -0.25,-0.38 0.22,-0.86 0.62,-0.65z"/>
  <path class="fil1" d="M89.36 5.6c-2.21,0.13 -4.38,0.65 -5.66,1.35 -0.89,0.49 -1.5,1.1 -1.71,1.73 -0.08,0.24 -0.08,0.28 -0.09,2.16 -0.01,2.1 -0.01,2.13 0.2,2.49 0.14,0.25 0.54,0.63 0.86,0.85 0.27,0.17 0.57,0.34 0.61,0.34 0.02,0 0.02,-0.5 0.02,-1.12 0,-0.61 0.02,-1.11 0.03,-1.11 0.02,0 0.22,0.07 0.46,0.15l0.44 0.15 0.01 1.17 0.01 1.18 0.35 0.11c0.31,0.1 1.32,0.37 1.4,0.37 0.01,0 0.02,-0.53 0.02,-1.17 0,-0.64 0.02,-1.18 0.03,-1.19 0.02,-0.01 0.22,0.02 0.45,0.06 0.23,0.03 0.42,0.07 0.44,0.07 0.01,0 0.03,0.54 0.03,1.2l0 1.2 0.11 0.02c0.24,0.04 1,0.13 1.36,0.15l0.37 0.03 0 -1.22 0 -1.21 0.17 0.02c0.09,0.01 0.3,0.02 0.46,0.02l0.28 0 0 1.2 0 1.21 0.19 0.01c0.1,0.02 0.51,0.01 0.91,0l0.71 -0.02 0.01 -1.21 0.01 -1.2 0.44 -0.04c0.23,-0.03 0.44,-0.04 0.46,-0.03 0.01,0.01 0.02,0.55 0.02,1.2l0 1.19 0.12 0c0.1,0 0.98,-0.12 1.47,-0.2l0.15 -0.03 0.01 -1.21 0.01 -1.21 0.38 -0.08c0.21,-0.04 0.41,-0.08 0.45,-0.08 0.06,0 0.06,0.08 0.06,1.19 0,0.7 0.01,1.18 0.03,1.18 0.08,0 0.92,-0.25 1.2,-0.36l0.29 -0.11 0 -1.18 0 -1.18 0.23 -0.08c0.12,-0.05 0.33,-0.13 0.45,-0.19l0.23 -0.1 0.01 1.16 0.01 1.15 0.29 -0.19c0.38,-0.25 0.84,-0.71 0.97,-0.98 0.17,-0.34 0.18,-0.48 0.16,-2.43 -0.01,-1.49 -0.03,-1.86 -0.07,-2.01 -0.35,-1.18 -1.8,-2.12 -4.14,-2.69 -1.75,-0.43 -3.79,-0.6 -5.71,-0.48zm3.26 1.12c2.59,0.31 4.61,1.04 5.31,1.93 0.4,0.5 0.35,0.94 -0.17,1.44 -0.85,0.83 -2.76,1.48 -5.19,1.75 -0.79,0.09 -3.17,0.09 -3.96,0 -2.79,-0.31 -4.93,-1.14 -5.51,-2.13 -0.09,-0.15 -0.1,-0.22 -0.1,-0.43 0,-0.23 0.01,-0.28 0.12,-0.46 0.59,-0.97 2.81,-1.82 5.46,-2.09 0.3,-0.03 0.62,-0.06 0.7,-0.07 0.45,-0.04 2.88,0.01 3.34,0.06zm-3.12 0.67c0,0.14 0,0.14 -0.15,0.16 -1.07,0.12 -1.51,0.22 -1.94,0.43 -0.29,0.14 -0.44,0.3 -0.44,0.48 0,0.56 1.11,0.9 3.42,1.06 0.69,0.04 1.32,0.12 1.57,0.2 0.22,0.06 0.39,0.19 0.36,0.27 -0.06,0.17 -0.47,0.24 -1.31,0.25 -0.74,0 -1.25,-0.07 -1.76,-0.24l-0.37 -0.12 -0.96 0 -0.95 0 0 0.2c0,0.12 -0.02,0.34 -0.03,0.51l-0.02 0.29 0.96 0c0.96,0 0.97,0 0.97,-0.07 0,-0.06 0.02,-0.07 0.1,-0.06 0.05,0.01 0.16,0.03 0.24,0.05 0.28,0.04 0.28,0.03 0.28,0.25l0 0.19 0.96 0 0.96 0 0 -0.15 0 -0.16 0.44 -0.02c1.38,-0.08 2.39,-0.47 2.38,-0.92 0,-0.29 -0.27,-0.51 -0.88,-0.71 -0.56,-0.19 -1.33,-0.31 -2.54,-0.39 -0.44,-0.03 -0.93,-0.08 -1.09,-0.1 -0.86,-0.11 -1.12,-0.31 -0.65,-0.5 0.2,-0.08 0.28,-0.09 0.91,-0.1 0.79,-0.01 1.25,0.04 1.76,0.21l0.32 0.11 0.96 0 0.96 0 -0.02 -0.19c-0.01,-0.11 -0.02,-0.32 -0.04,-0.47l-0.02 -0.28 -0.9 0c-0.84,0 -0.9,0.01 -0.91,0.07 -0.02,0.06 -0.04,0.06 -0.29,0.02 -0.15,-0.03 -0.31,-0.05 -0.37,-0.05 -0.09,0 -0.1,-0.01 -0.1,-0.18l0 -0.18 -0.9 0 -0.91 0 0 0.14zm10.54 2.51l-0.1 0.02 0 0.51 0 0.52 1.19 0.02c1.59,0.02 2.54,0.13 3.81,0.44 1.73,0.42 3.04,1.11 3.38,1.79 0.12,0.25 0.12,0.58 0,0.81 -0.12,0.22 -0.48,0.57 -0.8,0.78 -2.17,1.4 -6.85,1.89 -10.46,1.09 -0.27,-0.06 -0.54,-0.1 -0.6,-0.09 -0.05,0.01 -0.38,0.09 -0.73,0.18 -0.95,0.25 -2.17,0.44 -3.24,0.52l-0.36 0.03 0 0.36c0.01,0.35 0.02,0.39 0.14,0.65 0.21,0.43 0.77,0.94 1.39,1.25l0.19 0.1 0 -1.14c0,-0.63 0.02,-1.13 0.03,-1.13 0.02,0.01 0.22,0.08 0.46,0.16l0.42 0.14 0 1.17 0 1.18 0.36 0.11c0.34,0.12 1.31,0.37 1.41,0.37 0.03,0 0.04,-0.26 0.04,-1.19 0,-0.67 0.01,-1.19 0.03,-1.19 0.02,0 0.16,0.03 0.32,0.05 0.16,0.03 0.35,0.06 0.42,0.08l0.14 0.02 0 1.2 0 1.2 0.28 0.04c0.35,0.05 1.29,0.15 1.45,0.15l0.12 0 0 -1.21 0 -1.21 0.19 0.02c0.1,0.01 0.3,0.02 0.45,0.02l0.26 0 0 1.21c0,1 0.01,1.21 0.05,1.23 0.03,0.01 0.44,0 0.92,-0.01l0.86 -0.03 0.01 -1.21 0.01 -1.22 0.35 -0.02c0.2,-0.01 0.4,-0.03 0.46,-0.04l0.1 -0.02 0 1.22 0 1.23 0.15 -0.02c0.29,-0.04 1.42,-0.2 1.5,-0.22l0.09 -0.02 0.01 -1.2 0 -1.21 0.4 -0.08c0.22,-0.05 0.43,-0.09 0.47,-0.09 0.05,0 0.06,0.08 0.06,1.19l0 1.19 0.12 -0.03c0.19,-0.04 0.9,-0.26 1.13,-0.35l0.22 -0.08 0.01 -1.19 0.01 -1.19 0.13 -0.05c0.08,-0.02 0.27,-0.09 0.44,-0.16 0.16,-0.07 0.3,-0.12 0.31,-0.12 0.01,0 0.02,0.51 0.02,1.13 0,0.62 0.01,1.13 0.02,1.13 0.02,0 0.16,-0.08 0.33,-0.19 0.43,-0.29 0.78,-0.65 0.95,-0.99l0.13 -0.27 0 -2 0 -2 -0.08 -0.23c-0.61,-1.68 -3.46,-2.86 -7.47,-3.1 -0.58,-0.03 -1.7,-0.04 -1.9,-0.01zm-19.06 0.43c-1.16,0.12 -1.73,0.21 -2.53,0.39 -2.56,0.59 -4.15,1.63 -4.41,2.89 -0.05,0.23 -0.05,0.58 -0.04,2.15l0.01 1.88 0.13 0.26c0.17,0.33 0.38,0.58 0.72,0.83 0.25,0.18 0.78,0.5 0.84,0.5 0.02,0 0.03,-0.5 0.03,-1.11 0,-0.62 0.01,-1.12 0.02,-1.12 0.02,0 0.22,0.07 0.45,0.15l0.43 0.15 0.01 1.17 0.01 1.18 0.38 0.12c0.21,0.06 0.59,0.16 0.84,0.22 0.25,0.06 0.48,0.12 0.51,0.13 0.06,0.02 0.07,-0.06 0.07,-1.18l0 -1.2 0.45 0.07 0.45 0.07 0.01 1.21 0.01 1.21 0.2 0.02c0.24,0.03 1.14,0.13 1.42,0.15l0.21 0.02 0 -1.2 0 -1.21 0.37 0c0.21,0 0.41,0.01 0.46,0.02l0.08 0.03 0 1.2 0 1.2 0.65 0c0.35,0 0.77,-0.01 0.92,-0.02l0.28 -0.03 0 -1.2c0,-0.93 0.01,-1.2 0.04,-1.21 0.03,-0.01 0.23,-0.03 0.46,-0.04l0.4 -0.02 0 1.21 0 1.21 0.21 -0.03c0.26,-0.03 1.13,-0.15 1.35,-0.19l0.16 -0.02 0.01 -1.22 0.01 -1.21 0.21 -0.04c0.12,-0.02 0.31,-0.06 0.44,-0.09 0.12,-0.03 0.23,-0.05 0.24,-0.05 0.01,0 0.02,0.54 0.02,1.2 0,0.67 0.01,1.21 0.01,1.21 0.05,0 0.83,-0.24 1.14,-0.35l0.37 -0.13 0.01 -1.19 0.01 -1.19 0.43 -0.17 0.44 -0.16 0.01 1.13c0.01,0.98 0.02,1.13 0.06,1.11 0.15,-0.06 0.64,-0.42 0.85,-0.63 0.43,-0.43 0.55,-0.75 0.55,-1.44l0 -0.44 -0.39 0.02c-0.41,0.03 -2,-0.03 -2.64,-0.09 -0.2,-0.02 -0.67,-0.08 -1.05,-0.13l-0.68 -0.09 -0.52 0.09c-1.28,0.24 -2.4,0.33 -3.84,0.3 -1.08,-0.02 -1.73,-0.08 -2.62,-0.22 -2.07,-0.34 -3.77,-1.06 -4.34,-1.83 -0.26,-0.34 -0.3,-0.63 -0.14,-0.95 0.47,-1.02 2.82,-1.94 5.66,-2.21l0.44 -0.04 0 -0.54c0,-0.6 0.04,-0.54 -0.29,-0.51zm18.96 1.71l0 0.46 0.35 0c0.48,0 1.05,0.09 1.49,0.24l0.37 0.12 0.91 0 0.91 0 -0.02 -0.4c-0.02,-0.22 -0.03,-0.44 -0.04,-0.49l-0.02 -0.08 -0.9 0c-0.9,0 -0.91,0 -0.91,0.08 0,0.06 -0.02,0.07 -0.09,0.05 -0.09,-0.02 -0.55,-0.09 -0.63,-0.09 -0.03,0 -0.04,-0.06 -0.04,-0.18l0 -0.18 -0.69 0 -0.69 0 0 0.47zm-19.23 0.3c-0.7,0.11 -1.26,0.32 -1.51,0.56 -0.14,0.15 -0.17,0.26 -0.1,0.44 0.13,0.36 1.08,0.67 2.44,0.81 0.19,0.02 0.27,0.02 0.25,-0.01 -0.2,-0.25 -0.3,-0.39 -0.36,-0.55 -0.07,-0.15 -0.1,-0.18 -0.21,-0.2 -0.07,-0.02 -0.17,-0.07 -0.23,-0.11 -0.12,-0.11 -0.08,-0.2 0.13,-0.27l0.15 -0.05 0 -0.34 0 -0.33 -0.11 0c-0.07,0 -0.27,0.03 -0.45,0.05zm19.18 0.94c-0.01,0.07 -0.06,0.22 -0.11,0.32l-0.09 0.19 0.21 0.02c0.11,0.02 0.45,0.04 0.75,0.06 0.95,0.07 1.5,0.18 1.65,0.35 0.08,0.08 0.08,0.08 0.02,0.15 -0.13,0.14 -0.55,0.2 -1.29,0.2 -0.7,0 -1.07,-0.04 -1.52,-0.16l-0.26 -0.07 -0.24 0.19c-0.33,0.26 -0.44,0.33 -0.8,0.53l-0.32 0.18 0.5 0c0.48,0 0.5,0 0.5,-0.07 0,-0.09 0.04,-0.09 0.35,-0.03l0.23 0.04 0 0.21 0 0.21 0.98 0 0.98 0 0 -0.16 0 -0.15 0.51 -0.05c1.5,-0.12 2.42,-0.51 2.3,-0.98 -0.14,-0.55 -1.28,-0.9 -3.32,-1.04 -0.31,-0.02 -0.66,-0.04 -0.78,-0.05l-0.23 -0.03 -0.02 0.14zm-20.83 1.65c0,0.18 -0.01,0.41 -0.02,0.5l-0.02 0.17 0.96 0c0.82,0 0.97,-0.01 0.97,-0.05 0,-0.08 0.04,-0.09 0.25,-0.06 0.39,0.07 0.36,0.05 0.36,0.27l0 0.2 0.97 0 0.96 0 0 -0.14c0,-0.17 0.02,-0.19 0.4,-0.19 0.16,0 0.28,-0.01 0.28,-0.02 0,-0.02 -0.12,-0.08 -0.28,-0.14 -0.15,-0.05 -0.46,-0.19 -0.68,-0.31 -0.37,-0.18 -0.43,-0.2 -0.72,-0.22 -0.41,-0.04 -0.78,-0.11 -1.2,-0.24 -0.33,-0.11 -0.33,-0.11 -1.28,-0.11l-0.95 0 0 0.34z"/>
  <path class="fil1" d="M121.15 23.14c-0.37,0.09 -0.6,0.48 -0.52,0.87 0.06,0.26 0.47,1.04 0.68,1.3 0.23,0.27 0.59,0.51 0.97,0.65l0.3 0.11 3.16 0 3.17 0 0.3 -0.11c0.38,-0.14 0.74,-0.38 0.97,-0.65 0.21,-0.26 0.62,-1.04 0.68,-1.3 0.09,-0.41 -0.15,-0.78 -0.55,-0.87 -0.29,-0.06 -8.89,-0.06 -9.16,0zm3.12 10.08l0 6.37 0.39 1.98c0.21,1.09 0.42,2.04 0.45,2.12 0.04,0.07 0.13,0.18 0.2,0.25 0.1,0.1 0.16,0.11 0.43,0.11 0.28,0 0.34,-0.01 0.44,-0.11 0.07,-0.07 0.16,-0.18 0.2,-0.25 0.03,-0.08 0.24,-1.03 0.45,-2.12l0.39 -1.98 0 -6.37 0 -6.37 -1.48 0 -1.47 0 0 6.37z"/>
 </g>
</svg>
