<svg width="18" height="14" viewBox="0 0 18 14" fill="none" xmlns="http://www.w3.org/2000/svg">
<path d="M14.7909 12.2734L16.1417 6.73304C17.1497 6.73304 18 5.88014 18 4.81922C18 3.77216 17.1497 2.91233 16.1074 2.91233C15.0651 2.91233 14.2217 3.77216 14.2217 4.81922C14.2217 5.03418 14.256 5.23526 14.3177 5.42249L12.6857 6.4418C12.4731 6.57355 12.3429 6.53888 12.2263 6.37246L10.0937 3.46706C10.5737 3.12036 10.8891 2.55176 10.8891 1.90688C10.8891 0.859832 10.0389 0 9.00343 0C7.95429 0 7.11086 0.852897 7.11086 1.90688C7.11086 2.55176 7.42629 3.12036 7.91314 3.46706L5.77371 6.3794C5.664 6.53195 5.54057 6.56662 5.34171 6.4418L3.68914 5.40862C3.744 5.2214 3.77829 5.02724 3.77829 4.81922C3.77829 3.77216 2.93486 2.91233 1.89257 2.91233C0.843429 2.91233 0 3.77216 0 4.81922C0 5.86627 0.836571 6.71917 1.86514 6.73304L3.20914 12.2734C3.49029 13.4245 4.10743 14 5.28686 14H12.72C13.8994 14 14.5166 13.4245 14.7909 12.2734ZM9.00343 2.6003C8.62629 2.6003 8.31771 2.28826 8.31771 1.90688C8.31771 1.51857 8.62629 1.22041 9.00343 1.22041C9.37371 1.22041 9.68229 1.53244 9.68229 1.90688C9.68229 2.28826 9.38057 2.6003 9.00343 2.6003ZM4.88229 7.63447C5.43086 7.96038 6.20571 7.92571 6.68571 7.2739L9.00343 4.11887L11.3417 7.2947C11.808 7.93957 12.576 7.97424 13.0903 7.66221L14.8731 6.57355L14.016 10.1169H3.984L3.12686 6.55275L4.88229 7.63447ZM1.89257 5.51263C1.51543 5.51263 1.20686 5.20059 1.20686 4.81922C1.20686 4.43784 1.51543 4.13274 1.89257 4.13274C2.26286 4.13274 2.57143 4.44477 2.57143 4.81922C2.57143 5.20059 2.26971 5.51263 1.89257 5.51263ZM16.1074 5.51263C15.7234 5.51263 15.4286 5.20059 15.4286 4.81922C15.4286 4.44477 15.7371 4.13274 16.1074 4.13274C16.4846 4.13274 16.7931 4.43784 16.7931 4.81922C16.7931 5.20059 16.4846 5.51263 16.1074 5.51263ZM5.27314 12.7241C4.82743 12.7241 4.56 12.5161 4.464 12.0931L4.29257 11.3997H13.7074L13.5429 12.0931C13.44 12.5161 13.1794 12.7241 12.7269 12.7241H5.27314Z" fill="#0D1018"/>
</svg>
