<svg width="23" height="23" viewBox="0 0 23 23" fill="none" xmlns="http://www.w3.org/2000/svg">
<path d="M7.65139 21.4471L8.62654 20.4565L2.92543 14.8442L1.93594 15.8494C0.659655 17.1459 0.483858 18.2923 1.41476 19.2087L4.29352 22.0282C5.22968 22.9498 6.36076 22.7581 7.65139 21.4471ZM9.31487 19.7572L19.6256 9.28329L13.9245 3.67104L12.6912 4.92383C14.0376 6.5648 13.4274 9.1624 11.2692 11.3548C9.11098 13.5472 6.52328 14.1981 4.8542 12.8849L3.61376 14.145L9.31487 19.7572ZM20.3139 8.58406L21.289 7.59348C22.5725 6.28969 22.7392 5.16302 21.8102 4.23417L18.953 1.39277C18.0293 0.469093 16.8786 0.670161 15.5951 1.97394L14.6128 2.97181L20.3139 8.58406ZM10.7853 10.8785C12.5205 9.11582 13.017 7.02298 11.924 5.70319L10.8126 6.83216C11.503 7.69827 11.1939 9.04328 10.0753 10.1795C8.94962 11.3231 7.61681 11.646 6.73996 10.9693L5.62141 12.1056C6.95821 13.1777 9.043 12.6484 10.7853 10.8785Z" fill="#4A4B4E"/>
</svg>
