<?xml version="1.0" encoding="UTF-8"?>
<!DOCTYPE svg PUBLIC "-//W3C//DTD SVG 1.1//EN" "http://www.w3.org/Graphics/SVG/1.1/DTD/svg11.dtd">
<!-- Creator: CorelDRAW 2021.5 -->
<svg xmlns="http://www.w3.org/2000/svg" xml:space="preserve" width="963px" height="946px" version="1.1" style="shape-rendering:geometricPrecision; text-rendering:geometricPrecision; image-rendering:optimizeQuality; fill-rule:evenodd; clip-rule:evenodd"
viewBox="0 0 92.59 90.97"
 xmlns:xlink="http://www.w3.org/1999/xlink"
 xmlns:xodm="http://www.corel.com/coreldraw/odm/2003">
 <defs>
  <style type="text/css">
   <![CDATA[
    .fil5 {fill:none}
    .fil1 {fill:#0D1018}
    .fil2 {fill:#20222B}
    .fil0 {fill:#76D6FF}
    .fil4 {fill:#20222B;fill-rule:nonzero}
    .fil3 {fill:#76D6FF;fill-rule:nonzero}
   ]]>
  </style>
   <clipPath id="id0">
    <path d="M76.96 32.95l15.63 0 0 -15.63 -15.63 0 0 15.63z"/>
   </clipPath>
 </defs>
 <g id="Layer_x0020_1">
  <metadata id="CorelCorpID_0Corel-Layer"/>
  <path class="fil0" d="M34.25 24.31c-1.62,0.5 -2.84,1.92 -3.11,3.62 -0.07,0.42 -0.13,4.02 -0.13,8l0 7.24 -0.85 -0.05c-0.97,-0.05 -1.76,0.19 -2.39,0.73 -0.7,0.59 -1,1.29 -1.29,3.03 -0.52,3.06 -0.74,3.83 -1.8,6.36 -1.06,2.53 -1.07,2.62 -1.15,8.71 -0.04,2.94 -0.07,6.79 -0.08,8.54 -0.02,4.35 0,4.39 2.76,8.55 0.96,1.43 1.91,3.02 2.12,3.52 0.37,0.87 0.39,1.03 0.47,3.39 0.1,2.77 0.22,3.26 1.06,4.1 0.94,0.95 0.61,0.92 8.99,0.92 8.38,0 8.04,0.03 8.99,-0.92 0.87,-0.88 0.97,-1.3 1.04,-4.45 0.08,-3.21 0.03,-3.06 1.29,-3.77 1.16,-0.66 2.57,-1.78 3.76,-2.99l1.11 -1.13 0.81 -0.08c1.56,-0.13 3.1,-1.25 3.67,-2.66l0.29 -0.69 1.07 0c1.96,0 3.28,-0.8 4.09,-2.45 0.38,-0.78 0.43,-0.99 0.43,-1.99 0,-1 -0.05,-1.2 -0.43,-1.99l-0.43 -0.88 0.58 -0.57c0.32,-0.32 0.75,-0.89 0.95,-1.27 0.32,-0.63 0.36,-0.83 0.36,-1.95 0,-1.16 -0.03,-1.32 -0.42,-2.07l-0.42 -0.82 0.58 -0.52c0.71,-0.62 1.33,-1.86 1.44,-2.85 0.16,-1.39 -0.41,-2.83 -1.5,-3.82 -1.02,-0.94 -1.46,-1.06 -3.99,-1.11l-2.24 -0.04 0.04 -0.97 0.04 -0.98 1.95 -0.81c2.97,-1.24 3.48,-1.61 4.21,-3.06 0.27,-0.52 0.31,-0.8 0.31,-1.85 0,-1.07 -0.04,-1.34 -0.34,-1.98 -0.94,-2.02 -3.36,-3.07 -5.45,-2.36l-0.74 0.26 -0.03 -6.35 -0.04 -6.34 -0.43 -0.87c-0.46,-0.95 -1.12,-1.61 -2.09,-2.09l-0.59 -0.29 -11.07 -0.03c-6.09,-0.01 -11.22,0.03 -11.4,0.08z"/>
  <path class="fil0" d="M34.25 24.31c-1.62,0.5 -2.84,1.92 -3.11,3.62 -0.07,0.42 -0.13,4.02 -0.13,8l0 7.24 -0.85 -0.05c-0.97,-0.05 -1.76,0.19 -2.39,0.73 -0.7,0.59 -1,1.29 -1.29,3.03 -0.52,3.06 -0.74,3.83 -1.8,6.36 -1.06,2.53 -1.07,2.62 -1.15,8.71 -0.04,2.94 -0.07,6.79 -0.08,8.54 -0.02,4.35 0,4.39 2.76,8.55 0.96,1.43 1.91,3.02 2.12,3.52 0.37,0.87 0.39,1.03 0.47,3.39 0.1,2.77 0.22,3.26 1.06,4.1 0.94,0.95 0.61,0.92 8.99,0.92 8.38,0 8.04,0.03 8.99,-0.92 0.87,-0.88 0.97,-1.3 1.04,-4.45 0.08,-3.21 0.03,-3.06 1.29,-3.77 1.16,-0.66 2.57,-1.78 3.76,-2.99l1.11 -1.13 0.81 -0.08c1.56,-0.13 3.1,-1.25 3.67,-2.66l0.29 -0.69 1.07 0c1.96,0 3.28,-0.8 4.09,-2.45 0.38,-0.78 0.43,-0.99 0.43,-1.99 0,-1 -0.05,-1.2 -0.43,-1.99l-0.43 -0.88 0.58 -0.57c0.32,-0.32 0.75,-0.89 0.95,-1.27 0.32,-0.63 0.36,-0.83 0.36,-1.95 0,-1.16 -0.03,-1.32 -0.42,-2.07l-0.42 -0.82 0.58 -0.52c0.71,-0.62 1.33,-1.86 1.44,-2.85 0.16,-1.39 -0.41,-2.83 -1.5,-3.82 -1.02,-0.94 -1.46,-1.06 -3.99,-1.11l-2.24 -0.04 0.04 -0.97 0.04 -0.98 1.95 -0.81c2.97,-1.24 3.48,-1.61 4.21,-3.06 0.27,-0.52 0.31,-0.8 0.31,-1.85 0,-1.07 -0.04,-1.34 -0.34,-1.98 -0.94,-2.02 -3.36,-3.07 -5.45,-2.36l-0.74 0.26 -0.03 -6.35 -0.04 -6.34 -0.43 -0.87c-0.46,-0.95 -1.12,-1.61 -2.09,-2.09l-0.59 -0.29 -11.07 -0.03c-6.09,-0.01 -11.22,0.03 -11.4,0.08zm28.98 18.1c0.92,0.68 1.21,1.87 0.69,2.88 -0.28,0.57 -0.71,0.83 -2.65,1.65l-1.38 0.58 0.03 -2.42 0.04 -2.43 0.77 -0.3c0.95,-0.38 1.97,-0.36 2.5,0.04zm-32.08 3.31c2.26,1.15 2.82,5.49 1.31,10.12 -0.69,2.11 -1.34,3.48 -1.97,4.17 -0.31,0.34 -0.51,0.69 -0.51,0.88 0,0.4 0.58,1.13 0.91,1.13 0.24,0 0.25,0.22 0.28,6.16l0.04 6.16 0.34 0.72c0.36,0.77 0.95,1.43 1.66,1.89 1.06,0.66 0.81,0.64 9.98,0.72l8.61 0.06 -0.96 0.76c-0.53,0.42 -1.38,1.01 -1.88,1.3 -0.51,0.3 -1.16,0.8 -1.47,1.11 -0.81,0.85 -0.94,1.42 -0.94,4.35 0,1.34 -0.05,2.6 -0.13,2.78 -0.27,0.72 -0.41,0.73 -7.85,0.69l-6.8 -0.03 -0.32 -0.37c-0.3,-0.35 -0.31,-0.44 -0.31,-2.28 0,-3.33 -0.3,-4.18 -2.73,-7.86 -0.98,-1.5 -1.93,-3 -2.1,-3.34 -0.67,-1.35 -0.81,-2.84 -0.6,-6.56 0.09,-1.55 0.17,-4.8 0.18,-7.24 0.02,-5.02 -0.06,-4.53 1.3,-7.86 0.68,-1.66 1.13,-3.34 1.49,-5.51 0.3,-1.86 0.33,-1.95 0.83,-2.17 0.45,-0.2 0.96,-0.13 1.64,0.22zm33.08 8.9c1.44,0.81 1.39,3 -0.09,3.76 -0.47,0.24 -0.71,0.26 -2.82,0.22 -2.1,-0.04 -2.35,-0.07 -2.67,-0.31 -0.7,-0.52 -0.89,-0.92 -0.89,-1.82 0,-0.92 0.21,-1.34 0.97,-1.86 0.4,-0.27 0.55,-0.29 2.7,-0.29 2.12,0 2.32,0.02 2.8,0.3zm-0.91 6.79c1.2,0.93 1.13,2.68 -0.15,3.55 -0.33,0.23 -0.69,0.3 -1.81,0.37 -2.01,0.12 -2.71,-0.11 -3.38,-1.1 -0.48,-0.72 -0.33,-2.06 0.31,-2.63 0.64,-0.57 0.95,-0.64 2.78,-0.6 1.71,0.04 1.77,0.05 2.25,0.41zm-1.19 6.58c0.64,0.41 1.05,1.29 0.97,2.07 -0.16,1.41 -1.57,2.21 -3.43,1.95 -1.27,-0.17 -2.05,-1.12 -1.95,-2.36 0.07,-0.84 0.47,-1.44 1.19,-1.79 0.76,-0.35 2.55,-0.28 3.22,0.13zm-28.47 16.65c-0.21,0.21 -0.32,0.46 -0.31,0.75 0.01,0.82 0.5,1.15 1.74,1.15 0.74,0 0.9,-0.05 1.17,-0.32 0.46,-0.47 0.47,-1.12 0.03,-1.61 -0.24,-0.25 -0.4,-0.29 -1.29,-0.29 -0.91,0 -1.06,0.03 -1.34,0.32zm5.55 -0.03c-0.14,0.16 -0.3,0.4 -0.34,0.53 -0.11,0.32 0.22,1.08 0.54,1.26 0.36,0.19 3.97,0.18 4.34,-0.01 0.68,-0.37 0.82,-1.21 0.28,-1.75 -0.31,-0.31 -0.36,-0.32 -2.43,-0.32 -2.04,0 -2.13,0.01 -2.39,0.29z"/>
  <path class="fil1" d="M34.25 24.31c-1.62,0.5 -2.84,1.92 -3.11,3.62 -0.07,0.42 -0.13,4.02 -0.13,8l0 7.24 -0.85 -0.05c-0.97,-0.05 -1.76,0.19 -2.39,0.73 -0.7,0.59 -1,1.29 -1.29,3.03 -0.52,3.06 -0.74,3.83 -1.8,6.36 -1.06,2.53 -1.07,2.62 -1.15,8.71 -0.04,2.94 -0.07,6.79 -0.08,8.54 -0.02,4.35 0,4.39 2.76,8.55 0.96,1.43 1.91,3.02 2.12,3.52 0.37,0.87 0.39,1.03 0.47,3.39 0.1,2.77 0.22,3.26 1.06,4.1 0.94,0.95 0.61,0.92 8.99,0.92 8.38,0 8.04,0.03 8.99,-0.92 0.87,-0.88 0.97,-1.3 1.04,-4.45 0.08,-3.21 0.03,-3.06 1.29,-3.77 1.16,-0.66 2.57,-1.78 3.76,-2.99l1.11 -1.13 0.81 -0.08c1.56,-0.13 3.1,-1.25 3.67,-2.66l0.29 -0.69 1.07 0c1.96,0 3.28,-0.8 4.09,-2.45 0.38,-0.78 0.43,-0.99 0.43,-1.99 0,-1 -0.05,-1.2 -0.43,-1.99l-0.43 -0.88 0.58 -0.57c0.32,-0.32 0.75,-0.89 0.95,-1.27 0.32,-0.63 0.36,-0.83 0.36,-1.95 0,-1.16 -0.03,-1.32 -0.42,-2.07l-0.42 -0.82 0.58 -0.52c0.71,-0.62 1.33,-1.86 1.44,-2.85 0.16,-1.39 -0.41,-2.83 -1.5,-3.82 -1.02,-0.94 -1.46,-1.06 -3.99,-1.11l-2.24 -0.04 0.04 -0.97 0.04 -0.98 1.95 -0.81c2.97,-1.24 3.48,-1.61 4.21,-3.06 0.27,-0.52 0.31,-0.8 0.31,-1.85 0,-1.07 -0.04,-1.34 -0.34,-1.98 -0.94,-2.02 -3.36,-3.07 -5.45,-2.36l-0.74 0.26 -0.03 -6.35 -0.04 -6.34 -0.43 -0.87c-0.46,-0.95 -1.12,-1.61 -2.09,-2.09l-0.59 -0.29 -11.07 -0.03c-6.09,-0.01 -11.22,0.03 -11.4,0.08zm16.8 2.98c-0.03,0.19 -0.06,0.06 -0.06,-0.3 0,-0.35 0.03,-0.52 0.06,-0.36 0.03,0.16 0.03,0.46 0,0.66zm11.59 14.77c1.09,0.31 1.77,1.4 1.6,2.55 -0.15,0.96 -0.84,1.55 -2.74,2.31 -0.85,0.34 -1.59,0.62 -1.64,0.62 -0.05,0 -0.1,-1.09 -0.1,-2.42l0 -2.42 0.36 -0.14c1.69,-0.67 1.8,-0.7 2.52,-0.5zm-31.55 3.57c0.84,0.4 1.51,1.26 1.88,2.42 0.39,1.22 0.48,3.84 0.19,5.4 -0.46,2.45 -1.74,5.68 -2.59,6.54 -0.34,0.35 -0.46,0.58 -0.46,0.89 0,0.53 0.28,0.95 0.7,1.06l0.32 0.08 0.04 6.09 0.04 6.1 0.34 0.74c0.42,0.9 1.24,1.75 2.12,2.2l0.64 0.32 8.78 0.04c5.13,0.02 8.77,0.08 8.77,0.15 0,0.17 -1.38,1.24 -2.96,2.29 -1.13,0.75 -1.45,1.04 -1.78,1.59 -0.49,0.84 -0.56,1.39 -0.57,4.32 0,2.22 0,2.26 -0.31,2.57l-0.32 0.32 -7.04 0c-7.82,0 -7.48,0.04 -7.73,-0.88 -0.08,-0.27 -0.14,-1.31 -0.14,-2.32 0,-1.43 -0.06,-2.06 -0.26,-2.85 -0.36,-1.37 -0.52,-1.66 -2.55,-4.75 -0.96,-1.46 -1.88,-2.96 -2.05,-3.33 -0.52,-1.16 -0.63,-2.21 -0.52,-5.3 0.05,-1.54 0.14,-5.09 0.19,-7.89 0.07,-3.49 0.15,-5.25 0.27,-5.61 0.09,-0.29 0.47,-1.26 0.85,-2.15 0.8,-1.89 1.22,-3.37 1.66,-5.93 0.28,-1.61 0.36,-1.86 0.66,-2.12 0.44,-0.39 0.99,-0.38 1.83,0.01zm33.04 8.83c1.52,0.74 1.63,2.92 0.2,3.91 -0.44,0.3 -0.57,0.32 -2.65,0.36 -2.03,0.04 -2.22,0.03 -2.77,-0.24 -1.31,-0.64 -1.7,-2.3 -0.81,-3.45 0.55,-0.7 1.12,-0.84 3.4,-0.85 1.84,0 2.13,0.03 2.63,0.27zm-1.59 6.51c0.7,0.16 1.12,0.5 1.47,1.18 0.58,1.11 0.15,2.39 -1.01,3.01 -0.6,0.33 -3.25,0.35 -3.98,0.05 -0.93,-0.4 -1.36,-1.04 -1.37,-2.09 -0.02,-1.05 0.65,-1.91 1.66,-2.16 0.57,-0.13 2.64,-0.13 3.23,0.01zm-0.58 6.84c0.5,0.27 1.01,0.9 1.18,1.49 0.28,0.94 -0.33,2.19 -1.26,2.58 -0.24,0.1 -0.88,0.18 -1.47,0.18 -1.21,0 -1.75,-0.19 -2.24,-0.77 -0.91,-1.1 -0.64,-2.65 0.61,-3.42 0.52,-0.32 2.61,-0.35 3.18,-0.06zm-28.18 16.82c-0.46,0.4 -0.5,1.12 -0.07,1.55 0.25,0.25 0.43,0.29 1.27,0.29 0.91,0 1,-0.02 1.29,-0.36 0.17,-0.21 0.31,-0.53 0.31,-0.72 -0.01,-0.72 -0.55,-1.07 -1.67,-1.07 -0.63,0 -0.84,0.06 -1.13,0.31zm5.72 -0.15c-0.68,0.38 -0.79,1.17 -0.25,1.68 0.32,0.3 0.39,0.31 2.39,0.31 1.95,0 2.07,-0.01 2.35,-0.29 0.42,-0.43 0.39,-1.15 -0.07,-1.55 -0.34,-0.3 -0.44,-0.31 -2.26,-0.31 -1.19,0.01 -2,0.06 -2.16,0.16z"/>
  <path class="fil1" d="M34.25 24.31c-1.62,0.5 -2.84,1.92 -3.11,3.62 -0.07,0.42 -0.13,4.02 -0.13,8l0 7.24 -0.85 -0.05c-0.97,-0.05 -1.76,0.19 -2.39,0.73 -0.7,0.59 -1,1.29 -1.29,3.03 -0.52,3.06 -0.74,3.83 -1.8,6.36 -1.06,2.53 -1.07,2.62 -1.15,8.71 -0.04,2.94 -0.07,6.79 -0.08,8.54 -0.02,4.35 0,4.39 2.76,8.55 0.96,1.43 1.91,3.02 2.12,3.52 0.37,0.87 0.39,1.03 0.47,3.39 0.1,2.77 0.22,3.26 1.06,4.1 0.94,0.95 0.61,0.92 8.99,0.92 8.38,0 8.04,0.03 8.99,-0.92 0.87,-0.88 0.97,-1.3 1.04,-4.45 0.08,-3.21 0.03,-3.06 1.29,-3.77 1.16,-0.66 2.57,-1.78 3.76,-2.99l1.11 -1.13 0.81 -0.08c1.56,-0.13 3.1,-1.25 3.67,-2.66l0.29 -0.69 1.07 0c1.96,0 3.28,-0.8 4.09,-2.45 0.38,-0.78 0.43,-0.99 0.43,-1.99 0,-1 -0.05,-1.2 -0.43,-1.99l-0.43 -0.88 0.58 -0.57c0.32,-0.32 0.75,-0.89 0.95,-1.27 0.32,-0.63 0.36,-0.83 0.36,-1.95 0,-1.16 -0.03,-1.32 -0.42,-2.07l-0.42 -0.82 0.58 -0.52c0.71,-0.62 1.33,-1.86 1.44,-2.85 0.16,-1.39 -0.41,-2.83 -1.5,-3.82 -1.02,-0.94 -1.46,-1.06 -3.99,-1.11l-2.24 -0.04 0.04 -0.97 0.04 -0.98 1.95 -0.81c2.97,-1.24 3.48,-1.61 4.21,-3.06 0.27,-0.52 0.31,-0.8 0.31,-1.85 0,-1.07 -0.04,-1.34 -0.34,-1.98 -0.94,-2.02 -3.36,-3.07 -5.45,-2.36l-0.74 0.26 -0.03 -6.35 -0.04 -6.34 -0.43 -0.87c-0.46,-0.95 -1.12,-1.61 -2.09,-2.09l-0.59 -0.29 -11.07 -0.03c-6.09,-0.01 -11.22,0.03 -11.4,0.08zm3.5 3.05c0,0.57 0.06,1.02 0.15,1.11 0.09,0.08 0.12,0.15 0.06,0.15 -0.16,0 0.41,0.97 0.79,1.34 0.2,0.19 0.66,0.49 1.01,0.65 0.63,0.29 0.71,0.3 5.69,0.3 5.66,0 5.68,-0.01 6.65,-0.9 0.74,-0.69 1.06,-1.42 1.15,-2.64l0.08 -0.98 0.65 0.04c0.58,0.04 0.69,0.09 0.95,0.47 0.15,0.24 0.34,0.72 0.42,1.08 0.14,0.66 0.22,27.61 0.08,27.75 -0.09,0.09 -0.09,1.4 0.01,1.49 0.04,0.04 0.05,1.24 0.03,2.66 -0.02,1.43 -0.03,2.91 -0.03,3.31 0.01,0.39 0.02,1.83 0.03,3.19 0.02,1.37 0.02,2.54 0,2.61 -0.01,0.08 -0.03,1.19 -0.03,2.48 -0.01,2.26 -0.03,2.38 -0.36,3.1l-0.35 0.75 -9.76 0.03 -9.75 0.03 -0.61 -0.31c-0.35,-0.18 -0.74,-0.51 -0.93,-0.8l-0.32 -0.49 -0.01 -6.91 -0.01 -6.91 0.45 -1.07c0.24,-0.58 0.49,-1.25 0.54,-1.48 0.12,-0.52 0.12,-0.51 0.22,-0.74 0.69,-1.69 1.16,-6.15 0.83,-7.89 -0.05,-0.29 -0.11,-0.64 -0.14,-0.79 -0.16,-0.98 -1.1,-2.82 -1.68,-3.31 -0.2,-0.16 -0.22,-0.86 -0.22,-8.21 0,-8.99 0,-8.94 0.86,-9.53 0.58,-0.4 1.05,-0.5 2.41,-0.52l1.14 -0.01 0 0.95zm24.89 14.7c1.09,0.31 1.77,1.4 1.6,2.55 -0.15,0.96 -0.84,1.55 -2.74,2.31 -0.85,0.34 -1.59,0.62 -1.64,0.62 -0.05,0 -0.1,-1.09 -0.1,-2.42l0 -2.42 0.36 -0.14c1.69,-0.67 1.8,-0.7 2.52,-0.5zm-31.55 3.57c0.84,0.4 1.51,1.26 1.88,2.42 0.39,1.22 0.48,3.84 0.19,5.4 -0.46,2.45 -1.74,5.68 -2.59,6.54 -0.34,0.35 -0.46,0.58 -0.46,0.89 0,0.53 0.28,0.95 0.7,1.06l0.32 0.08 0.04 6.09 0.04 6.1 0.34 0.74c0.42,0.9 1.24,1.75 2.12,2.2l0.64 0.32 8.78 0.04c5.13,0.02 8.77,0.08 8.77,0.15 0,0.17 -1.38,1.24 -2.96,2.29 -1.13,0.75 -1.45,1.04 -1.78,1.59 -0.49,0.84 -0.56,1.39 -0.57,4.32 0,2.22 0,2.26 -0.31,2.57l-0.32 0.32 -7.04 0c-7.82,0 -7.48,0.04 -7.73,-0.88 -0.08,-0.27 -0.14,-1.31 -0.14,-2.32 0,-1.43 -0.06,-2.06 -0.26,-2.85 -0.36,-1.37 -0.52,-1.66 -2.55,-4.75 -0.96,-1.46 -1.88,-2.96 -2.05,-3.33 -0.52,-1.16 -0.63,-2.21 -0.52,-5.3 0.05,-1.54 0.14,-5.09 0.19,-7.89 0.07,-3.49 0.15,-5.25 0.27,-5.61 0.09,-0.29 0.47,-1.26 0.85,-2.15 0.8,-1.89 1.22,-3.37 1.66,-5.93 0.28,-1.61 0.36,-1.86 0.66,-2.12 0.44,-0.39 0.99,-0.38 1.83,0.01zm33.04 8.83c1.52,0.74 1.63,2.92 0.2,3.91 -0.44,0.3 -0.57,0.32 -2.65,0.36 -2.03,0.04 -2.22,0.03 -2.77,-0.24 -1.31,-0.64 -1.7,-2.3 -0.81,-3.45 0.55,-0.7 1.12,-0.84 3.4,-0.85 1.84,0 2.13,0.03 2.63,0.27zm-1.59 6.51c0.7,0.16 1.12,0.5 1.47,1.18 0.58,1.11 0.15,2.39 -1.01,3.01 -0.6,0.33 -3.25,0.35 -3.98,0.05 -0.93,-0.4 -1.36,-1.04 -1.37,-2.09 -0.02,-1.05 0.65,-1.91 1.66,-2.16 0.57,-0.13 2.64,-0.13 3.23,0.01zm-0.58 6.84c0.5,0.27 1.01,0.9 1.18,1.49 0.28,0.94 -0.33,2.19 -1.26,2.58 -0.24,0.1 -0.88,0.18 -1.47,0.18 -1.21,0 -1.75,-0.19 -2.24,-0.77 -0.91,-1.1 -0.64,-2.65 0.61,-3.42 0.52,-0.32 2.61,-0.35 3.18,-0.06zm-21.6 3.4c-0.5,0.43 -0.51,1.2 -0.03,1.66 0.32,0.3 0.33,0.3 4.86,0.34 5.11,0.04 5.42,0.01 5.71,-0.69 0.14,-0.33 0.15,-0.53 0.04,-0.84 -0.26,-0.77 -0.44,-0.8 -5.56,-0.8l-4.63 0 -0.39 0.33zm-6.58 13.42c-0.46,0.4 -0.5,1.12 -0.07,1.55 0.25,0.25 0.43,0.29 1.27,0.29 0.91,0 1,-0.02 1.29,-0.36 0.17,-0.21 0.31,-0.53 0.31,-0.72 -0.01,-0.72 -0.55,-1.07 -1.67,-1.07 -0.63,0 -0.84,0.06 -1.13,0.31zm5.72 -0.15c-0.68,0.38 -0.79,1.17 -0.25,1.68 0.32,0.3 0.39,0.31 2.39,0.31 1.95,0 2.07,-0.01 2.35,-0.29 0.42,-0.43 0.39,-1.15 -0.07,-1.55 -0.34,-0.3 -0.44,-0.31 -2.26,-0.31 -1.19,0.01 -2,0.06 -2.16,0.16z"/>
  <path class="fil2" d="M34.25 24.31c-1.62,0.5 -2.84,1.92 -3.11,3.62 -0.07,0.42 -0.13,4.02 -0.13,8l0 7.24 -0.85 -0.05c-0.97,-0.05 -1.76,0.19 -2.39,0.73 -0.7,0.59 -1,1.29 -1.29,3.03 -0.52,3.06 -0.74,3.83 -1.8,6.36 -1.06,2.53 -1.07,2.62 -1.15,8.71 -0.04,2.94 -0.07,6.79 -0.08,8.54 -0.02,4.35 0,4.39 2.76,8.55 0.96,1.43 1.91,3.02 2.12,3.52 0.37,0.87 0.39,1.03 0.47,3.39 0.1,2.77 0.22,3.26 1.06,4.1 0.94,0.95 0.61,0.92 8.99,0.92 8.38,0 8.04,0.03 8.99,-0.92 0.87,-0.88 0.97,-1.3 1.04,-4.45 0.08,-3.21 0.03,-3.06 1.29,-3.77 1.16,-0.66 2.57,-1.78 3.76,-2.99l1.11 -1.13 0.81 -0.08c1.56,-0.13 3.1,-1.25 3.67,-2.66l0.29 -0.69 1.07 0c1.96,0 3.28,-0.8 4.09,-2.45 0.38,-0.78 0.43,-0.99 0.43,-1.99 0,-1 -0.05,-1.2 -0.43,-1.99l-0.43 -0.88 0.58 -0.57c0.32,-0.32 0.75,-0.89 0.95,-1.27 0.32,-0.63 0.36,-0.83 0.36,-1.95 0,-1.16 -0.03,-1.32 -0.42,-2.07l-0.42 -0.82 0.58 -0.52c0.71,-0.62 1.33,-1.86 1.44,-2.85 0.16,-1.39 -0.41,-2.83 -1.5,-3.82 -1.02,-0.94 -1.46,-1.06 -3.99,-1.11l-2.24 -0.04 0.04 -0.97 0.04 -0.98 1.95 -0.81c2.97,-1.24 3.48,-1.61 4.21,-3.06 0.27,-0.52 0.31,-0.8 0.31,-1.85 0,-1.07 -0.04,-1.34 -0.34,-1.98 -0.94,-2.02 -3.36,-3.07 -5.45,-2.36l-0.74 0.26 -0.03 -6.35 -0.04 -6.34 -0.43 -0.87c-0.46,-0.95 -1.12,-1.61 -2.09,-2.09l-0.59 -0.29 -11.07 -0.03c-6.09,-0.01 -11.22,0.03 -11.4,0.08zm3.5 2.79c0,1.58 0.73,2.84 2,3.44 0.65,0.3 0.69,0.3 5.65,0.3 4.14,0 5.09,-0.03 5.57,-0.2 1.38,-0.47 2.19,-1.68 2.19,-3.28l0 -0.95 1.33 0c1.13,0 1.42,0.04 1.9,0.29 0.68,0.35 1.02,0.77 1.18,1.48 0.06,0.29 0.12,5.75 0.12,12.44l0 11.94 -0.72 0.63c-0.39,0.35 -0.87,0.93 -1.06,1.3 -0.3,0.59 -0.35,0.83 -0.35,1.92 -0.01,1.39 0.21,2.04 0.96,2.91l0.42 0.48 -0.38 0.43c-1.39,1.6 -1.42,4.21 -0.07,5.71l0.45 0.51 -0.39 0.49c-0.82,1.04 -1,1.55 -0.99,2.9 0,1.09 0.04,1.32 0.34,1.9 0.36,0.69 0.87,1.29 1.38,1.65 0.23,0.16 0.28,0.28 0.21,0.54 -0.11,0.46 -0.97,1.21 -1.57,1.38 -0.33,0.09 -3.87,0.14 -10.57,0.14 -10.89,0 -10.58,0.02 -11.34,-0.69 -0.68,-0.64 -0.67,-0.48 -0.67,-7.96l0 -6.97 0.39 -0.95c1.21,-2.95 1.95,-7.04 1.69,-9.36 -0.07,-0.62 -0.22,-1.49 -0.33,-1.92 -0.24,-0.9 -0.93,-2.2 -1.41,-2.66l-0.34 -0.32 0.01 -8.29 0 -8.29 0.29 -0.51c0.47,-0.85 1.16,-1.12 2.77,-1.12l1.34 0 0 0.69zm13.34 -0.17c0,0.66 -0.29,1.37 -0.63,1.55 -0.18,0.1 -1.87,0.14 -5.05,0.14l-4.78 0 -0.34 -0.34c-0.29,-0.29 -0.34,-0.46 -0.34,-1.11l0 -0.76 5.57 0 5.57 0 0 0.52zm11.55 15.13c1.09,0.31 1.77,1.4 1.6,2.55 -0.15,0.96 -0.84,1.55 -2.74,2.31 -0.85,0.34 -1.59,0.62 -1.64,0.62 -0.05,0 -0.1,-1.09 -0.1,-2.42l0 -2.42 0.36 -0.14c1.69,-0.67 1.8,-0.7 2.52,-0.5zm-31.55 3.57c0.84,0.4 1.51,1.26 1.88,2.42 0.39,1.22 0.48,3.84 0.19,5.4 -0.46,2.45 -1.74,5.68 -2.59,6.54 -0.34,0.35 -0.46,0.58 -0.46,0.89 0,0.53 0.28,0.95 0.7,1.06l0.32 0.08 0.04 6.09 0.04 6.1 0.34 0.74c0.42,0.9 1.24,1.75 2.12,2.2l0.64 0.32 8.78 0.04c5.13,0.02 8.77,0.08 8.77,0.15 0,0.17 -1.38,1.24 -2.96,2.29 -1.13,0.75 -1.45,1.04 -1.78,1.59 -0.49,0.84 -0.56,1.39 -0.57,4.32 0,2.22 0,2.26 -0.31,2.57l-0.32 0.32 -7.04 0c-7.82,0 -7.48,0.04 -7.73,-0.88 -0.08,-0.27 -0.14,-1.31 -0.14,-2.32 0,-1.43 -0.06,-2.06 -0.26,-2.85 -0.36,-1.37 -0.52,-1.66 -2.55,-4.75 -0.96,-1.46 -1.88,-2.96 -2.05,-3.33 -0.52,-1.16 -0.63,-2.21 -0.52,-5.3 0.05,-1.54 0.14,-5.09 0.19,-7.89 0.07,-3.49 0.15,-5.25 0.27,-5.61 0.09,-0.29 0.47,-1.26 0.85,-2.15 0.8,-1.89 1.22,-3.37 1.66,-5.93 0.28,-1.61 0.36,-1.86 0.66,-2.12 0.44,-0.39 0.99,-0.38 1.83,0.01zm33.04 8.83c1.52,0.74 1.63,2.92 0.2,3.91 -0.44,0.3 -0.57,0.32 -2.65,0.36 -2.03,0.04 -2.22,0.03 -2.77,-0.24 -1.31,-0.64 -1.7,-2.3 -0.81,-3.45 0.55,-0.7 1.12,-0.84 3.4,-0.85 1.84,0 2.13,0.03 2.63,0.27zm-1.59 6.51c0.7,0.16 1.12,0.5 1.47,1.18 0.58,1.11 0.15,2.39 -1.01,3.01 -0.6,0.33 -3.25,0.35 -3.98,0.05 -0.93,-0.4 -1.36,-1.04 -1.37,-2.09 -0.02,-1.05 0.65,-1.91 1.66,-2.16 0.57,-0.13 2.64,-0.13 3.23,0.01zm-0.58 6.84c0.5,0.27 1.01,0.9 1.18,1.49 0.28,0.94 -0.33,2.19 -1.26,2.58 -0.24,0.1 -0.88,0.18 -1.47,0.18 -1.21,0 -1.75,-0.19 -2.24,-0.77 -0.91,-1.1 -0.64,-2.65 0.61,-3.42 0.52,-0.32 2.61,-0.35 3.18,-0.06zm-21.53 3.37c-0.34,0.26 -0.5,0.83 -0.34,1.23 0.26,0.69 0.21,0.68 5.4,0.69l4.83 0 0.32 -0.32c0.2,-0.2 0.32,-0.47 0.32,-0.72 0,-0.26 -0.12,-0.52 -0.32,-0.72l-0.32 -0.32 -4.84 0c-3.67,0 -4.89,0.03 -5.05,0.16zm-6.65 13.45c-0.46,0.4 -0.5,1.12 -0.07,1.55 0.25,0.25 0.43,0.29 1.27,0.29 0.91,0 1,-0.02 1.29,-0.36 0.17,-0.21 0.31,-0.53 0.31,-0.72 -0.01,-0.72 -0.55,-1.07 -1.67,-1.07 -0.63,0 -0.84,0.06 -1.13,0.31zm5.72 -0.15c-0.68,0.38 -0.79,1.17 -0.25,1.68 0.32,0.3 0.39,0.31 2.39,0.31 1.95,0 2.07,-0.01 2.35,-0.29 0.42,-0.43 0.39,-1.15 -0.07,-1.55 -0.34,-0.3 -0.44,-0.31 -2.26,-0.31 -1.19,0.01 -2,0.06 -2.16,0.16z"/>
  <path class="fil3" d="M44.89 40.96c-3.17,0 -6.46,1.3 -6.46,2.92 0,1.48 2.83,2.91 6.58,2.91 2.18,0 6.15,-1.05 6.15,-2.91 0.03,-1.65 -3.05,-2.92 -6.27,-2.92zm0.03 4.68c-2.25,0 -3.91,-0.93 -3.91,-1.92 0,-1.05 2.03,-1.92 3.54,-1.92 0.55,-1.27 4.03,0.62 4.03,1.92 0.03,1.21 -2.34,1.92 -3.66,1.92z"/>
  <path class="fil3" d="M44.43 42.45c-3.54,0.28 -3.88,2.14 -0.19,2.57l0.19 -2.57z"/>
  <path class="fil3" d="M45.41 41.98c-0.22,-0.06 -0.34,0 -0.34,0.19l-0.21 2.82c0.33,0.06 1.04,-0.03 1.47,-0.15l0.12 -2.51 -1.04 -0.35zm0.55 1.93c0,0.15 -0.12,0.28 -0.27,0.28l-0.04 0c-0.15,0 -0.27,-0.13 -0.27,-0.28l0 -0.34c0,-0.16 0.12,-0.28 0.27,-0.28l0.04 0c0.15,0 0.27,0.12 0.27,0.28l0 0.34z"/>
  <path class="fil3" d="M47.04 42.64c1.32,0.86 1.2,1.55 -0.09,2.01l0.09 -2.01z"/>
  <path class="fil3" d="M49.22 46.6c-3.57,1.46 -8.88,0.84 -10.79,-1.27l0 3.26c0.06,0.59 0.37,1.02 0.86,1.36l0 -1.39c0,-0.41 0.62,-0.41 0.62,0l0 1.79 1.13 0.5 0 -1.46c0,-0.4 0.62,-0.37 0.62,0l0 1.65 1.41 0.28 0 -1.59c0,-0.46 0.62,-0.46 0.62,0l0 1.43c1.72,-1.15 3.59,-2.76 5.53,-4.56z"/>
  <path class="fil3" d="M50.39 41.77c1.94,0.93 3.29,4.34 2.03,7.28l-0.43 -0.59c-0.31,-0.34 -0.77,0.07 -0.43,0.44l0.52 0.71 -0.92 1.27 -0.77 -0.9c-0.37,-0.37 -0.77,0.1 -0.43,0.44l0.83 0.9 -1.14 1.24 -1.14 -0.97c-0.33,-0.34 -0.73,0.1 -0.4,0.41l1.17 1.02 -1.2 1.15 -1.29 -1.12c-0.37,-0.37 -0.77,0.03 -0.4,0.4l1.26 1.12 -1.23 1.09c-0.03,-0.35 -0.15,-0.66 -0.43,-0.9 -0.27,-0.25 -0.55,-0.41 -0.86,-0.34 -0.43,0.09 -0.64,0 -0.83,-0.19 -0.3,-0.4 -0.12,-0.56 -0.46,-0.99 -0.28,-0.37 -0.61,-0.47 -0.89,-0.44l-0.46 0 2.92 -2.17 2.06 -1.64c2.46,-2.26 6.39,-4.84 2.92,-7.22z"/>
  <path class="fil3" d="M45.62 55.22c-0.27,-0.25 -0.52,-0.22 -0.83,-0.18 -0.33,0.03 -0.67,-0.16 -0.86,-0.38 -0.49,-0.52 -0.21,-0.68 -0.52,-1.08 -0.34,-0.44 -0.89,0.03 -1.54,-0.37l-0.73 0.49c-0.31,0.25 -0.37,0.62 -0.13,0.87l2.95 2.39c0.25,0.15 0.5,0.21 0.74,0.03l1.26 -0.99c-0.18,-0.22 -0.09,-0.53 -0.34,-0.78zm-1.44 0.81c-0.09,0.12 -0.28,0.15 -0.4,0.03l-1.48 -1.18c-0.12,-0.09 -0.15,-0.28 -0.03,-0.4 0.13,-0.13 0.28,-0.16 0.4,-0.03l1.48 1.17c0.09,0.13 0.12,0.31 0.03,0.41z"/>
  <path class="fil2" d="M8.68 22.15c-0.08,0.02 -0.2,0.06 -0.26,0.09 -0.11,0.05 -0.54,0.44 -0.51,0.46 0.01,0.01 0.16,0.09 0.34,0.18 0.74,0.37 1.46,0.94 1.99,1.58 0.4,0.49 0.84,1.23 1.04,1.75 0.04,0.1 0.07,0.18 0.08,0.18 0.01,0.03 0.42,-0.4 0.5,-0.53 0.19,-0.3 0.21,-0.66 0.06,-1 -0.08,-0.17 -0.19,-0.29 -1.17,-1.29 -0.6,-0.61 -1.16,-1.16 -1.24,-1.22 -0.26,-0.19 -0.55,-0.26 -0.83,-0.2zm-3.69 0.72c-2.14,0.23 -3.98,1.71 -4.69,3.77 -0.21,0.6 -0.3,1.17 -0.3,1.85 0,0.89 0.17,1.64 0.54,2.43 0.29,0.61 0.61,1.06 1.09,1.55 0.87,0.88 1.88,1.4 3.14,1.62 0.24,0.04 0.6,0.05 2.72,0.06 2.59,0.01 2.71,0 2.98,-0.12 0.19,-0.09 0.42,-0.31 0.52,-0.5 0.16,-0.29 0.15,-0.23 0.15,-2.8 0,-1.47 -0.01,-2.48 -0.03,-2.66 -0.14,-1.38 -0.77,-2.7 -1.74,-3.65 -1.17,-1.15 -2.8,-1.72 -4.38,-1.55zm0.96 2.35c0.51,0.06 0.96,0.23 1.39,0.51 0.33,0.22 0.78,0.68 0.98,1.01 1.16,1.9 0.18,4.37 -1.95,4.94 -0.36,0.09 -0.98,0.12 -1.35,0.05 -0.69,-0.12 -1.32,-0.46 -1.81,-0.98 -0.27,-0.28 -0.41,-0.5 -0.58,-0.86 -0.2,-0.43 -0.28,-0.76 -0.3,-1.26 -0.01,-0.46 0.01,-0.7 0.12,-1.08 0.44,-1.52 1.95,-2.52 3.5,-2.33zm-0.85 0.63c-1.02,0.19 -1.84,0.97 -2.1,1.99 -0.12,0.47 -0.1,0.99 0.05,1.47 0.12,0.38 0.31,0.7 0.6,1.01 0.57,0.62 1.34,0.91 2.16,0.83 1.32,-0.12 2.33,-1.2 2.4,-2.54 0.02,-0.53 -0.11,-1.06 -0.39,-1.52 -0.19,-0.31 -0.57,-0.7 -0.88,-0.89 -0.54,-0.33 -1.23,-0.47 -1.84,-0.35zm8.62 3.99c-0.13,0.06 -0.14,0.12 -0.14,0.61l0 0.45 -0.92 0 -0.91 0 0 1.09c0,0.6 -0.01,1.13 -0.02,1.19l-0.01 0.11 1.1 0c1.07,0 1.11,-0.01 1.18,-0.06 0.04,-0.03 0.08,-0.11 0.1,-0.16 0.04,-0.14 0.04,-2.9 0,-3.04 -0.01,-0.05 -0.05,-0.12 -0.08,-0.14 -0.06,-0.06 -0.21,-0.09 -0.3,-0.05z"/>
  <path class="fil2" d="M22.6 2.12c-0.43,0.28 -0.6,0.96 -0.41,1.57 0.1,0.29 4.42,9.99 4.57,10.26 0.33,0.57 0.94,0.88 1.46,0.74 0.24,-0.06 4.46,-1.94 4.66,-2.08 0.45,-0.29 0.63,-0.95 0.43,-1.57 -0.1,-0.3 -4.42,-10 -4.57,-10.27 -0.33,-0.57 -0.94,-0.88 -1.46,-0.74 -0.22,0.06 -4.49,1.97 -4.68,2.09zm3.33 -0.71c0.11,0.26 -0.14,0.34 -0.14,0.34l-0.45 0.2 -0.45 0.19c0,0 -0.22,0.11 -0.33,-0.12 -0.1,-0.23 0.13,-0.33 0.13,-0.33l0.45 -0.2 0.45 -0.2c0,0 0.23,-0.13 0.34,0.12zm5.51 10.26c0,0 0.23,-0.14 0.34,0.12 0.11,0.25 -0.14,0.33 -0.14,0.33 0,0 -1.26,0.56 -1.48,0.66 -0.22,0.1 -1.47,0.66 -1.47,0.66 0,0 -0.23,0.1 -0.33,-0.13 -0.1,-0.22 0.13,-0.33 0.13,-0.33l2.95 -1.31z"/>
  <path class="fil2" d="M62.76 2.02c-0.22,0.06 -0.47,0.19 -0.64,0.35 -0.13,0.1 -0.25,0.27 -0.56,0.74l-0.41 0.6 -0.8 0.01c-0.76,0.01 -0.82,0.01 -0.97,0.06 -0.45,0.15 -0.82,0.51 -0.97,0.92 -0.09,0.27 -0.1,0.51 -0.09,3.29 0.01,2.95 0,2.77 0.17,3.11 0.17,0.34 0.51,0.64 0.87,0.75l0.18 0.06 5.09 0 5.1 0 0.17 -0.06c0.36,-0.11 0.71,-0.41 0.88,-0.75 0.16,-0.34 0.15,-0.16 0.16,-3.11 0.01,-2.78 0,-3.02 -0.09,-3.29 -0.15,-0.41 -0.52,-0.77 -0.96,-0.92 -0.15,-0.05 -0.22,-0.05 -0.97,-0.06l-0.81 -0.01 -0.4 -0.6c-0.45,-0.67 -0.59,-0.82 -0.89,-0.97 -0.34,-0.16 -0.29,-0.16 -2.2,-0.15 -1.42,0 -1.75,0 -1.86,0.03zm2.39 2.02c1.48,0.24 2.59,1.32 2.85,2.78 0.05,0.27 0.05,0.81 0,1.09 -0.16,0.99 -0.78,1.87 -1.68,2.37 -1.04,0.59 -2.34,0.59 -3.38,0 -0.9,-0.5 -1.49,-1.35 -1.67,-2.37 -0.05,-0.25 -0.05,-0.79 -0.02,-1.04 0.23,-1.46 1.37,-2.6 2.85,-2.83 0.28,-0.04 0.77,-0.04 1.05,0zm4.31 0.95c0.23,0.15 0.27,0.48 0.09,0.68 -0.12,0.12 -0.19,0.14 -0.61,0.14 -0.33,0 -0.4,-0.01 -0.48,-0.05 -0.22,-0.11 -0.31,-0.35 -0.21,-0.58 0.05,-0.12 0.1,-0.18 0.22,-0.23 0.08,-0.04 0.15,-0.04 0.49,-0.04 0.39,0.01 0.4,0.01 0.5,0.08zm-5.21 0.56c-0.61,0.13 -1.13,0.56 -1.36,1.13 -0.11,0.26 -0.14,0.47 -0.13,0.78 0.02,0.31 0.06,0.47 0.19,0.73 0.33,0.65 1.04,1.06 1.78,1.02 0.29,-0.02 0.48,-0.07 0.73,-0.19 0.62,-0.3 1,-0.88 1.04,-1.56 0.02,-0.31 -0.02,-0.52 -0.12,-0.78 -0.34,-0.83 -1.25,-1.31 -2.13,-1.13z"/>
  <g>
  </g>
  <g style="clip-path:url(#id0)">
   <g id="_2853406217920">
    <path class="fil4" d="M92.39 20.67l-0.53 -0.52 -0.81 0.78c-0.31,0.32 -0.66,-0.08 -0.37,-0.37l0.78 -0.78 -0.7 -0.61 -0.46 0.58c-0.23,0.26 -0.64,-0.03 -0.37,-0.38l0.37 -0.52 -0.81 -0.49 -0.29 0.64c-0.17,0.34 -0.66,0.14 -0.46,-0.27l0.26 -0.57 -0.87 -0.32 -0.2 0.69c-0.12,0.41 -0.61,0.26 -0.52,-0.17l0.17 -0.64 -0.9 -0.17 -0.08 0.63c-0.03,0.47 -0.58,0.38 -0.55,-0.02l0.05 -0.67 -0.92 0 0.03 0.69c0.03,0.44 -0.52,0.47 -0.55,0.03l-0.03 -0.66 -0.96 0.17 0.15 0.58c0.14,0.49 -0.41,0.64 -0.52,0.17l-0.18 -0.6 -0.89 0.34 0.28 0.58c0.18,0.38 -0.28,0.61 -0.46,0.26l-0.29 -0.6 -0.81 0.46 0.35 0.43c0.29,0.35 -0.15,0.67 -0.44,0.32l-0.37 -0.49 -0.7 0.61 0.79 0.78c0.28,0.29 -0.03,0.69 -0.38,0.37l-0.78 -0.78 -0.61 0.7 0.52 0.37c0.32,0.24 0.06,0.67 -0.29,0.44l-0.55 -0.38 -0.46 0.81 0.61 0.29c0.34,0.26 0.2,0.7 -0.24,0.55l-0.63 -0.29 -0.32 0.87 0.61 0.17c0.4,0.15 0.34,0.64 -0.15,0.53l-0.61 -0.15 -0.14 0.93 0.69 0.06c0.41,0.05 0.41,0.55 -0.02,0.55l-0.76 -0.06 0 0.92 0.76 -0.05c0.34,-0.03 0.43,0.46 0.08,0.55l-0.72 0.05 0.14 0.93 0.64 -0.17c0.38,-0.09 0.58,0.37 0.2,0.52l-0.69 0.17 0.32 0.9 0.6 -0.29c0.35,-0.15 0.55,0.29 0.29,0.46l-0.66 0.32 0.46 0.81 0.58 -0.4c0.29,-0.21 0.64,0.14 0.35,0.43l-0.61 0.43 0.61 0.73 0.81 -0.81c0.26,-0.23 0.66,0.08 0.4,0.37l-0.84 0.81 0.47 0.47c0.23,0.2 0.55,0.2 0.81,-0.03l11.23 -11.23c0.2,-0.26 0.29,-0.55 0.09,-0.76zm-11.32 7.01c-1.65,-3.73 2.08,-7.99 6.22,-6.25l-6.22 6.25z"/>
   </g>
  </g>
  <polygon class="fil5" points="76.96,32.95 92.59,32.95 92.59,17.32 76.96,17.32 "/>
 </g>
</svg>
