<svg width="25" height="25" viewBox="0 0 25 25" fill="none" xmlns="http://www.w3.org/2000/svg">
<g clip-path="url(#clip0_54_1464)">
<path d="M24.6759 5.37036L23.8426 4.53703L22.5463 5.78703C22.037 6.29629 21.4815 5.64814 21.9444 5.18518L23.1944 3.93518L22.0833 2.96296L21.3426 3.88888C20.9722 4.30555 20.3241 3.84259 20.7407 3.28703L21.3426 2.4537L20.0463 1.66666L19.5833 2.68518C19.3055 3.24073 18.5185 2.91666 18.8426 2.26851L19.2593 1.34259L17.8704 0.833327L17.5463 1.94444C17.3611 2.59259 16.5741 2.3611 16.713 1.66666L16.9907 0.648141L15.5555 0.370364L15.4167 1.38888C15.3704 2.12962 14.4907 1.99073 14.537 1.34259L14.6296 0.277771H13.1481L13.1944 1.38888C13.2407 2.08333 12.3611 2.12962 12.3148 1.43518L12.2685 0.370364L10.7407 0.648141L10.9722 1.57407C11.2037 2.3611 10.3241 2.59259 10.1389 1.85185L9.86111 0.879623L8.42592 1.43518L8.88888 2.3611C9.16666 2.96296 8.42592 3.33333 8.14814 2.77777L7.68518 1.80555L6.38888 2.54629L6.94444 3.24073C7.4074 3.79629 6.71296 4.30555 6.25 3.74999L5.64814 2.96296L4.53703 3.93518L5.78703 5.18518C6.25 5.64814 5.74074 6.29629 5.18518 5.78703L3.93518 4.53703L2.96296 5.64814L3.79629 6.24999C4.30555 6.62036 3.88888 7.31481 3.33333 6.94444L2.4537 6.34259L1.71296 7.63888L2.68518 8.10184C3.24074 8.51851 3.00925 9.21296 2.31481 8.98147L1.29629 8.51851L0.787033 9.9074L1.75925 10.1852C2.4074 10.4167 2.31481 11.2037 1.52777 11.0185L0.555551 10.787L0.32407 12.2685L1.43518 12.3611C2.08333 12.4537 2.08333 13.2407 1.38888 13.2407L0.185181 13.1481V14.6296L1.38888 14.537C1.94444 14.4907 2.08333 15.2778 1.52777 15.4167L0.370366 15.5093L0.601847 16.9907L1.62037 16.713C2.22222 16.5741 2.54629 17.3148 1.94444 17.5463L0.833329 17.8241L1.34259 19.2593L2.31481 18.7963C2.87037 18.5648 3.19444 19.2593 2.77777 19.537L1.71296 20.0463L2.4537 21.3426L3.37963 20.6944C3.84259 20.3704 4.39814 20.9259 3.93518 21.3889L2.96296 22.0833L3.93518 23.2407L5.23148 21.9444C5.64814 21.5741 6.29629 22.0833 5.87963 22.5463L4.53703 23.8426L5.27777 24.5833C5.64814 24.9074 6.1574 24.9074 6.57407 24.537L24.537 6.57407C24.8611 6.1574 25 5.69444 24.6759 5.37036ZM6.57407 16.5741C3.93518 10.6018 9.9074 3.79629 16.5278 6.57407L6.57407 16.5741Z" fill="#4A4B4E"/>
</g>
<defs>
<clipPath id="clip0_54_1464">
<rect width="25" height="25" fill="white"/>
</clipPath>
</defs>
</svg>
