<svg width="46" height="296" viewBox="0 0 46 296" fill="none" xmlns="http://www.w3.org/2000/svg">
<path d="M31 4L45 4" stroke="#4A4B4E" stroke-linecap="round"/>
<path d="M37 16L45 16" stroke="#4A4B4E" stroke-linecap="round"/>
<path d="M37 28L45 28" stroke="#4A4B4E" stroke-linecap="round"/>
<path d="M37 40L45 40" stroke="#4A4B4E" stroke-linecap="round"/>
<path d="M37 52L45 52" stroke="#4A4B4E" stroke-linecap="round"/>
<path d="M37 64L45 64" stroke="#4A4B4E" stroke-linecap="round"/>
<path d="M31 76L45 76" stroke="#4A4B4E" stroke-linecap="round"/>
<path d="M37 88L45 88" stroke="#4A4B4E" stroke-linecap="round"/>
<path d="M37 100L45 100" stroke="#4A4B4E" stroke-linecap="round"/>
<path d="M37 112L45 112" stroke="#4A4B4E" stroke-linecap="round"/>
<path d="M37 124L45 124" stroke="#4A4B4E" stroke-linecap="round"/>
<path d="M37 136L45 136" stroke="#4A4B4E" stroke-linecap="round"/>
<path d="M31 148L45 148" stroke="#4A4B4E" stroke-linecap="round"/>
<path d="M37 160L45 160" stroke="#4A4B4E" stroke-linecap="round"/>
<path d="M37 172L45 172" stroke="#4A4B4E" stroke-linecap="round"/>
<path d="M37 184H45" stroke="#4A4B4E" stroke-linecap="round"/>
<path d="M37 196L45 196" stroke="#4A4B4E" stroke-linecap="round"/>
<path d="M37 208L45 208" stroke="#4A4B4E" stroke-linecap="round"/>
<path d="M31 220L45 220" stroke="#4A4B4E" stroke-linecap="round"/>
<path d="M37 232L45 232" stroke="#4A4B4E" stroke-linecap="round"/>
<path d="M37 244L45 244" stroke="#4A4B4E" stroke-linecap="round"/>
<path d="M37 256L45 256" stroke="#4A4B4E" stroke-linecap="round"/>
<path d="M37 268L45 268" stroke="#4A4B4E" stroke-linecap="round"/>
<path d="M37 280H45" stroke="#4A4B4E" stroke-linecap="round"/>
<path d="M31 292L45 292" stroke="#4A4B4E" stroke-linecap="round"/>
<path d="M23.2148 292.199C25.084 292.199 26.209 290.494 26.209 287.775V287.764C26.209 285.045 25.084 283.346 23.2148 283.346C21.3457 283.346 20.2324 285.045 20.2324 287.764V287.775C20.2324 290.494 21.3457 292.199 23.2148 292.199ZM23.2148 291.279C22.002 291.279 21.293 289.932 21.293 287.775V287.764C21.293 285.607 22.002 284.271 23.2148 284.271C24.4277 284.271 25.1484 285.607 25.1484 287.764V287.775C25.1484 289.932 24.4277 291.279 23.2148 291.279Z" fill="#4A4B4E"/>
<path d="M15.7441 224.199C17.4609 224.199 18.6855 223.01 18.6855 221.305V221.293C18.6855 219.658 17.543 218.469 15.9551 218.469C15.1875 218.469 14.5254 218.779 14.1504 219.348H14.0566L14.3438 216.488H18.2168V215.545H13.5117L13.0664 220.402H13.9805C14.0859 220.203 14.2207 220.039 14.3672 219.898C14.7305 219.553 15.2109 219.383 15.7734 219.383C16.8691 219.383 17.6543 220.186 17.6543 221.311V221.322C17.6543 222.465 16.8809 223.268 15.7559 223.268C14.7656 223.268 14.0332 222.623 13.9336 221.814L13.9277 221.768H12.9141L12.9199 221.832C13.043 223.186 14.168 224.199 15.7441 224.199ZM23.2148 224.199C25.084 224.199 26.209 222.494 26.209 219.775V219.764C26.209 217.045 25.084 215.346 23.2148 215.346C21.3457 215.346 20.2324 217.045 20.2324 219.764V219.775C20.2324 222.494 21.3457 224.199 23.2148 224.199ZM23.2148 223.279C22.002 223.279 21.293 221.932 21.293 219.775V219.764C21.293 217.607 22.002 216.271 23.2148 216.271C24.4277 216.271 25.1484 217.607 25.1484 219.764V219.775C25.1484 221.932 24.4277 223.279 23.2148 223.279Z" fill="#4A4B4E"/>
<path d="M9.32812 152H10.3828V143.545H9.33398L7.08398 145.162V146.275L9.23438 144.717H9.32812V152ZM15.6562 152.199C17.5254 152.199 18.6504 150.494 18.6504 147.775V147.764C18.6504 145.045 17.5254 143.346 15.6562 143.346C13.7871 143.346 12.6738 145.045 12.6738 147.764V147.775C12.6738 150.494 13.7871 152.199 15.6562 152.199ZM15.6562 151.279C14.4434 151.279 13.7344 149.932 13.7344 147.775V147.764C13.7344 145.607 14.4434 144.271 15.6562 144.271C16.8691 144.271 17.5898 145.607 17.5898 147.764V147.775C17.5898 149.932 16.8691 151.279 15.6562 151.279ZM23.2148 152.199C25.084 152.199 26.209 150.494 26.209 147.775V147.764C26.209 145.045 25.084 143.346 23.2148 143.346C21.3457 143.346 20.2324 145.045 20.2324 147.764V147.775C20.2324 150.494 21.3457 152.199 23.2148 152.199ZM23.2148 151.279C22.002 151.279 21.293 149.932 21.293 147.775V147.764C21.293 145.607 22.002 144.271 23.2148 144.271C24.4277 144.271 25.1484 145.607 25.1484 147.764V147.775C25.1484 149.932 24.4277 151.279 23.2148 151.279Z" fill="#4A4B4E"/>
<path d="M9.46875 80H10.5234V71.5449H9.47461L7.22461 73.1621V74.2754L9.375 72.7168H9.46875V80ZM15.7441 80.1992C17.4609 80.1992 18.6855 79.0098 18.6855 77.3047V77.293C18.6855 75.6582 17.543 74.4688 15.9551 74.4688C15.1875 74.4688 14.5254 74.7793 14.1504 75.3477H14.0566L14.3438 72.4883H18.2168V71.5449H13.5117L13.0664 76.4023H13.9805C14.0859 76.2031 14.2207 76.0391 14.3672 75.8984C14.7305 75.5527 15.2109 75.3828 15.7734 75.3828C16.8691 75.3828 17.6543 76.1855 17.6543 77.3105V77.3223C17.6543 78.4648 16.8809 79.2676 15.7559 79.2676C14.7656 79.2676 14.0332 78.623 13.9336 77.8145L13.9277 77.7676H12.9141L12.9199 77.832C13.043 79.1855 14.168 80.1992 15.7441 80.1992ZM23.2148 80.1992C25.084 80.1992 26.209 78.4941 26.209 75.7754V75.7637C26.209 73.0449 25.084 71.3457 23.2148 71.3457C21.3457 71.3457 20.2324 73.0449 20.2324 75.7637V75.7754C20.2324 78.4941 21.3457 80.1992 23.2148 80.1992ZM23.2148 79.2793C22.002 79.2793 21.293 77.9316 21.293 75.7754V75.7637C21.293 73.6074 22.002 72.2715 23.2148 72.2715C24.4277 72.2715 25.1484 73.6074 25.1484 75.7637V75.7754C25.1484 77.9316 24.4277 79.2793 23.2148 79.2793Z" fill="#4A4B4E"/>
<path d="M5.58398 11H11.0566V10.0508H7.04883V9.95703L8.9707 7.9707C10.5 6.39453 10.916 5.69141 10.916 4.72461V4.71289C10.916 3.34766 9.78516 2.3457 8.30859 2.3457C6.69141 2.3457 5.53125 3.42383 5.52539 4.92383L5.53711 4.92969L6.54492 4.93555L6.55078 4.92383C6.55078 3.92773 7.22461 3.26562 8.23828 3.26562C9.23438 3.26562 9.83789 3.93359 9.83789 4.82422V4.83594C9.83789 5.57422 9.52148 6.01367 8.44336 7.17969L5.58398 10.2734V11ZM15.6562 11.1992C17.5254 11.1992 18.6504 9.49414 18.6504 6.77539V6.76367C18.6504 4.04492 17.5254 2.3457 15.6562 2.3457C13.7871 2.3457 12.6738 4.04492 12.6738 6.76367V6.77539C12.6738 9.49414 13.7871 11.1992 15.6562 11.1992ZM15.6562 10.2793C14.4434 10.2793 13.7344 8.93164 13.7344 6.77539V6.76367C13.7344 4.60742 14.4434 3.27148 15.6562 3.27148C16.8691 3.27148 17.5898 4.60742 17.5898 6.76367V6.77539C17.5898 8.93164 16.8691 10.2793 15.6562 10.2793ZM23.2148 11.1992C25.084 11.1992 26.209 9.49414 26.209 6.77539V6.76367C26.209 4.04492 25.084 2.3457 23.2148 2.3457C21.3457 2.3457 20.2324 4.04492 20.2324 6.76367V6.77539C20.2324 9.49414 21.3457 11.1992 23.2148 11.1992ZM23.2148 10.2793C22.002 10.2793 21.293 8.93164 21.293 6.77539V6.76367C21.293 4.60742 22.002 3.27148 23.2148 3.27148C24.4277 3.27148 25.1484 4.60742 25.1484 6.76367V6.77539C25.1484 8.93164 24.4277 10.2793 23.2148 10.2793Z" fill="#4A4B4E"/>
</svg>
