<svg width="41" height="41" viewBox="0 0 41 41" fill="none" xmlns="http://www.w3.org/2000/svg">
<path fill-rule="evenodd" clip-rule="evenodd" d="M4.53354 0.0568183C4.26888 0.167352 4.12285 0.386537 4.12285 0.673138C4.12285 0.897713 4.4351 1.24412 6.49092 3.29986L8.85908 5.66795V6.48181V7.29575L8.0657 8.0854L7.27232 8.87505H6.46139H5.65038L3.28214 6.5091C1.12378 4.35292 0.889246 4.14392 0.635885 4.1511C0.476507 4.15564 0.281436 4.23529 0.178894 4.33778C0.00427977 4.51239 0 4.58768 0 7.50835V10.5L1.90457 12.4038L3.80923 14.3076L6.5695 14.3322L9.32985 14.3568L12.2406 17.2624L15.1513 20.1681L17.6544 17.6651L20.1575 15.1621L17.2517 12.2587L14.3458 9.35517L14.32 6.5914L14.2944 3.82771L12.3898 1.924L10.4851 0.0203729L7.59647 0.00223582C6.00766 -0.00777381 4.62932 0.0167798 4.53354 0.0568183ZM34.6514 1.76111C32.6795 2.74522 31.0094 3.61845 30.9402 3.70178C30.8434 3.81805 30.8083 4.17249 30.7886 5.23052L30.763 6.60791L23.0634 14.3081L15.3637 22.0083L17.1834 23.8255L19.003 25.6428L26.7003 17.9489L34.3977 10.255L35.7815 10.2281C36.8364 10.2075 37.2009 10.1715 37.3151 10.0766C37.5769 9.85908 40.9572 3.00615 40.9572 2.69312C40.9572 2.4475 40.8143 2.27186 39.7803 1.24685C39.133 0.605124 38.5208 0.0557917 38.42 0.0260194C38.2858 -0.0135914 37.2753 0.451643 34.6514 1.76111ZM23.3456 23.3552L20.8425 25.8582L23.7483 28.7617L26.6542 31.6652L26.68 34.429L26.7056 37.1927L28.6103 39.0964L30.515 41H33.5082C36.4757 41 36.503 40.9984 36.6893 40.8123C36.8028 40.6989 36.8771 40.5184 36.8771 40.3566C36.8771 40.1198 36.6012 39.8126 34.5091 37.7205L32.1409 35.3524V34.5387V33.7248L32.977 32.8923L33.8131 32.0598H34.5397H35.2662L37.6618 34.4552C39.9122 36.7056 40.076 36.8507 40.3656 36.8507C40.5703 36.8507 40.7287 36.7902 40.8369 36.6706C40.9908 36.5008 41 36.3209 41 33.5054V30.5203L39.0954 28.6165L37.1908 26.7127L34.4305 26.6882L31.6701 26.6635L28.7594 23.7579L25.8487 20.8523L23.3456 23.3552ZM12.7965 21.9391C12.7258 21.9638 12.2922 22.3545 11.8329 22.8074L10.9978 23.6308L14.1858 26.8181L17.3738 30.0054L18.2094 29.1734C18.9508 28.4351 19.0449 28.3075 19.0449 28.0399C19.0449 27.7578 18.8595 27.5537 16.1561 24.8598C14.5672 23.2765 13.1902 21.9616 13.096 21.9377C13.0019 21.9138 12.8671 21.9144 12.7965 21.9391ZM5.38427 29.2568C1.03313 33.6224 0.829758 33.8405 0.538136 34.4552C0.149449 35.2744 0.0265345 35.7929 0.0304719 36.5965C0.0357788 37.6961 0.273647 38.4305 0.887706 39.2439C1.3441 39.8486 1.81718 40.2229 2.59747 40.597C3.15349 40.8636 3.32537 40.9032 4.08203 40.9397C5.11379 40.9893 5.67683 40.8809 6.54802 40.4647C7.16139 40.1717 7.39318 39.9557 11.7492 35.617L16.3084 31.0759L13.1172 27.888L9.92602 24.7001L5.38427 29.2568Z" fill="#333642"/>
</svg>
