<svg width="25" height="25" viewBox="0 0 25 25" fill="none" xmlns="http://www.w3.org/2000/svg">
<path d="M11.3426 0.324081C6.57406 0.324081 1.62036 2.26853 1.62036 4.67593C1.62036 6.89816 5.87962 9.02778 11.5278 9.02778C14.8148 9.02778 20.787 7.45371 20.787 4.67593C20.8333 2.22223 16.2037 0.324081 11.3426 0.324081ZM11.3889 7.31482C8.00925 7.31482 5.50925 5.92593 5.50925 4.44445C5.50925 2.87038 8.56481 1.57408 10.8333 1.57408C11.6667 -0.324067 16.8981 2.50001 16.8981 4.44445C16.9444 6.25001 13.3796 7.31482 11.3889 7.31482Z" fill="#4A4B4E"/>
<path d="M10.6482 2.5463C5.32408 2.96296 4.81482 5.74074 10.3704 6.38889L10.6482 2.5463Z" fill="#4A4B4E"/>
<path d="M12.1296 1.85185C11.8055 1.75925 11.6203 1.85185 11.6203 2.12962L11.2963 6.34259C11.8055 6.43518 12.8703 6.29629 13.5185 6.1111L13.7037 2.3611L12.1296 1.85185ZM12.9629 4.72222C12.9629 4.9537 12.7777 5.13888 12.5463 5.13888H12.5C12.2685 5.13888 12.0833 4.9537 12.0833 4.72222V4.21296C12.0833 3.98148 12.2685 3.79629 12.5 3.79629H12.5463C12.7777 3.79629 12.9629 3.98148 12.9629 4.21296V4.72222Z" fill="#4A4B4E"/>
<path d="M14.5833 2.82408C16.5741 4.12038 16.3889 5.1389 14.4445 5.83334L14.5833 2.82408Z" fill="#4A4B4E"/>
<path d="M17.8704 8.75C12.5 10.9259 4.49073 10 1.62036 6.85185V11.713C1.71295 12.5926 2.17592 13.2407 2.91666 13.75V11.6667C2.91666 11.0648 3.84258 11.0648 3.84258 11.6667V14.3519L5.55555 15.0926V12.9167C5.55555 12.3148 6.48147 12.3611 6.48147 12.9167V15.3704L8.6111 15.787V13.4259C8.6111 12.7315 9.53703 12.7315 9.53703 13.4259V15.5556C12.1296 13.8426 14.9537 11.4352 17.8704 8.75Z" fill="#4A4B4E"/>
<path d="M19.6296 1.52777C22.5463 2.91666 24.5833 8.00925 22.6851 12.4074L22.037 11.5278C21.574 11.0185 20.8796 11.6204 21.3889 12.1759L22.1759 13.2407L20.787 15.1389L19.6296 13.7963C19.074 13.2407 18.4722 13.9352 18.9814 14.4444L20.2314 15.787L18.5185 17.6389L16.8055 16.2037C16.2963 15.6944 15.6944 16.3426 16.2037 16.8055L17.9629 18.3333L16.1574 20.0463L14.2129 18.3796C13.6574 17.8241 13.0555 18.4259 13.6111 18.9815L15.5092 20.6481L13.6574 22.2685C13.6111 21.7593 13.4259 21.2963 13.0092 20.9259C12.5926 20.5555 12.1759 20.3241 11.7129 20.4167C11.0648 20.5555 10.7407 20.4167 10.4629 20.1389C9.99996 19.537 10.2777 19.3055 9.76848 18.6574C9.35182 18.1018 8.84256 17.963 8.42589 18.0093H7.73145L12.1296 14.7685L15.2314 12.3148C18.9352 8.93518 24.8611 5.09259 19.6296 1.52777Z" fill="#4A4B4E"/>
<path d="M12.4537 21.6204C12.0371 21.25 11.6667 21.2963 11.2037 21.3426C10.6945 21.3889 10.1852 21.1111 9.90744 20.787C9.1667 20 9.58337 19.7685 9.12041 19.1667C8.61115 18.5185 7.77782 19.213 6.80559 18.6111L5.69448 19.3519C5.23152 19.7222 5.13893 20.2778 5.5093 20.6482L9.95374 24.213C10.3241 24.4444 10.6945 24.537 11.0649 24.2593L12.963 22.7778C12.6852 22.4537 12.8241 21.9907 12.4537 21.6204ZM10.2778 22.8241C10.1389 23.0093 9.86115 23.0556 9.67596 22.8704L7.45374 21.1111C7.26856 20.9722 7.22226 20.6944 7.40744 20.5093C7.59263 20.3241 7.82411 20.2778 8.0093 20.463L10.2315 22.2222C10.3704 22.4074 10.4167 22.6852 10.2778 22.8241Z" fill="#4A4B4E"/>
</svg>
