<svg width="46" height="296" viewBox="0 0 46 296" fill="none" xmlns="http://www.w3.org/2000/svg">
<path d="M1 4L15 4" stroke="#4A4B4E" stroke-linecap="round"/>
<path d="M1 16L9 16" stroke="#4A4B4E" stroke-linecap="round"/>
<path d="M1 28L9 28" stroke="#4A4B4E" stroke-linecap="round"/>
<path d="M1 40L9 40" stroke="#4A4B4E" stroke-linecap="round"/>
<path d="M1 52L9 52" stroke="#4A4B4E" stroke-linecap="round"/>
<path d="M1 64L9 64" stroke="#4A4B4E" stroke-linecap="round"/>
<path d="M1 76L15 76" stroke="#4A4B4E" stroke-linecap="round"/>
<path d="M1 88L9 88" stroke="#4A4B4E" stroke-linecap="round"/>
<path d="M1 100L9 100" stroke="#4A4B4E" stroke-linecap="round"/>
<path d="M1 112L9 112" stroke="#4A4B4E" stroke-linecap="round"/>
<path d="M1 124L9 124" stroke="#4A4B4E" stroke-linecap="round"/>
<path d="M1 136L9 136" stroke="#4A4B4E" stroke-linecap="round"/>
<path d="M1 148L15 148" stroke="#4A4B4E" stroke-linecap="round"/>
<path d="M1 160L9 160" stroke="#4A4B4E" stroke-linecap="round"/>
<path d="M1 172L9 172" stroke="#4A4B4E" stroke-linecap="round"/>
<path d="M1 184H9" stroke="#4A4B4E" stroke-linecap="round"/>
<path d="M1 196L9 196" stroke="#4A4B4E" stroke-linecap="round"/>
<path d="M1 208L9 208" stroke="#4A4B4E" stroke-linecap="round"/>
<path d="M1 220L15 220" stroke="#4A4B4E" stroke-linecap="round"/>
<path d="M1 232L9 232" stroke="#4A4B4E" stroke-linecap="round"/>
<path d="M1 244L9 244" stroke="#4A4B4E" stroke-linecap="round"/>
<path d="M1 256L9 256" stroke="#4A4B4E" stroke-linecap="round"/>
<path d="M1 268L9 268" stroke="#4A4B4E" stroke-linecap="round"/>
<path d="M1 280H9" stroke="#4A4B4E" stroke-linecap="round"/>
<path d="M1 292L15 292" stroke="#4A4B4E" stroke-linecap="round"/>
<path d="M22.7734 292.199C24.6426 292.199 25.7676 290.494 25.7676 287.775V287.764C25.7676 285.045 24.6426 283.346 22.7734 283.346C20.9043 283.346 19.791 285.045 19.791 287.764V287.775C19.791 290.494 20.9043 292.199 22.7734 292.199ZM22.7734 291.279C21.5605 291.279 20.8516 289.932 20.8516 287.775V287.764C20.8516 285.607 21.5605 284.271 22.7734 284.271C23.9863 284.271 24.707 285.607 24.707 287.764V287.775C24.707 289.932 23.9863 291.279 22.7734 291.279Z" fill="#4A4B4E"/>
<path d="M22.7207 224.199C24.4375 224.199 25.6621 223.01 25.6621 221.305V221.293C25.6621 219.658 24.5195 218.469 22.9316 218.469C22.1641 218.469 21.502 218.779 21.127 219.348H21.0332L21.3203 216.488H25.1934V215.545H20.4883L20.043 220.402H20.957C21.0625 220.203 21.1973 220.039 21.3438 219.898C21.707 219.553 22.1875 219.383 22.75 219.383C23.8457 219.383 24.6309 220.186 24.6309 221.311V221.322C24.6309 222.465 23.8574 223.268 22.7324 223.268C21.7422 223.268 21.0098 222.623 20.9102 221.814L20.9043 221.768H19.8906L19.8965 221.832C20.0195 223.186 21.1445 224.199 22.7207 224.199ZM30.1914 224.199C32.0605 224.199 33.1855 222.494 33.1855 219.775V219.764C33.1855 217.045 32.0605 215.346 30.1914 215.346C28.3223 215.346 27.209 217.045 27.209 219.764V219.775C27.209 222.494 28.3223 224.199 30.1914 224.199ZM30.1914 223.279C28.9785 223.279 28.2695 221.932 28.2695 219.775V219.764C28.2695 217.607 28.9785 216.271 30.1914 216.271C31.4043 216.271 32.125 217.607 32.125 219.764V219.775C32.125 221.932 31.4043 223.279 30.1914 223.279Z" fill="#4A4B4E"/>
<path d="M22.0117 152H23.0664V143.545H22.0176L19.7676 145.162V146.275L21.918 144.717H22.0117V152ZM28.3398 152.199C30.209 152.199 31.334 150.494 31.334 147.775V147.764C31.334 145.045 30.209 143.346 28.3398 143.346C26.4707 143.346 25.3574 145.045 25.3574 147.764V147.775C25.3574 150.494 26.4707 152.199 28.3398 152.199ZM28.3398 151.279C27.127 151.279 26.418 149.932 26.418 147.775V147.764C26.418 145.607 27.127 144.271 28.3398 144.271C29.5527 144.271 30.2734 145.607 30.2734 147.764V147.775C30.2734 149.932 29.5527 151.279 28.3398 151.279ZM35.8984 152.199C37.7676 152.199 38.8926 150.494 38.8926 147.775V147.764C38.8926 145.045 37.7676 143.346 35.8984 143.346C34.0293 143.346 32.916 145.045 32.916 147.764V147.775C32.916 150.494 34.0293 152.199 35.8984 152.199ZM35.8984 151.279C34.6855 151.279 33.9766 149.932 33.9766 147.775V147.764C33.9766 145.607 34.6855 144.271 35.8984 144.271C37.1113 144.271 37.832 145.607 37.832 147.764V147.775C37.832 149.932 37.1113 151.279 35.8984 151.279Z" fill="#4A4B4E"/>
<path d="M22.0117 80H23.0664V71.5449H22.0176L19.7676 73.1621V74.2754L21.918 72.7168H22.0117V80ZM28.2871 80.1992C30.0039 80.1992 31.2285 79.0098 31.2285 77.3047V77.293C31.2285 75.6582 30.0859 74.4688 28.498 74.4688C27.7305 74.4688 27.0684 74.7793 26.6934 75.3477H26.5996L26.8867 72.4883H30.7598V71.5449H26.0547L25.6094 76.4023H26.5234C26.6289 76.2031 26.7637 76.0391 26.9102 75.8984C27.2734 75.5527 27.7539 75.3828 28.3164 75.3828C29.4121 75.3828 30.1973 76.1855 30.1973 77.3105V77.3223C30.1973 78.4648 29.4238 79.2676 28.2988 79.2676C27.3086 79.2676 26.5762 78.623 26.4766 77.8145L26.4707 77.7676H25.457L25.4629 77.832C25.5859 79.1855 26.7109 80.1992 28.2871 80.1992ZM35.7578 80.1992C37.627 80.1992 38.752 78.4941 38.752 75.7754V75.7637C38.752 73.0449 37.627 71.3457 35.7578 71.3457C33.8887 71.3457 32.7754 73.0449 32.7754 75.7637V75.7754C32.7754 78.4941 33.8887 80.1992 35.7578 80.1992ZM35.7578 79.2793C34.5449 79.2793 33.8359 77.9316 33.8359 75.7754V75.7637C33.8359 73.6074 34.5449 72.2715 35.7578 72.2715C36.9707 72.2715 37.6914 73.6074 37.6914 75.7637V75.7754C37.6914 77.9316 36.9707 79.2793 35.7578 79.2793Z" fill="#4A4B4E"/>
<path d="M19.9434 11H25.416V10.0508H21.4082V9.95703L23.3301 7.9707C24.8594 6.39453 25.2754 5.69141 25.2754 4.72461V4.71289C25.2754 3.34766 24.1445 2.3457 22.668 2.3457C21.0508 2.3457 19.8906 3.42383 19.8848 4.92383L19.8965 4.92969L20.9043 4.93555L20.9102 4.92383C20.9102 3.92773 21.584 3.26562 22.5977 3.26562C23.5938 3.26562 24.1973 3.93359 24.1973 4.82422V4.83594C24.1973 5.57422 23.8809 6.01367 22.8027 7.17969L19.9434 10.2734V11ZM30.0156 11.1992C31.8848 11.1992 33.0098 9.49414 33.0098 6.77539V6.76367C33.0098 4.04492 31.8848 2.3457 30.0156 2.3457C28.1465 2.3457 27.0332 4.04492 27.0332 6.76367V6.77539C27.0332 9.49414 28.1465 11.1992 30.0156 11.1992ZM30.0156 10.2793C28.8027 10.2793 28.0938 8.93164 28.0938 6.77539V6.76367C28.0938 4.60742 28.8027 3.27148 30.0156 3.27148C31.2285 3.27148 31.9492 4.60742 31.9492 6.76367V6.77539C31.9492 8.93164 31.2285 10.2793 30.0156 10.2793ZM37.5742 11.1992C39.4434 11.1992 40.5684 9.49414 40.5684 6.77539V6.76367C40.5684 4.04492 39.4434 2.3457 37.5742 2.3457C35.7051 2.3457 34.5918 4.04492 34.5918 6.76367V6.77539C34.5918 9.49414 35.7051 11.1992 37.5742 11.1992ZM37.5742 10.2793C36.3613 10.2793 35.6523 8.93164 35.6523 6.77539V6.76367C35.6523 4.60742 36.3613 3.27148 37.5742 3.27148C38.7871 3.27148 39.5078 4.60742 39.5078 6.76367V6.77539C39.5078 8.93164 38.7871 10.2793 37.5742 10.2793Z" fill="#4A4B4E"/>
</svg>
