<svg width="19" height="15" viewBox="0 0 19 15" fill="none" xmlns="http://www.w3.org/2000/svg">
<path d="M15.6304 14.7184C15.9126 14.9215 16.2909 14.8304 16.4961 14.4944C17.6247 12.6463 18.3044 10.3502 18.3044 7.83005C18.3044 5.3029 17.6119 3.01377 16.4961 1.15866C16.2909 0.815644 15.9126 0.731639 15.6304 0.934651C15.3226 1.15166 15.2777 1.56469 15.4893 1.93571C16.4705 3.5668 17.0796 5.58992 17.0796 7.83005C17.0796 10.0562 16.4705 12.0933 15.4893 13.7174C15.2777 14.0884 15.3226 14.5014 15.6304 14.7184ZM1.73444 10.8192H3.54919C3.60049 10.8192 3.65179 10.8332 3.69026 10.8752L6.50537 13.6194C6.83882 13.9484 7.09532 14.1024 7.43519 14.1024C7.90972 14.1024 8.26882 13.7104 8.26882 13.1924V2.50274C8.26882 1.97771 7.90972 1.55769 7.42236 1.55769C7.09532 1.55769 6.86447 1.7187 6.50537 2.07572L3.69026 4.79887C3.65179 4.84088 3.60049 4.85488 3.54919 4.85488H1.73444C0.785384 4.85488 0.304443 5.40091 0.304443 6.49297V9.18113C0.304443 10.2802 0.791796 10.8192 1.73444 10.8192ZM13.0333 12.8213C13.3283 13.0173 13.6874 12.9473 13.8862 12.6183C14.7262 11.3302 15.2072 9.60115 15.2072 7.82305C15.2072 6.04494 14.7327 4.30884 13.8862 3.02777C13.6874 2.69875 13.3283 2.62175 13.0333 2.82476C12.7255 3.03477 12.6806 3.4548 12.9051 3.82582C13.5912 4.91788 13.9824 6.33896 13.9824 7.82305C13.9824 9.30013 13.5784 10.7212 12.9051 11.8203C12.6871 12.1913 12.7255 12.6043 13.0333 12.8213ZM1.84987 9.56615C1.63825 9.56615 1.53565 9.45414 1.53565 9.22313V6.45797C1.53565 6.21995 1.63825 6.10795 1.84987 6.10795H3.85058C4.02372 6.10795 4.15197 6.07295 4.29946 5.92594L6.85165 3.38479C6.88371 3.35679 6.91577 3.33579 6.95425 3.33579C7.00555 3.33579 7.04402 3.37079 7.04402 3.43379V12.2193C7.04402 12.2893 7.00555 12.3243 6.96066 12.3243C6.92218 12.3243 6.89012 12.3103 6.85165 12.2753L4.29946 9.74816C4.15197 9.60115 4.02372 9.56615 3.85058 9.56615H1.84987ZM10.4555 10.9452C10.7312 11.1412 11.0903 11.0712 11.2891 10.7632C11.8085 10.0072 12.1163 8.93611 12.1163 7.82305C12.1163 6.70998 11.8085 5.64592 11.2891 4.88288C11.0903 4.57486 10.7312 4.50486 10.4555 4.70787C10.1413 4.93188 10.0772 5.3449 10.3337 5.75093C10.6863 6.30396 10.8851 7.046 10.8851 7.82305C10.8851 8.60009 10.6799 9.33513 10.3337 9.89517C10.0836 10.3012 10.1413 10.7142 10.4555 10.9452Z" fill="#0D1018"/>
</svg>
