<svg width="20" height="20" viewBox="0 0 20 20" fill="none" xmlns="http://www.w3.org/2000/svg">
<path d="M9.13882 20H10.8612C11.4165 20 11.84 19.6704 11.9529 19.1243L12.4329 17.1186C12.7529 17.0056 13.0635 16.8832 13.3459 16.7514L15.0965 17.8249C15.5576 18.1168 16.0941 18.0697 16.48 17.6836L17.6847 16.4783C18.0706 16.0923 18.1271 15.5273 17.8165 15.0659L16.7529 13.3333C16.8847 13.0414 17.0165 12.7401 17.1106 12.4482L19.1247 11.968C19.6706 11.8456 20 11.4313 20 10.8757V9.18079C20 8.62524 19.6706 8.21092 19.1247 8.08851L17.1294 7.60829C17.0165 7.2693 16.8847 6.96798 16.7718 6.71375L17.8353 4.9435C18.1365 4.47269 18.0988 3.94539 17.7035 3.54991L16.48 2.34463C16.0847 1.98682 15.5953 1.9209 15.1247 2.18456L13.3459 3.27684C13.0729 3.14501 12.7718 3.0226 12.4329 2.9096L11.9529 0.875706C11.84 0.329567 11.4165 0 10.8612 0H9.13882C8.57412 0 8.16 0.329567 8.03765 0.885122L7.56706 2.89077C7.23765 3.00377 6.91765 3.12618 6.63529 3.26742L4.86588 2.18456C4.39529 1.9209 3.90588 1.9774 3.51059 2.34463L2.28706 3.54991C1.89176 3.94539 1.85412 4.47269 2.15529 4.9435L3.21882 6.71375C3.10588 6.96798 2.97412 7.2693 2.87059 7.60829L0.875294 8.08851C0.329412 8.21092 0 8.62524 0 9.18079V10.8757C0 11.4313 0.329412 11.8456 0.875294 11.968L2.88941 12.4482C2.98353 12.7401 3.10588 13.0414 3.23765 13.3333L2.17412 15.0659C1.86353 15.5273 1.92 16.0923 2.30588 16.4783L3.51059 17.6836C3.89647 18.0697 4.44235 18.1168 4.90353 17.8249L6.64471 16.7514C6.92706 16.8832 7.23765 17.0056 7.56706 17.1186L8.03765 19.1243C8.16 19.6704 8.57412 20 9.13882 20ZM10.0047 13.2957C8.18824 13.2957 6.70118 11.8079 6.70118 9.99058C6.70118 8.19209 8.18824 6.70433 10.0047 6.70433C11.8118 6.70433 13.2894 8.19209 13.2894 9.99058C13.2894 11.8079 11.8118 13.2957 10.0047 13.2957Z" fill="#DA8433"/>
</svg>
