<svg width="197" height="378" viewBox="0 0 197 378" fill="none" xmlns="http://www.w3.org/2000/svg">
<g clip-path="url(#clip0_50_344)">
<path fill-rule="evenodd" clip-rule="evenodd" d="M7.99995 378C-96.3819 378 -181 293.382 -181 189C-181 84.6182 -96.3819 0 7.99995 0C112.502 3.48462 197.112 87.8563 197 189C197.215 290.599 112.619 374.936 7.99995 378ZM18 164.333V92.7109C18 81.9676 27 73.789 42.7044 78.8341C75.7251 89.4423 103.26 115.21 116.817 147.77C124.2 165.5 119.512 180 105.588 180H34.6192C25.1867 180 18 172.39 18 164.333ZM18 287.289L18 215.667C18 207.61 25.1867 200 34.6192 200H105.588C119.512 200 124.2 214.5 116.817 232.23C103.26 264.79 75.7251 290.558 42.7044 301.166C27 306.211 18 298.032 18 287.289Z" fill="#DA8433"/>
<path d="M0.4039 0V31.9207M3.8036 0L3.49455 14.9953M7.20331 0.148468L6.73972 14.9953M10.603 0.296936L9.98489 14.9953M14.0027 0.445405L13.0755 15.2922M17.4024 0.742341L15.239 25.9819M20.9566 1.03928L19.4113 15.5892M24.3564 1.48468L22.502 15.8861M27.7561 1.93009L25.5926 16.48M31.3103 2.37549L28.6833 16.7769M34.71 2.96936L28.8378 33.9992M37.8006 3.41477L35.0191 17.9646M41.3549 4.15711L37.9552 18.5585M44.9091 4.89945L41.0458 19.1524M48.3088 5.79026L43.9819 19.7463M51.3994 6.5326L44.291 30.7329M54.7991 7.42341L50.1632 21.5279M57.8898 8.31422L53.2538 22.1218M61.2895 9.3535L56.3445 23.0126M64.3801 10.3928L59.2806 24.2003M67.6253 11.432L56.3445 41.1257M70.8705 12.6198L65.3073 26.2789M74.2702 13.956L68.0889 27.4666M77.3608 15.1438L71.1795 28.3574M80.4515 16.48L73.9611 29.8421M83.5421 17.8162L72.2613 40.5318M86.6327 19.3009L79.8333 32.2176M89.7234 20.6371L82.6149 33.7023M92.5049 22.1218L85.3965 34.89M95.7501 23.9034L88.178 36.3747M98.5317 25.3881L81.9968 52.7062M101.622 27.1697L93.7412 39.3441M104.558 28.8028L96.3682 41.1257M107.34 30.5844L99.1498 42.7588M110.122 32.3661L101.622 44.392M113.058 34.2962L98.0681 54.7848M115.839 36.2262L106.876 47.9552M118.621 38.1563L109.349 49.7368M121.402 40.2349L111.976 51.5185M124.029 42.3134L114.448 53.597M126.65 44.3919L105.486 68.4438M129.23 46.5194L119.239 57.4571M131.709 48.7594L121.557 59.5357M134.188 50.9995L124.029 61.6143M136.667 53.2396L126.193 63.6928M139.019 55.3786L120.63 72.8978M141.646 57.9025L130.674 67.9984M143.964 60.1296L132.838 70.0769M146.282 62.6535L135.001 72.4524M148.6 65.029L137.165 74.6795M150.763 67.553L125.575 87.8931M152.927 70.0769L141.028 79.4304M155.09 72.7494L143.037 81.6575M157.254 75.4218L145.046 84.1814M159.263 77.9458L146.9 86.5569M161.117 80.4697L139.637 94.8711M163.281 83.4391L150.609 91.4564M165.135 86.1115L152.309 93.9803M166.989 88.9324L153.854 96.6527M168.689 91.6048L155.709 99.3252M170.544 94.5742L142.11 110.312M172.243 97.3951L158.799 104.522M173.789 100.364L160.499 107.194M175.489 103.334L161.89 109.866M177.034 106.155L163.281 112.539M178.27 108.976L154.627 119.665M179.815 112.093L166.062 118.032M181.206 115.211L167.298 120.853M182.597 118.181L168.38 123.674M183.833 121.298L169.616 126.643M185.036 124.416L154.009 135.254M186.157 127.386L171.588 132.285M187.233 130.652L172.862 135.254M188.315 133.77L173.789 138.075M189.242 136.888L174.716 141.045M190.169 140.005L164.826 146.538M190.983 143.281L176.184 146.757M191.786 146.487L176.853 149.656M192.642 149.656L177.803 152.767M193.26 152.922L178.27 155.892M194.062 156.337L161.745 161.621M194.607 159.561L179.631 161.737M195 162.809L180.008 164.762M195.393 166.057L180.505 167.882M195.785 169.305L180.764 170.811M196.149 172.396L170.336 174.404M196.464 175.953L181.302 176.878M196.742 179.091L181.562 179.807M196.821 182.456L181.623 182.963M197 185.708L181.783 186.005M196.961 188.977L164.057 188.931M196.922 192.247L181.549 192.03M196.783 195.63L181.591 194.977M196.645 199.013L181.434 198.15M196.487 202.186L181.258 201.115M196.212 205.264L170.128 202.974M195.874 208.874L180.807 207.158M195.499 212.066L180.414 210.14M195.025 215.371L179.802 213.14M194.531 218.467L179.428 216.332M193.957 221.886L161.66 216.311M193.365 225.095L178.305 222.219M192.554 228.322L177.811 225.315M191.862 231.645L177.082 228.219M191.151 234.759L176.353 231.124M190.204 237.681L164.955 231.214M189.294 241.022L174.794 237.046M188.266 244.267L173.847 239.969M187.337 247.399L172.782 242.795M186.191 250.548L171.735 245.831M185.018 253.677L154.025 242.75M183.883 256.641L169.458 251.366M182.515 259.805L168.439 254.425M181.251 262.858L167.256 257.155M179.868 265.816L165.973 260M178.485 268.774L154.726 258.076M176.91 271.783L163.263 265.277M175.373 274.731L161.83 267.907M173.902 277.684L160.469 270.874M172.183 280.564L158.73 273.553M126.65 333.783L105.486 309.731M129.23 331.656L119.239 320.718M131.709 329.416L121.557 318.639M134.188 327.176L124.029 316.561M136.667 324.935L126.193 314.482M139.019 322.796L120.63 305.277M141.646 320.272L130.674 310.177M143.964 318.045L132.838 308.098M146.282 315.521L135.001 305.723M148.6 313.146L137.165 303.496M150.763 310.622L125.575 290.282M152.927 308.098L141.028 298.745M155.09 305.426L143.037 296.518M157.254 302.753L145.046 293.994M159.263 300.229L146.9 291.618M161.117 297.705L139.637 283.304M163.281 294.736L150.609 286.719M165.135 292.064L152.309 284.195M166.989 289.243L153.854 281.522M168.689 286.57L155.709 278.85M170.544 283.601L142.11 267.863M0.4039 378V346.079M3.8036 378L3.49455 363.005M7.20331 377.852L6.73972 363.005M10.603 377.703L9.98489 363.005M14.0027 377.555L13.0755 362.708M17.4024 377.258L15.239 352.018M20.9566 376.961L19.4113 362.411M24.3564 376.515L22.502 362.114M27.7561 376.07L25.5926 361.52M31.3103 375.625L28.6833 361.223M34.71 375.031L28.8378 344.001M37.8006 374.585L35.0191 360.035M41.3549 373.843L37.9552 359.441M44.9091 373.101L41.0458 358.848M48.3088 372.21L43.9819 358.254M51.3994 371.467L44.291 347.267M54.7991 370.577L50.1632 356.472M57.8898 369.686L53.2538 355.878M61.2895 368.646L56.3445 354.987M64.3801 367.607L59.2806 353.8M67.6253 366.568L56.3445 336.874M70.8705 365.38L65.3073 351.721M74.2702 364.044L68.0889 350.533M77.3608 362.856L71.1795 349.643M80.4515 361.52L73.9611 348.158M83.5421 360.184L72.2613 337.468M86.6327 358.699L79.8333 345.782M89.7234 357.363L82.6149 344.298M92.5049 355.878L85.3965 343.11M95.7501 354.097L88.178 341.625M98.5317 352.612L81.9968 325.294M101.622 350.83L93.7412 338.656M104.558 349.197L96.3682 336.874M107.34 347.416L99.1498 335.241M110.122 345.634L101.622 333.608M113.058 343.704L98.0681 323.215M115.839 341.774L106.876 330.045M118.621 339.844L109.349 328.263M121.402 337.765L111.976 326.482M124.029 335.687L114.448 324.403" stroke="#0D1018"/>
<path d="M3.2239 41.897C4.95695 41.897 6.00004 40.3781 6.00004 37.9563V37.9458C6.00004 35.5239 4.95695 34.0103 3.2239 34.0103C1.49084 34.0103 0.458618 35.5239 0.458618 37.9458V37.9563C0.458618 40.3781 1.49084 41.897 3.2239 41.897ZM3.2239 41.0776C2.09931 41.0776 1.44195 39.8771 1.44195 37.9563V37.9458C1.44195 36.025 2.09931 34.8349 3.2239 34.8349C4.34848 34.8349 5.01671 36.025 5.01671 37.9458V37.9563C5.01671 39.8771 4.34848 41.0776 3.2239 41.0776Z" fill="#0D1018"/>
<path d="M22.6809 43.7294L23.6538 43.8241L24.4435 36.3305L23.476 36.2364L21.2494 37.4678L21.1454 38.4545L23.2746 37.2661L23.3611 37.2745L22.6809 43.7294Z" fill="#0D1018"/>
<path d="M28.4998 44.4738C30.2241 44.6416 31.4211 43.2313 31.675 40.8218L31.6761 40.8114C31.93 38.4018 31.051 36.7949 29.3267 36.6272C27.6025 36.4594 26.4168 37.8655 26.1629 40.2751L26.1618 40.2855C25.9079 42.6951 26.7756 44.3061 28.4998 44.4738ZM28.5857 43.6585C27.4669 43.5497 26.9387 42.2917 27.1401 40.3806L27.1412 40.3703C27.3426 38.4592 28.1214 37.3388 29.2403 37.4477C30.3591 37.5565 30.8992 38.8052 30.6978 40.7162L30.6967 40.7266C30.4953 42.6376 29.7046 43.7674 28.5857 43.6585Z" fill="#0D1018"/>
<path d="M46.0499 48.3443L50.8773 49.8462L51.1485 49.0418L47.6132 47.9419L47.64 47.8624L49.9026 46.7065C51.7018 45.7904 52.2697 45.3087 52.5458 44.4893L52.5492 44.4794C52.9391 43.3224 52.2278 42.1629 50.9253 41.7577C49.4988 41.3139 48.1675 41.9092 47.7339 43.1788L47.7425 43.187L48.6298 43.4685L48.6384 43.4602C48.9229 42.616 49.7064 42.2398 50.6006 42.518C51.4792 42.7914 51.8208 43.5231 51.5664 44.2779L51.563 44.2878C51.3521 44.9135 50.9475 45.1991 49.6634 45.8914L46.2575 47.7286L46.0499 48.3443Z" fill="#0D1018"/>
<path d="M54.8777 51.2773C56.5265 51.7903 58.0059 50.654 58.7825 48.3499L58.7858 48.34C59.5624 46.0359 59.0554 44.2871 57.4067 43.7741C55.7579 43.2612 54.2905 44.3957 53.5139 46.6998L53.5106 46.7097C52.734 49.0138 53.229 50.7644 54.8777 51.2773ZM55.1405 50.4977C54.0706 50.1649 53.8302 48.8282 54.4461 47.0008L54.4494 46.9909C55.0653 45.1635 56.0723 44.2259 57.1422 44.5587C58.2121 44.8916 58.4662 46.2216 57.8503 48.0489L57.847 48.0589C57.231 49.8862 56.2104 50.8306 55.1405 50.4977Z" fill="#0D1018"/>
<path d="M73.0695 59.4405C74.4237 60.2039 75.9064 59.9626 76.5691 58.8777L76.5746 58.8687C77.1383 57.9459 76.8284 56.9784 75.8939 56.3426L75.9049 56.3246C76.8528 56.629 77.7787 56.4127 78.2681 55.6114L78.2736 55.6024C78.8758 54.6165 78.4484 53.4496 77.1598 52.7231C75.8947 52.0098 74.5915 52.2253 73.8376 53.2224L73.8054 53.2648L74.616 53.7218L74.6482 53.6794C75.1199 53.0618 75.9343 52.9763 76.7309 53.4254C77.5555 53.8903 77.7802 54.5435 77.365 55.2233L77.3595 55.2323C76.9636 55.8805 76.1098 56.0407 75.3039 55.5863L74.4933 55.1293L74.0754 55.8136L74.9235 56.2917C75.87 56.8253 76.1928 57.6065 75.7061 58.4033L75.7006 58.4123C75.28 59.1011 74.3841 59.2375 73.4985 58.7382C72.5989 58.231 72.2545 57.4437 72.5793 56.7675L72.6022 56.7199L71.7916 56.2628L71.7632 56.3195C71.2254 57.3961 71.6732 58.6532 73.0695 59.4405Z" fill="#0D1018"/>
<path d="M79.0208 62.8563C80.5155 63.699 82.2153 62.8962 83.4911 60.8074L83.4966 60.7984C84.7724 58.7096 84.6702 56.8969 83.1755 56.0542C81.6808 55.2115 79.9931 56.0151 78.7173 58.1039L78.7118 58.1129C77.436 60.2017 77.5261 62.0136 79.0208 62.8563ZM79.4525 62.1495C78.4826 61.6027 78.5481 60.2476 79.5599 58.591L79.5654 58.582C80.5773 56.9254 81.7711 56.2186 82.7411 56.7655C83.711 57.3123 83.6604 58.6636 82.6485 60.3202L82.643 60.3292C81.6312 61.9859 80.4224 62.6963 79.4525 62.1495Z" fill="#0D1018"/>
<path d="M95.6246 73.6422L96.3655 74.2229L97.3923 73.0136L98.2553 73.6899L98.8082 73.0387L97.9452 72.3624L101.321 68.3866L100.222 67.5254C98.3381 68.0764 96.1989 68.7709 94.2551 69.4502L93.6919 70.1135L96.6514 72.4329L95.6246 73.6422ZM95.0159 70.0734L95.0572 70.0249C96.6281 69.4711 98.4471 68.8893 99.9601 68.445L100.011 68.4846L97.205 71.789L95.0159 70.0734Z" fill="#0D1018"/>
<path d="M100.315 77.5475C101.658 78.6 103.466 78.0565 105.059 76.1798L105.066 76.1717C106.66 74.295 106.847 72.4886 105.504 71.4362C104.161 70.3837 102.366 70.9297 100.772 72.8064L100.765 72.8145C99.1719 74.6912 98.9725 76.4951 100.315 77.5475ZM100.855 76.9125C99.9831 76.2296 100.264 74.9001 101.527 73.4117L101.534 73.4036C102.798 71.9152 104.09 71.3923 104.962 72.0752C105.833 72.7582 105.568 74.0861 104.304 75.5745L104.297 75.5826C103.034 77.071 101.726 77.5955 100.855 76.9125Z" fill="#0D1018"/>
<path d="M114.977 91.9532C116.022 93.1061 117.6 93.2323 118.792 92.2343L118.8 92.2275C119.943 91.2707 120.078 89.8072 119.111 88.7409C118.643 88.2254 118.023 87.9625 117.397 88.0433L117.34 87.9804L119.513 86.4996L121.873 89.1006L122.532 88.5484L119.666 85.3887L115.999 87.9327L116.556 88.5465C116.76 88.5007 116.956 88.4952 117.144 88.5113C117.607 88.5529 118.018 88.7761 118.361 89.1539C119.029 89.8897 118.946 90.8868 118.159 91.5452L118.151 91.5521C117.353 92.2208 116.32 92.1713 115.635 91.4158C115.032 90.7508 115.036 89.8817 115.541 89.3415L115.57 89.3102L114.952 88.6294L114.911 88.6711C114.04 89.5459 114.016 90.8947 114.977 91.9532Z" fill="#0D1018"/>
<path d="M119.528 96.9701C120.666 98.2253 122.544 97.9829 124.444 96.3916L124.452 96.3848C126.352 94.7935 126.855 93.0435 125.716 91.7883C124.577 90.533 122.712 90.7799 120.811 92.3712L120.803 92.3781C118.903 93.9693 118.389 95.7149 119.528 96.9701ZM120.171 96.4317C119.432 95.6172 119.942 94.3523 121.449 93.0903L121.457 93.0834C122.964 91.8214 124.33 91.5156 125.069 92.3301C125.808 93.1446 125.313 94.4105 123.806 95.6725L123.798 95.6794C122.291 96.9414 120.91 97.2462 120.171 96.4317Z" fill="#0D1018"/>
<path d="M131.246 113.631C132.123 114.894 133.713 115.218 135.015 114.384L135.024 114.378C136.276 113.576 136.598 112.102 135.781 110.926C135.193 110.079 134.308 109.792 133.615 109.904L133.558 109.822C133.608 109.79 133.662 109.755 133.715 109.727C135.108 108.903 136.588 108.627 137.378 109.764C137.818 110.398 137.783 111.054 137.369 111.596L137.331 111.645L137.877 112.431L137.927 112.38C138.742 111.551 138.841 110.358 138.111 109.307C137.056 107.787 135.137 107.731 132.913 109.156L132.904 109.162C130.45 110.734 130.45 112.484 131.246 113.631ZM132.513 110.761L132.517 110.758C133.367 110.214 134.414 110.434 134.978 111.246C135.541 112.058 135.328 113.048 134.46 113.604L134.451 113.61C133.606 114.151 132.504 113.948 131.959 113.162C131.407 112.367 131.654 111.312 132.513 110.761Z" fill="#0D1018"/>
<path d="M135.095 119.176C136.057 120.561 137.951 120.552 140.048 119.208L140.057 119.203C142.154 117.859 142.886 116.185 141.925 114.8C140.963 113.415 139.08 113.429 136.982 114.773L136.973 114.779C134.876 116.123 134.134 117.791 135.095 119.176ZM135.805 118.721C135.181 117.822 135.856 116.631 137.519 115.565L137.528 115.559C139.191 114.493 140.587 114.359 141.211 115.257C141.835 116.156 141.175 117.351 139.512 118.417L139.503 118.422C137.839 119.488 136.429 119.62 135.805 118.721Z" fill="#0D1018"/>
<path d="M142.024 134.388L142.395 135.308L150.119 136.024L150.965 135.709L149.089 131.061L148.274 131.365L149.79 135.122L149.719 135.148L142.024 134.388Z" fill="#0D1018"/>
<path d="M144.914 142.039C145.541 143.591 147.392 143.976 149.742 143.101L149.752 143.097C152.102 142.221 153.194 140.74 152.567 139.187C151.941 137.635 150.099 137.257 147.748 138.133L147.738 138.137C145.388 139.013 144.287 140.486 144.914 142.039ZM145.709 141.742C145.303 140.735 146.23 139.712 148.094 139.018L148.104 139.014C149.968 138.319 151.361 138.478 151.767 139.485C152.174 140.493 151.261 141.522 149.397 142.216L149.386 142.22C147.522 142.914 146.116 142.75 145.709 141.742Z" fill="#0D1018"/>
<path d="M150.551 161.295C150.801 162.874 151.903 163.864 153.202 163.675L153.213 163.673C154.169 163.534 154.862 162.773 154.942 161.784L154.964 161.781C155.356 162.558 156.082 162.98 156.898 162.861L156.909 162.86C158.08 162.689 158.782 161.536 158.56 160.127C158.337 158.718 157.31 157.817 156.139 157.988L156.128 157.99C155.312 158.109 154.749 158.719 154.615 159.573L154.593 159.576C154.211 158.655 153.314 158.126 152.358 158.265L152.348 158.267C151.048 158.456 150.302 159.716 150.551 161.295ZM155.149 160.624C155.007 159.726 155.442 159.035 156.194 158.925L156.205 158.924C156.957 158.814 157.585 159.35 157.727 160.248C157.869 161.146 157.435 161.838 156.683 161.948L156.672 161.949C155.92 162.059 155.291 161.522 155.149 160.624ZM151.395 161.172C151.232 160.145 151.718 159.325 152.556 159.202L152.567 159.201C153.415 159.077 154.137 159.716 154.3 160.748C154.464 161.78 153.972 162.596 153.123 162.72L153.112 162.722C152.274 162.844 151.557 162.199 151.395 161.172Z" fill="#0D1018"/>
<path d="M151.556 168.001C151.816 169.647 153.536 170.41 156.028 170.047L156.039 170.045C158.531 169.681 159.932 168.463 159.672 166.817C159.412 165.171 157.699 164.418 155.207 164.781L155.196 164.783C152.704 165.147 151.296 166.355 151.556 168.001ZM152.4 167.878C152.231 166.81 153.367 166.005 155.344 165.717L155.355 165.715C157.331 165.427 158.655 165.873 158.824 166.941C158.992 168.009 157.868 168.823 155.891 169.111L155.881 169.113C153.904 169.401 152.568 168.946 152.4 167.878Z" fill="#0D1018"/>
<path d="M161.415 185.237C161.415 183.718 160.279 182.601 158.715 182.601H158.704C157.199 182.601 156.08 183.656 156.08 185.07C156.08 186.088 156.65 186.798 157.291 187.075V187.174C157.232 187.174 157.166 187.174 157.107 187.169C155.471 187.111 154.081 186.553 154.081 185.185C154.081 184.423 154.488 183.896 155.145 183.666L155.205 183.645V182.701L155.135 182.716C153.977 182.972 153.206 183.912 153.206 185.175C153.206 187.002 154.771 188.072 157.443 188.072H157.454C160.404 188.072 161.415 186.615 161.415 185.237ZM156.933 185.232C156.933 184.256 157.683 183.546 158.726 183.546H158.736C159.752 183.546 160.551 184.303 160.551 185.248C160.551 186.203 159.736 186.949 158.704 186.949H158.698C157.677 186.949 156.933 186.208 156.933 185.232Z" fill="#0D1018"/>
<path d="M153.206 192.101C153.206 193.766 154.787 194.768 157.308 194.768H157.319C159.839 194.768 161.415 193.766 161.415 192.101C161.415 190.436 159.839 189.444 157.319 189.444H157.308C154.787 189.444 153.206 190.436 153.206 192.101ZM154.059 192.101C154.059 191.021 155.308 190.389 157.308 190.389H157.319C159.318 190.389 160.556 191.021 160.556 192.101C160.556 193.182 159.318 193.824 157.319 193.824H157.308C155.308 193.824 154.059 193.182 154.059 192.101Z" fill="#0D1018"/>
<path d="M152.141 207.93L151.995 208.859L159.745 209.99L159.891 209.066L158.722 206.868L157.701 206.719L158.831 208.821L158.818 208.904L152.141 207.93Z" fill="#0D1018"/>
<path d="M151.078 213.477C150.818 215.123 152.225 216.342 154.717 216.706L154.728 216.707C157.22 217.071 158.934 216.307 159.194 214.661C159.454 213.014 158.052 211.807 155.559 211.443L155.549 211.442C153.056 211.078 151.338 211.831 151.078 213.477ZM151.922 213.6C152.09 212.532 153.424 212.088 155.401 212.376L155.412 212.377C157.388 212.666 158.514 213.469 158.346 214.537C158.177 215.605 156.852 216.061 154.875 215.773L154.865 215.771C152.888 215.483 151.753 214.668 151.922 213.6Z" fill="#0D1018"/>
<path d="M150.027 220.134C149.767 221.78 151.173 222.999 153.665 223.363L153.676 223.364C156.168 223.728 157.883 222.964 158.143 221.318C158.403 219.671 157 218.464 154.508 218.1L154.497 218.099C152.005 217.735 150.287 218.488 150.027 220.134ZM150.87 220.257C151.039 219.189 152.373 218.745 154.349 219.033L154.36 219.034C156.337 219.323 157.463 220.126 157.294 221.194C157.125 222.262 155.8 222.718 153.824 222.43L153.813 222.429C151.836 222.14 150.701 221.325 150.87 220.257Z" fill="#0D1018"/>
<path d="M146.241 234.167L145.887 235.043L153.196 237.767L153.548 236.896L152.904 234.506L151.942 234.147L152.568 236.435L152.537 236.513L146.241 234.167Z" fill="#0D1018"/>
<path d="M144.374 238.79L144.021 239.666L151.33 242.39L151.681 241.519L151.038 239.129L150.075 238.77L150.702 241.058L150.67 241.136L144.374 238.79Z" fill="#0D1018"/>
<path d="M142.08 243.981C141.454 245.534 142.55 247.017 144.901 247.893L144.911 247.897C147.261 248.773 149.107 248.386 149.734 246.834C150.36 245.281 149.265 243.809 146.915 242.933L146.904 242.93C144.554 242.054 142.707 242.429 142.08 243.981ZM142.876 244.278C143.282 243.27 144.685 243.116 146.549 243.81L146.559 243.814C148.423 244.509 149.34 245.528 148.933 246.535C148.527 247.543 147.13 247.711 145.266 247.016L145.256 247.012C143.392 246.318 142.469 245.285 142.876 244.278Z" fill="#0D1018"/>
<path d="M135.917 257.62L135.375 258.402L141.897 262.581L142.437 261.804L142.347 259.337L141.488 258.787L141.584 261.151L141.536 261.22L135.917 257.62Z" fill="#0D1018"/>
<path d="M134.118 260.213L131.303 264.269L132.035 264.738L134.097 261.768L134.169 261.814L134.712 264.22C135.141 266.132 135.47 266.788 136.216 267.266L136.225 267.272C137.278 267.947 138.632 267.604 139.392 266.51C140.224 265.311 139.989 263.918 138.835 263.173L138.825 263.178L138.302 263.922L138.308 263.933C139.076 264.425 139.24 265.252 138.719 266.003C138.206 266.741 137.38 266.858 136.693 266.418L136.684 266.412C136.115 266.047 135.939 265.596 135.594 264.22L134.678 260.572L134.118 260.213Z" fill="#0D1018"/>
<path d="M128.783 267.579C127.821 268.964 128.558 270.641 130.655 271.985L130.664 271.99C132.761 273.334 134.65 273.34 135.612 271.955C136.574 270.57 135.836 268.905 133.738 267.561L133.729 267.555C131.632 266.212 129.744 266.194 128.783 267.579ZM129.492 268.034C130.116 267.135 131.52 267.276 133.184 268.341L133.193 268.347C134.856 269.413 135.522 270.599 134.898 271.497C134.274 272.396 132.873 272.27 131.209 271.204L131.2 271.199C129.537 270.133 128.868 268.933 129.492 268.034Z" fill="#0D1018"/>
<path d="M121.376 279.193L120.733 279.901L126.643 284.85L127.282 284.145L127.522 281.688L126.744 281.036L126.524 283.392L126.467 283.455L121.376 279.193Z" fill="#0D1018"/>
<path d="M117.394 283.392C116.363 284.529 116.335 285.974 117.322 286.8L117.33 286.807C118.17 287.51 119.217 287.397 120.04 286.632L120.056 286.646C119.57 287.484 119.62 288.399 120.349 289.009L120.357 289.016C121.254 289.767 122.526 289.579 123.508 288.497C124.472 287.435 124.493 286.164 123.612 285.268L123.575 285.23L122.957 285.91L122.995 285.949C123.539 286.508 123.476 287.293 122.869 287.962C122.241 288.655 121.531 288.746 120.913 288.228L120.905 288.221C120.315 287.727 120.309 286.892 120.923 286.215L121.54 285.534L120.918 285.013L120.272 285.725C119.551 286.52 118.692 286.68 117.967 286.073L117.959 286.066C117.332 285.542 117.358 284.671 118.033 283.927C118.718 283.171 119.587 282.992 120.219 283.424L120.263 283.454L120.881 282.773L120.828 282.736C119.826 282.029 118.458 282.219 117.394 283.392Z" fill="#0D1018"/>
<path d="M112.799 288.379C111.66 289.634 112.167 291.388 114.067 292.979L114.075 292.986C115.976 294.577 117.849 294.816 118.987 293.56C120.126 292.305 119.616 290.563 117.716 288.972L117.708 288.965C115.807 287.374 113.937 287.124 112.799 288.379ZM113.442 288.917C114.181 288.103 115.555 288.415 117.062 289.677L117.07 289.684C118.577 290.946 119.079 292.204 118.34 293.019C117.602 293.833 116.229 293.535 114.721 292.273L114.713 292.267C113.206 291.005 112.703 289.732 113.442 288.917Z" fill="#0D1018"/>
<path d="M104.042 297.628L103.284 298.222L108.24 304.058L108.994 303.467L109.662 301.084L109.01 300.316L108.378 302.602L108.311 302.655L104.042 297.628Z" fill="#0D1018"/>
<path d="M98.7548 301.773L98.014 302.353L99.0409 303.563L98.1779 304.239L98.7308 304.89L99.5938 304.214L102.97 308.189L104.068 307.328C103.885 305.444 103.606 303.291 103.304 301.325L102.741 300.662L99.7817 302.982L98.7548 301.773ZM102.516 301.916L102.557 301.965C102.806 303.555 103.034 305.383 103.183 306.897L103.133 306.936L100.327 303.632L102.516 301.916Z" fill="#0D1018"/>
<path d="M93.8308 305.403C92.488 306.456 92.6792 308.266 94.2728 310.143L94.2796 310.151C95.8732 312.027 97.6774 312.567 99.0202 311.514C100.363 310.462 100.167 308.662 98.5733 306.785L98.5664 306.777C96.9729 304.901 95.1737 304.351 93.8308 305.403ZM94.37 306.038C95.2414 305.355 96.5407 305.886 97.8045 307.374L97.8114 307.382C99.0752 308.871 99.3489 310.192 98.4776 310.875C97.6062 311.558 96.3054 311.042 95.0415 309.554L95.0347 309.546C93.7708 308.057 93.4987 306.721 94.37 306.038Z" fill="#0D1018"/>
<path d="M82.2558 313.544L81.4124 314.019L85.3806 320.515L86.2193 320.042L87.2595 317.785L86.737 316.93L85.7489 319.097L85.674 319.139L82.2558 313.544Z" fill="#0D1018"/>
<path d="M77.1442 316.22C75.7714 316.995 75.3504 318.461 76.1507 319.77L76.1562 319.779C76.9234 321.035 78.3953 321.434 79.665 320.718C80.2788 320.372 80.6625 319.835 80.6956 319.229L80.7706 319.187L81.883 321.513L78.786 323.259L79.2287 323.984L82.9911 321.862L81.0674 317.93L80.3365 318.342C80.3457 318.543 80.3149 318.73 80.2638 318.904C80.1355 319.333 79.8311 319.68 79.3813 319.934C78.5051 320.428 77.5006 320.165 76.9726 319.301L76.9671 319.292C76.4308 318.414 76.6725 317.449 77.5721 316.941C78.3639 316.495 79.2521 316.66 79.7113 317.236L79.7379 317.269L80.5485 316.812L80.5136 316.766C79.7799 315.781 78.4046 315.51 77.1442 316.22Z" fill="#0D1018"/>
<path d="M71.1704 319.589C69.6758 320.432 69.5764 322.249 70.8524 324.338L70.8579 324.347C72.1339 326.435 73.831 327.234 75.3256 326.391C76.8203 325.548 76.913 323.741 75.637 321.652L75.6315 321.643C74.3555 319.554 72.665 318.746 71.1704 319.589ZM71.6022 320.296C72.572 319.749 73.7715 320.465 74.7834 322.121L74.7889 322.13C75.8009 323.787 75.861 325.133 74.8911 325.68C73.9213 326.226 72.718 325.525 71.706 323.869L71.7005 323.86C70.6885 322.203 70.6323 320.843 71.6022 320.296Z" fill="#0D1018"/>
<path d="M58.0744 325.428L57.144 325.718L59.5587 332.884L60.4839 332.596L62.0068 330.608L61.6889 329.664L60.2371 331.575L60.1544 331.601L58.0744 325.428Z" fill="#0D1018"/>
<path d="M52.2958 327.039C50.7917 327.507 50.0354 328.889 50.5173 330.319L50.5207 330.329C50.9842 331.705 52.373 332.403 53.7737 331.967C54.7816 331.654 55.3088 330.914 55.3853 330.243L55.4835 330.212C55.5019 330.267 55.522 330.326 55.5352 330.382C55.9821 331.895 55.8574 333.338 54.5032 333.759C53.7486 333.994 53.1011 333.784 52.6712 333.254L52.6321 333.206L51.6966 333.497L51.7338 333.556C52.3435 334.535 53.5115 334.951 54.7623 334.562C56.5713 333.999 57.149 332.24 56.3256 329.796L56.3223 329.786C55.4136 327.09 53.6603 326.615 52.2958 327.039ZM54.8262 328.99L54.8278 328.995C55.1424 329.929 54.6377 330.837 53.6712 331.138C52.7047 331.438 51.7708 330.972 51.4495 330.018L51.4462 330.008C51.1332 329.08 51.6367 328.117 52.5722 327.826C53.5181 327.532 54.5082 328.047 54.8262 328.99Z" fill="#0D1018"/>
<path d="M45.6955 329.093C44.0467 329.605 43.5413 331.359 44.3177 333.663L44.3211 333.673C45.0976 335.977 46.5752 337.109 48.224 336.596C49.8728 336.083 50.3695 334.337 49.5931 332.033L49.5897 332.023C48.8133 329.719 47.3443 328.58 45.6955 329.093ZM45.9582 329.872C47.0281 329.539 48.0384 330.487 48.6542 332.314L48.6576 332.324C49.2734 334.152 49.0295 335.478 47.9596 335.811C46.8897 336.144 45.8724 335.21 45.2566 333.382L45.2533 333.372C44.6375 331.545 44.8883 330.205 45.9582 329.872Z" fill="#0D1018"/>
<path d="M33.2453 332.984L32.2723 333.078L33.0618 340.572L34.0294 340.478L35.9539 338.843L35.85 337.856L34.0118 339.43L33.9253 339.439L33.2453 332.984Z" fill="#0D1018"/>
<path d="M29.6941 333.329L28.6725 333.428L25.9005 340.392L25.9919 341.259L31.1538 340.757L31.0657 339.921L26.893 340.327L26.8853 340.254L29.6941 333.329Z" fill="#0D1018"/>
<path d="M21.2489 333.972C19.5246 334.14 18.646 335.752 18.8999 338.161L18.901 338.172C19.1549 340.581 20.3513 341.986 22.0756 341.819C23.7998 341.651 24.6681 340.045 24.4142 337.635L24.4132 337.625C24.1593 335.216 22.9731 333.804 21.2489 333.972ZM21.3348 334.787C22.4536 334.678 23.2335 335.809 23.4348 337.72L23.4359 337.731C23.6373 339.642 23.108 340.889 21.9891 340.998C20.8703 341.107 20.0807 339.988 19.8793 338.077L19.8782 338.066C19.6769 336.155 20.2159 334.896 21.3348 334.787Z" fill="#0D1018"/>
<path d="M18.3901 57.6859L19.363 57.7805L20.1527 50.287L19.1852 50.1929L16.9586 51.4243L16.8546 52.4109L18.9839 51.2225L19.0703 51.231L18.3901 57.6859Z" fill="#4A4B4E"/>
<path d="M21.9413 58.0313L22.9629 58.1307L27.1312 51.8419L27.2226 50.9747L22.0607 50.4726L21.9726 51.3087L26.1454 51.7146L26.1377 51.7873L21.9413 58.0313Z" fill="#4A4B4E"/>
<path d="M30.3493 59.0276C32.0735 59.1953 33.2706 57.7851 33.5245 55.3755L33.5256 55.3651C33.7795 52.9555 32.9004 51.3486 31.1762 51.1809C29.4519 51.0132 28.2663 52.4193 28.0123 54.8288L28.0112 54.8392C27.7573 57.2488 28.625 58.8598 30.3493 59.0276ZM30.4352 58.2123C29.3163 58.1034 28.7882 56.8454 28.9896 54.9344L28.9907 54.924C29.1921 53.013 29.9708 51.8926 31.0897 52.0014C32.2086 52.1102 32.7486 53.3589 32.5472 55.2699L32.5461 55.2803C32.3448 57.1914 31.5541 58.3211 30.4352 58.2123Z" fill="#4A4B4E"/>
<path d="M41.3609 62.5758L42.2913 62.8653L44.7064 55.6997L43.7813 55.4119L41.3346 56.165L41.0166 57.1084L43.3587 56.3777L43.4414 56.4034L41.3609 62.5758Z" fill="#4A4B4E"/>
<path d="M47.0256 64.5247C48.5296 64.9927 49.9855 64.2989 50.4675 62.8688L50.4709 62.8589C50.9345 61.4834 50.2352 60.1356 48.8346 59.6999C47.8267 59.3863 46.948 59.689 46.4766 60.1897L46.3784 60.1592C46.3968 60.1046 46.4169 60.045 46.4405 59.9919C47.0011 58.515 47.9826 57.4158 49.3368 57.8371C50.0914 58.0719 50.4879 58.6067 50.5128 59.2783L50.515 59.3394L51.4505 59.6304L51.4568 59.561C51.56 58.4245 50.8674 57.43 49.6166 57.0408C47.8076 56.478 46.266 57.5785 45.4426 60.0216L45.4392 60.0316C44.5304 62.728 45.6611 64.1002 47.0256 64.5247ZM46.1655 61.5194L46.1672 61.5144C46.4818 60.5809 47.4451 60.1289 48.4116 60.4296C49.3781 60.7303 49.85 61.6343 49.5287 62.5877L49.5253 62.5976C49.2123 63.5262 48.2169 64.023 47.2814 63.732C46.3355 63.4377 45.8475 62.4629 46.1655 61.5194Z" fill="#4A4B4E"/>
<path d="M53.6258 66.5782C55.2746 67.0911 56.754 65.9549 57.5306 63.6508L57.5339 63.6408C58.3105 61.3367 57.8035 59.5879 56.1548 59.075C54.506 58.562 53.0386 59.6966 52.262 62.0006L52.2587 62.0106C51.4821 64.3147 51.977 66.0652 53.6258 66.5782ZM53.8886 65.7986C52.8187 65.4657 52.5782 64.129 53.1942 62.3016L53.1975 62.2917C53.8134 60.4643 54.8204 59.5267 55.8903 59.8596C56.9602 60.1924 57.2143 61.5224 56.5984 63.3498L56.5951 63.3597C55.9791 65.1871 54.9585 66.1314 53.8886 65.7986Z" fill="#4A4B4E"/>
<path d="M62.9187 70.8165L63.7621 71.292L67.7298 64.7961L66.8911 64.3232L64.3329 64.5512L63.8105 65.4066L66.2615 65.1786L66.3365 65.2209L62.9187 70.8165Z" fill="#4A4B4E"/>
<path d="M67.8435 73.7988C69.2163 74.5729 70.7538 74.2111 71.5539 72.9011L71.5594 72.8921C72.3266 71.6362 71.971 70.2072 70.7013 69.4913C70.0874 69.1452 69.4122 69.0853 68.8457 69.3529L68.7707 69.3106L70.3421 67.2432L73.4393 68.9894L73.8819 68.2646L70.1194 66.1433L67.4839 69.6745L68.2148 70.0866C68.3927 69.9811 68.5774 69.9158 68.7606 69.8738C69.2133 69.772 69.6772 69.858 70.1271 70.1116C71.0033 70.6056 71.2544 71.5764 70.7265 72.4407L70.721 72.4497C70.1848 73.3275 69.1897 73.5956 68.29 73.0884C67.4982 72.6419 67.2149 71.8165 67.5147 71.1504L67.532 71.1117L66.7214 70.6547L66.6959 70.7069C66.1591 71.8022 66.583 73.0882 67.8435 73.7988Z" fill="#4A4B4E"/>
<path d="M73.8176 77.167C75.3123 78.0097 77.012 77.2069 78.2879 75.1181L78.2934 75.1091C79.5692 73.0203 79.4669 71.2076 77.9722 70.3649C76.4775 69.5222 74.7899 70.3258 73.5141 72.4146L73.5086 72.4236C72.2328 74.5124 72.3229 76.3243 73.8176 77.167ZM74.2493 76.4603C73.2794 75.9134 73.3448 74.5584 74.3567 72.9017L74.3622 72.8927C75.374 71.2361 76.5679 70.5294 77.5378 71.0762C78.5077 71.623 78.4571 72.9744 77.4453 74.631L77.4398 74.64C76.4279 76.2966 75.2192 77.0071 74.2493 76.4603Z" fill="#4A4B4E"/>
<path d="M82.5743 82.4597L83.3321 83.0536L88.2874 77.2173L87.5339 76.6267L84.9695 76.4761L84.3171 77.2445L86.7755 77.3795L86.8429 77.4323L82.5743 82.4597Z" fill="#4A4B4E"/>
<path d="M87.8618 86.6037L88.6027 87.1843L89.6295 85.975L90.4925 86.6514L91.0454 86.0002L90.1824 85.3238L93.5581 81.348L92.4593 80.4869C90.5753 81.0378 88.4362 81.7324 86.4923 82.4116L85.9291 83.0749L88.8886 85.3943L87.8618 86.6037ZM87.2532 83.0349L87.2944 82.9863C88.8653 82.4325 90.6843 81.8508 92.1974 81.4065L92.2479 81.4461L89.4423 84.7505L87.2532 83.0349Z" fill="#4A4B4E"/>
<path d="M92.5526 90.509C93.8955 91.5615 95.7031 91.0179 97.2965 89.1413L97.3034 89.1332C98.8968 87.2565 99.0844 85.4501 97.7415 84.3976C96.3986 83.3451 94.6028 83.8912 93.0094 85.7679L93.0026 85.776C91.4092 87.6527 91.2097 89.4565 92.5526 90.509ZM93.0918 89.874C92.2203 89.191 92.5008 87.8616 93.7645 86.3731L93.7714 86.3651C95.0351 84.8766 96.3275 84.3537 97.1989 85.0367C98.0703 85.7196 97.8052 87.0476 96.5414 88.536L96.5346 88.5441C95.2708 90.0325 93.9632 90.5569 93.0918 89.874Z" fill="#4A4B4E"/>
<path d="M101.649 98.7821L102.292 99.4904L108.202 94.5417L107.563 93.8374L105.062 93.2729L104.283 93.9245L106.683 94.4564L106.74 94.5193L101.649 98.7821Z" fill="#4A4B4E"/>
<path d="M105.434 103.146C106.466 104.283 107.952 104.506 108.939 103.68L108.947 103.673C109.787 102.97 109.813 101.958 109.137 101.07L109.153 101.056C109.951 101.634 110.901 101.712 111.63 101.101L111.638 101.094C112.535 100.343 112.515 99.1065 111.534 98.0244C110.57 96.962 109.263 96.7685 108.219 97.4839L108.174 97.5143L108.792 98.195L108.836 98.1647C109.488 97.723 110.288 97.8904 110.895 98.5594C111.523 99.2519 111.52 99.9398 110.902 100.458L110.894 100.465C110.304 100.958 109.441 100.85 108.827 100.173L108.21 99.4922L107.587 100.013L108.233 100.726C108.954 101.52 109.002 102.36 108.277 102.967L108.269 102.974C107.643 103.498 106.748 103.354 106.073 102.611C105.388 101.855 105.322 101.003 105.853 100.461L105.891 100.423L105.273 99.7425L105.228 99.7876C104.362 100.644 104.371 101.973 105.434 103.146Z" fill="#4A4B4E"/>
<path d="M109.948 108.201C111.087 109.456 112.964 109.213 114.864 107.622L114.873 107.615C116.773 106.024 117.275 104.274 116.137 103.019C114.998 101.764 113.132 102.011 111.232 103.602L111.223 103.609C109.323 105.2 108.81 106.945 109.948 108.201ZM110.591 107.662C109.852 106.848 110.362 105.583 111.87 104.321L111.878 104.314C113.385 103.052 114.751 102.746 115.489 103.561C116.228 104.375 115.734 105.641 114.226 106.903L114.218 106.91C112.711 108.172 111.33 108.477 110.591 107.662Z" fill="#4A4B4E"/>
<path d="M116.48 118.257L117.023 119.038L123.545 114.859L123.005 114.082L120.6 113.214L119.742 113.764L122.05 114.587L122.098 114.657L116.48 118.257Z" fill="#4A4B4E"/>
<path d="M118.28 120.849L121.095 124.905L121.828 124.436L119.766 121.465L119.838 121.419L122.359 121.862C124.362 122.216 125.118 122.177 125.864 121.699L125.873 121.693C126.926 121.018 127.117 119.685 126.357 118.591C125.525 117.392 124.097 117.065 122.937 117.802L122.938 117.814L123.452 118.564L123.464 118.562C124.233 118.07 125.09 118.242 125.612 118.993C126.124 119.731 125.919 120.509 125.232 120.949L125.223 120.955C124.654 121.32 124.152 121.302 122.698 121.08L118.84 120.49L118.28 120.849Z" fill="#4A4B4E"/>
<path d="M123.308 128.412C124.27 129.797 126.164 129.788 128.261 128.444L128.27 128.439C130.367 127.095 131.099 125.421 130.137 124.036C129.176 122.651 127.292 122.666 125.195 124.009L125.186 124.015C123.089 125.359 122.347 127.027 123.308 128.412ZM124.018 127.957C123.394 127.059 124.069 125.867 125.732 124.801L125.741 124.795C127.404 123.73 128.799 123.595 129.423 124.494C130.047 125.392 129.388 126.587 127.724 127.653L127.715 127.658C126.052 128.724 124.642 128.856 124.018 127.957Z" fill="#4A4B4E"/>
<path d="M128.395 139.456L128.748 140.332L136.058 137.608L135.706 136.737L133.554 135.39L132.591 135.748L134.66 137.032L134.691 137.11L128.395 139.456Z" fill="#4A4B4E"/>
<path d="M130.261 144.079L130.615 144.955L137.924 142.232L137.572 141.361L135.42 140.013L134.457 140.371L136.526 141.655L136.557 141.733L130.261 144.079Z" fill="#4A4B4E"/>
<path d="M132.21 149.399C132.837 150.951 134.688 151.336 137.038 150.461L137.048 150.457C139.399 149.581 140.49 148.1 139.864 146.547C139.237 144.995 137.395 144.618 135.045 145.493L135.035 145.497C132.684 146.373 131.584 147.846 132.21 149.399ZM133.005 149.103C132.599 148.095 133.526 147.072 135.39 146.378L135.4 146.374C137.264 145.68 138.657 145.838 139.063 146.845C139.47 147.853 138.557 148.882 136.693 149.576L136.683 149.58C134.819 150.274 133.412 150.11 133.005 149.103Z" fill="#4A4B4E"/>
<path d="M135.574 161.238L135.721 162.167L143.472 161.036L143.326 160.113L141.53 158.347L140.51 158.496L142.238 160.182L142.251 160.264L135.574 161.238Z" fill="#4A4B4E"/>
<path d="M136.273 166.838C136.533 168.484 138.252 169.247 140.745 168.884L140.755 168.882C143.248 168.518 144.649 167.3 144.389 165.654C144.128 164.008 142.416 163.255 139.924 163.618L139.913 163.62C137.421 163.984 136.013 165.192 136.273 166.838ZM137.116 166.715C136.947 165.647 138.084 164.842 140.06 164.554L140.071 164.552C142.048 164.264 143.371 164.71 143.54 165.778C143.709 166.846 142.584 167.66 140.608 167.948L140.597 167.95C138.62 168.238 137.285 167.783 137.116 166.715Z" fill="#4A4B4E"/>
<path d="M137.325 173.495C137.585 175.141 139.305 175.904 141.797 175.541L141.808 175.539C144.3 175.175 145.701 173.957 145.441 172.311C145.181 170.665 143.468 169.912 140.976 170.275L140.965 170.277C138.473 170.64 137.065 171.849 137.325 173.495ZM138.168 173.372C137.999 172.304 139.136 171.499 141.113 171.211L141.123 171.209C143.1 170.921 144.423 171.367 144.592 172.435C144.761 173.503 143.637 174.317 141.66 174.605L141.649 174.606C139.673 174.895 138.337 174.44 138.168 173.372Z" fill="#4A4B4E"/>
<path d="M145.961 185.237C145.961 183.718 144.826 182.601 143.261 182.601H143.251C141.746 182.601 140.626 183.656 140.626 185.07C140.626 186.088 141.197 186.798 141.838 187.075V187.174C141.778 187.174 141.713 187.174 141.653 187.169C140.018 187.111 138.627 186.553 138.627 185.185C138.627 184.423 139.035 183.896 139.692 183.666L139.752 183.645V182.701L139.681 182.716C138.524 182.972 137.753 183.911 137.753 185.175C137.753 187.001 139.317 188.072 141.99 188.072H142.001C144.951 188.072 145.961 186.615 145.961 185.237ZM141.479 185.232C141.479 184.256 142.229 183.546 143.272 183.546H143.283C144.299 183.546 145.098 184.303 145.098 185.248C145.098 186.203 144.283 186.949 143.251 186.949H143.245C142.224 186.949 141.479 186.208 141.479 185.232Z" fill="#4A4B4E"/>
<path d="M137.753 192.101C137.753 193.766 139.333 194.768 141.854 194.768H141.865C144.386 194.768 145.961 193.766 145.961 192.101C145.961 190.436 144.386 189.444 141.865 189.444H141.854C139.333 189.444 137.753 190.436 137.753 192.101ZM138.606 192.101C138.606 191.021 139.855 190.389 141.854 190.389H141.865C143.864 190.389 145.103 191.021 145.103 192.101C145.103 193.181 143.864 193.823 141.865 193.823H141.854C139.855 193.823 138.606 193.181 138.606 192.101Z" fill="#4A4B4E"/>
<path d="M135.841 208.544C135.592 210.123 136.338 211.382 137.638 211.572L137.648 211.573C138.605 211.713 139.501 211.184 139.883 210.263L139.905 210.266C140.039 211.12 140.602 211.73 141.418 211.849L141.429 211.85C142.6 212.021 143.627 211.12 143.85 209.711C144.072 208.303 143.37 207.149 142.199 206.979L142.188 206.977C141.372 206.858 140.646 207.28 140.254 208.057L140.232 208.054C140.152 207.066 139.459 206.305 138.503 206.165L138.492 206.164C137.192 205.974 136.091 206.964 135.841 208.544ZM140.439 209.214C140.581 208.316 141.21 207.78 141.962 207.889L141.972 207.891C142.724 208 143.159 208.692 143.017 209.59C142.875 210.488 142.247 211.024 141.495 210.915L141.484 210.913C140.732 210.804 140.297 210.112 140.439 209.214ZM136.684 208.667C136.847 207.64 137.564 206.995 138.402 207.117L138.413 207.118C139.261 207.242 139.753 208.058 139.59 209.09C139.427 210.122 138.705 210.761 137.857 210.638L137.846 210.636C137.008 210.514 136.522 209.693 136.684 208.667Z" fill="#4A4B4E"/>
<path d="M134.729 215.234C134.469 216.88 135.876 218.099 138.368 218.462L138.379 218.464C140.871 218.827 142.585 218.064 142.845 216.417C143.105 214.771 141.703 213.564 139.21 213.2L139.2 213.199C136.707 212.835 134.989 213.588 134.729 215.234ZM135.573 215.357C135.741 214.289 137.075 213.845 139.052 214.133L139.063 214.134C141.039 214.423 142.165 215.226 141.997 216.294C141.828 217.362 140.503 217.818 138.526 217.53L138.516 217.528C136.539 217.24 135.404 216.425 135.573 215.357Z" fill="#4A4B4E"/>
<path d="M131.704 228.802L131.333 229.722L136.534 235.254L137.38 235.57L139.257 230.922L138.441 230.618L136.924 234.375L136.853 234.349L131.704 228.802Z" fill="#4A4B4E"/>
<path d="M128.469 236.324C127.842 237.877 128.939 239.36 131.289 240.236L131.299 240.24C133.649 241.116 135.496 240.729 136.122 239.176C136.749 237.624 135.653 236.152 133.303 235.276L133.293 235.273C130.943 234.397 129.096 234.772 128.469 236.324ZM129.264 236.621C129.671 235.613 131.073 235.459 132.937 236.153L132.948 236.157C134.812 236.852 135.729 237.871 135.322 238.878C134.915 239.886 133.519 240.054 131.655 239.359L131.645 239.355C129.781 238.661 128.857 237.628 129.264 236.621Z" fill="#4A4B4E"/>
<path d="M121.73 250.953C120.853 252.217 121.152 253.752 122.454 254.586L122.463 254.592C123.715 255.394 125.255 255.113 126.072 253.936C126.66 253.09 126.595 252.195 126.222 251.623L126.279 251.541C126.329 251.572 126.383 251.607 126.43 251.643C127.757 252.563 128.591 253.769 127.802 254.907C127.362 255.541 126.718 255.762 126.039 255.603L125.977 255.588L125.431 256.374L125.499 256.399C126.609 256.803 127.794 256.432 128.523 255.381C129.578 253.862 128.895 252.137 126.671 250.713L126.662 250.707C124.208 249.134 122.526 249.807 121.73 250.953ZM124.974 250.974L124.979 250.977C125.828 251.522 126.02 252.535 125.456 253.347C124.892 254.159 123.859 254.35 122.991 253.794L122.982 253.788C122.136 253.247 121.909 252.191 122.455 251.405C123.006 250.611 124.115 250.424 124.974 250.974Z" fill="#4A4B4E"/>
<path d="M117.881 256.499C116.919 257.884 117.656 259.561 119.753 260.904L119.762 260.91C121.859 262.254 123.749 262.26 124.71 260.875C125.672 259.489 124.934 257.825 122.837 256.481L122.827 256.475C120.73 255.131 118.842 255.114 117.881 256.499ZM118.59 256.953C119.214 256.055 120.619 256.195 122.282 257.261L122.291 257.267C123.954 258.333 124.62 259.518 123.996 260.417C123.372 261.316 121.971 261.19 120.308 260.124L120.298 260.118C118.635 259.053 117.966 257.852 118.59 256.953Z" fill="#4A4B4E"/>
<path d="M107.54 272.067C106.494 273.22 106.58 274.739 107.772 275.736L107.78 275.743C108.923 276.7 110.45 276.629 111.417 275.562C111.885 275.047 112.071 274.421 111.902 273.836L111.959 273.773L113.783 275.639L111.424 278.24L112.083 278.793L114.949 275.633L111.825 272.491L111.268 273.105C111.343 273.292 111.376 273.479 111.385 273.659C111.405 274.106 111.232 274.528 110.889 274.906C110.222 275.641 109.182 275.699 108.396 275.04L108.388 275.034C107.589 274.365 107.499 273.376 108.184 272.62C108.787 271.955 109.684 271.84 110.31 272.247L110.346 272.27L110.964 271.59L110.915 271.556C109.894 270.846 108.5 271.009 107.54 272.067Z" fill="#4A4B4E"/>
<path d="M102.989 277.084C101.851 278.34 102.357 280.093 104.258 281.684L104.266 281.691C106.166 283.282 108.039 283.521 109.178 282.266C110.317 281.01 109.807 279.268 107.907 277.677L107.898 277.67C105.998 276.079 104.128 275.829 102.989 277.084ZM103.632 277.623C104.371 276.808 105.745 277.121 107.252 278.383L107.261 278.389C108.768 279.651 109.27 280.909 108.531 281.724C107.792 282.539 106.419 282.241 104.912 280.979L104.904 280.972C103.397 279.71 102.894 278.437 103.632 277.623Z" fill="#4A4B4E"/>
<path d="M91.0452 288.811L90.3044 289.391L91.3313 290.601L90.4683 291.277L91.0212 291.928L91.8842 291.252L95.2602 295.227L96.3589 294.366C96.1755 292.482 95.8968 290.329 95.5946 288.364L95.0314 287.7L92.0721 290.02L91.0452 288.811ZM94.8064 288.955L94.8476 289.003C95.0968 290.593 95.3247 292.422 95.4738 293.935L95.4233 293.975L92.6174 290.67L94.8064 288.955Z" fill="#4A4B4E"/>
<path d="M86.1212 292.441C84.7784 293.494 84.9696 295.304 86.5632 297.181L86.57 297.189C88.1636 299.066 89.9678 299.605 91.3106 298.552C92.6534 297.5 92.4573 295.7 90.8637 293.823L90.8568 293.815C89.2633 291.939 87.4641 291.389 86.1212 292.441ZM86.6604 293.076C87.5318 292.393 88.8311 292.924 90.0949 294.413L90.1018 294.421C91.3656 295.909 91.6393 297.23 90.768 297.913C89.8966 298.596 88.5958 298.08 87.3319 296.592L87.3251 296.584C86.0612 295.095 85.7891 293.759 86.6604 293.076Z" fill="#4A4B4E"/>
<path d="M72.22 301.952C70.8659 302.715 70.3621 304.077 71.0249 305.161L71.0304 305.17C71.5941 306.093 72.6244 306.305 73.6578 305.831L73.6688 305.849C72.9299 306.496 72.6751 307.378 73.1646 308.179L73.1701 308.188C73.7723 309.174 75.0411 309.385 76.3296 308.658C77.5946 307.945 78.0344 306.747 77.4959 305.628L77.4731 305.58L76.6625 306.037L76.6853 306.085C77.0165 306.782 76.6971 307.507 75.9006 307.956C75.076 308.421 74.3729 308.291 73.9576 307.611L73.9521 307.602C73.5561 306.954 73.8269 306.16 74.6328 305.705L75.4433 305.248L75.0253 304.564L74.1773 305.042C73.2308 305.576 72.3636 305.466 71.8768 304.669L71.8713 304.66C71.4506 303.971 71.7635 303.153 72.649 302.654C73.5486 302.147 74.4319 302.242 74.888 302.844L74.9201 302.886L75.7307 302.429L75.693 302.378C74.977 301.402 73.6162 301.164 72.22 301.952Z" fill="#4A4B4E"/>
<path d="M66.214 305.278C64.7194 306.121 64.62 307.938 65.896 310.027L65.9015 310.036C67.1775 312.124 68.8746 312.922 70.3692 312.08C71.8638 311.237 71.9566 309.429 70.6806 307.341L70.6751 307.332C69.3991 305.243 67.7086 304.435 66.214 305.278ZM66.6457 305.985C67.6156 305.438 68.815 306.153 69.827 307.81L69.8325 307.819C70.8445 309.475 70.9046 310.822 69.9347 311.368C68.9649 311.915 67.7616 311.214 66.7496 309.557L66.7441 309.548C65.7321 307.892 65.6759 306.532 66.6457 305.985Z" fill="#4A4B4E"/>
<path d="M53.8682 311.426L49.0407 312.928L49.3118 313.732L52.8471 312.633L52.8739 312.712L51.7459 314.923C50.847 316.678 50.6809 317.388 50.957 318.208L50.9603 318.218C51.3502 319.375 52.6339 319.914 53.9364 319.508C55.363 319.065 56.0784 317.833 55.6552 316.56L55.6432 316.558L54.7525 316.83L54.7507 316.841C55.0352 317.685 54.6299 318.431 53.7357 318.71C52.857 318.983 52.1339 318.582 51.8795 317.828L51.8762 317.818C51.6654 317.192 51.819 316.733 52.437 315.449L54.0757 312.042L53.8682 311.426Z" fill="#4A4B4E"/>
<path d="M44.9264 314.021C43.2777 314.534 42.7722 316.288 43.5487 318.592L43.552 318.602C44.3285 320.906 45.8062 322.037 47.455 321.525C49.1038 321.012 49.6005 319.266 48.824 316.962L48.8207 316.952C48.0442 314.648 46.5752 313.508 44.9264 314.021ZM45.1892 314.801C46.2591 314.468 47.2694 315.416 47.8852 317.243L47.8885 317.253C48.5043 319.08 48.2605 320.407 47.1906 320.74C46.1207 321.073 45.1034 320.138 44.4876 318.311L44.4842 318.301C43.8684 316.474 44.1193 315.134 45.1892 314.801Z" fill="#4A4B4E"/>
<path d="M28.3048 319.027L27.3319 319.122L28.1214 326.615L29.0889 326.521L31.0135 324.886L30.9096 323.899L29.0714 325.474L28.9849 325.482L28.3048 319.027Z" fill="#4A4B4E"/>
<path d="M22.4487 319.418C20.7244 319.586 19.8459 321.198 20.0997 323.608L20.1008 323.618C20.3547 326.028 21.5512 327.433 23.2754 327.265C24.9996 327.097 25.8679 325.491 25.6141 323.082L25.613 323.071C25.3591 320.662 24.1729 319.251 22.4487 319.418ZM22.5346 320.234C23.6534 320.125 24.4333 321.256 24.6347 323.167L24.6357 323.177C24.8371 325.088 24.3078 326.336 23.1889 326.445C22.0701 326.553 21.2805 325.434 21.0792 323.523L21.0781 323.513C20.8767 321.601 21.4157 320.342 22.5346 320.234Z" fill="#4A4B4E"/>
<path d="M3.23464 321.256C1.50159 321.256 0.458496 322.775 0.458496 325.197V325.207C0.458496 327.629 1.50159 329.143 3.23464 329.143C4.96769 329.143 5.99992 327.629 5.99992 325.207V325.197C5.99992 322.775 4.96769 321.256 3.23464 321.256ZM3.23464 322.076C4.35922 322.076 5.01659 323.276 5.01659 325.197V325.207C5.01659 327.128 4.35922 328.318 3.23464 328.318C2.11006 328.318 1.44183 327.128 1.44183 325.207V325.197C1.44183 323.276 2.11006 322.076 3.23464 322.076Z" fill="#4A4B4E"/>
</g>
<defs>
<clipPath id="clip0_50_344">
<rect width="378" height="197" fill="white" transform="translate(197) rotate(90)"/>
</clipPath>
</defs>
</svg>
