<svg width="25" height="25" viewBox="0 0 25 25" fill="none" xmlns="http://www.w3.org/2000/svg">
<path fill-rule="evenodd" clip-rule="evenodd" d="M0.433801 20.1778L4.77566 24.5212C5.51707 25.1925 5.92097 25.1567 6.6222 24.4214L24.5636 6.49837C25.134 5.82649 25.1568 5.44431 24.5636 4.75101L20.2716 0.357623C19.679 -0.131573 19.3575 -0.10668 18.7994 0.357623L17.8026 1.35203L20.3599 3.91128C20.4768 4.02828 20.4758 4.21889 20.3589 4.33585C20.2419 4.4528 20.0514 4.45371 19.9345 4.3367L17.3767 1.77697L16.5393 2.6124L17.8039 3.878C17.9208 3.99501 17.9192 4.18626 17.8022 4.30321C17.6853 4.42017 17.4941 4.42172 17.3772 4.30472L16.1123 3.0389L16.354 2.79722L14.0015 5.14425L15.2596 6.40332C15.3765 6.52032 15.3762 6.71025 15.2592 6.82721C15.1423 6.94417 14.9524 6.9444 14.8355 6.82739L13.5772 5.56817L13.8725 5.27289L12.7264 6.41632L14.021 7.71192C14.1379 7.82892 14.1376 8.01885 14.0207 8.13581C13.9037 8.25277 13.7138 8.25299 13.5969 8.13599L12.302 6.84003L12.4186 6.72337L11.4669 7.67287L14.0216 10.2296C14.1385 10.3466 14.1369 10.5378 14.02 10.6548C13.903 10.7717 13.7118 10.7733 13.5949 10.6563L11.0397 8.09909L10.189 8.94775L11.4517 10.2114C11.5686 10.3284 11.567 10.5196 11.45 10.6366C11.333 10.7535 11.1419 10.7551 11.025 10.6381L9.76215 9.37432L10.072 9.06451L7.65793 11.4729L10.216 14.0329C10.3329 14.1499 10.331 14.3415 10.214 14.4584C10.097 14.5754 9.90555 14.5772 9.78864 14.4602L7.2303 11.8999L7.41362 11.7166L6.39293 12.7349L7.67262 14.0156C7.78953 14.1326 7.78949 14.3223 7.67253 14.4392C7.55557 14.5562 7.36598 14.5561 7.24906 14.4391L5.96921 13.1583L6.25486 12.8727L5.11858 14.0063L6.42724 15.3159C6.54415 15.4329 6.54411 15.6226 6.42715 15.7396C6.31019 15.8565 6.1206 15.8565 6.00368 15.7395L4.695 14.4298L5.09693 14.0279L3.84416 15.2777L6.43284 17.8684C6.54975 17.9854 6.54971 18.175 6.43275 18.292C6.31579 18.4089 6.1262 18.4089 6.00928 18.2919L3.42011 15.7007L0.433801 18.68C-0.0877229 19.2308 -0.198817 19.5399 0.433801 20.1778ZM8.92096 10.2136L8.50082 10.6337L9.79147 11.9254C9.90744 12.0414 10.0955 12.0415 10.2115 11.9255C10.3275 11.8094 10.3276 11.6213 10.2116 11.5052L8.92096 10.2136ZM14.84 4.31217L15.2667 3.88545L17.8199 6.44061C17.9368 6.55761 17.9352 6.74886 17.8182 6.86582C17.7013 6.98278 17.5101 6.98432 17.3932 6.86732L14.84 4.31217ZM4.30156 22.2996C5.12844 22.2996 5.79875 21.629 5.79875 20.8018C5.79875 19.9747 5.12844 19.3041 4.30156 19.3041C3.47468 19.3041 2.80437 19.9747 2.80437 20.8018C2.80437 21.629 3.47468 22.2996 4.30156 22.2996Z" fill="#4A4B4E"/>
</svg>
