<svg width="14" height="18" viewBox="0 0 14 18" fill="none" xmlns="http://www.w3.org/2000/svg">
<path d="M2.65658 18H11.3434C13.0955 18 14 17.0614 14 15.2672V7.72497C14 6.56207 13.8533 6.03046 13.1444 5.29119L8.88242 0.88048C8.18976 0.166128 7.61932 0 6.59255 0H2.65658C0.912689 0 0 0.938625 0 2.74112V15.2672C0 17.0614 0.912689 18 2.65658 18ZM2.79511 16.3387C2.01281 16.3387 1.62165 15.9234 1.62165 15.1592V2.84079C1.62165 2.08491 2.01281 1.66128 2.80326 1.66128H6.25844V6.17997C6.25844 7.3844 6.83702 7.96585 8.01048 7.96585H12.3783V15.1592C12.3783 15.9234 11.9872 16.3387 11.1967 16.3387H2.79511ZM8.16531 6.51223C7.82305 6.51223 7.67637 6.36271 7.67637 6.02215V1.87725L12.1583 6.51223H8.16531ZM9.86845 10.1421H3.98487C3.6752 10.1421 3.45518 10.3664 3.45518 10.6571C3.45518 10.9562 3.6752 11.1887 3.98487 11.1887H9.86845C10.1618 11.1887 10.3818 10.9562 10.3818 10.6571C10.3818 10.3664 10.1618 10.1421 9.86845 10.1421ZM9.86845 12.9165H3.98487C3.6752 12.9165 3.45518 13.1491 3.45518 13.4481C3.45518 13.7388 3.6752 13.9631 3.98487 13.9631H9.86845C10.1618 13.9631 10.3818 13.7388 10.3818 13.4481C10.3818 13.1491 10.1618 12.9165 9.86845 12.9165Z" fill="#0D1018"/>
</svg>
