<?xml version="1.0" encoding="UTF-8"?>
<!DOCTYPE svg PUBLIC "-//W3C//DTD SVG 1.1//EN" "http://www.w3.org/Graphics/SVG/1.1/DTD/svg11.dtd">
<!-- Creator: CorelDRAW 2021.5 -->
<svg xmlns="http://www.w3.org/2000/svg" xml:space="preserve" width="949px" height="949px" version="1.1" style="shape-rendering:geometricPrecision; text-rendering:geometricPrecision; image-rendering:optimizeQuality; fill-rule:evenodd; clip-rule:evenodd"
viewBox="0 0 218.33 218.18"
 xmlns:xlink="http://www.w3.org/1999/xlink"
 xmlns:xodm="http://www.corel.com/coreldraw/odm/2003">
 <defs>
  <style type="text/css">
   <![CDATA[
    .fil4 {fill:none}
    .fil2 {fill:#20222B}
    .fil0 {fill:#4A4B4E}
    .fil1 {fill:#76D6FF}
    .fil3 {fill:#20222B;fill-rule:nonzero}
   ]]>
  </style>
   <clipPath id="id0">
    <path d="M138.7 42.79l37.37 0 0 -37.37 -37.37 0 0 37.37z"/>
   </clipPath>
 </defs>
 <g id="Layer_x0020_1">
  <metadata id="CorelCorpID_0Corel-Layer"/>
  <path class="fil0" d="M70.47 66.57c-0.85,0.42 -2.01,1.31 -2.58,1.97 -1.82,2.13 -1.95,2.94 -1.95,12.2l0 8.28 -6.98 0c-7.44,0 -9.23,0.22 -11.57,1.4 -4.24,2.13 -6.45,6.05 -6.45,11.42l0 2.58 -1.47 0.17c-2.75,0.33 -5.33,2.29 -6.55,4.97 -0.49,1.11 -0.6,1.97 -0.61,4.95 0,3.95 0.34,5.45 1.67,7.19l0.77 1.01 -0.61 0.65c-1.39,1.48 -1.82,3.1 -1.83,6.93 0,3.95 0.34,5.45 1.68,7.2 1.09,1.43 3.2,2.68 5.22,3.1l1.73 0.36 0 21.98 0 21.99 0.73 0.73c0.4,0.4 0.94,0.73 1.19,0.73 0.37,0 0.46,0.4 0.46,2.05 0,1.94 -0.04,2.06 -0.74,2.24 -1.59,0.4 -1.71,1.02 -1.58,8.43 0.12,6.49 0.16,6.87 0.91,8.79 1.73,4.41 5.01,7.71 9.51,9.55l1.57 0.65 54.62 0.08c38.27,0.05 55.09,-0.02 56.18,-0.25 3.9,-0.81 8.35,-4.25 10.31,-7.98 2.04,-3.89 1.97,-2.41 1.97,-37.42l0 -31.57 1.73 -0.36c3.07,-0.64 5.58,-2.81 6.56,-5.69 0.48,-1.39 0.42,-7.63 -0.08,-9.04 -0.22,-0.61 -0.75,-1.58 -1.19,-2.15l-0.79 -1.04 0.86 -1.27c1.31,-1.94 1.55,-2.99 1.54,-6.89 -0.01,-2.98 -0.11,-3.84 -0.61,-4.95 -1.21,-2.68 -3.79,-4.64 -6.55,-4.97l-1.47 -0.17 0 -2.43c0,-5.46 -2.22,-9.44 -6.46,-11.58 -2.32,-1.17 -4.13,-1.39 -11.56,-1.39l-6.98 0 0 -8.23c0,-5.25 -0.12,-8.63 -0.34,-9.35 -0.54,-1.8 -2.3,-3.88 -4.1,-4.81 -1.6,-0.84 -1.63,-0.84 -6.54,-0.76l-4.93 0.08 -0.6 0.95c-0.58,0.92 -0.68,0.96 -2.54,0.96 -1.85,0 -1.96,-0.04 -2.53,-0.96l-0.61 -0.95 -28.43 -0.08 -28.43 -0.07 -1.55 0.77zm63.93 19.18l0 3.27 -25.89 0 -25.9 0 0 -3.27 0 -3.28 25.9 0 25.89 0 0 3.28z"/>
  <path class="fil1" d="M70.47 66.57c-0.85,0.42 -2.01,1.31 -2.58,1.97 -1.82,2.13 -1.95,2.94 -1.95,12.2l0 8.28 -6.98 0c-7.44,0 -9.23,0.22 -11.57,1.4 -4.24,2.13 -6.45,6.05 -6.45,11.42l0 2.58 -1.47 0.17c-2.75,0.33 -5.33,2.29 -6.55,4.97 -0.49,1.11 -0.6,1.97 -0.61,4.95 0,3.95 0.34,5.45 1.67,7.19l0.77 1.01 -0.61 0.65c-1.39,1.48 -1.82,3.1 -1.83,6.93 0,3.95 0.34,5.45 1.68,7.2 1.09,1.43 3.2,2.68 5.22,3.1l1.73 0.36 0 21.98 0 21.99 0.76 0.76c0.42,0.42 0.98,0.7 1.26,0.63 0.45,-0.12 0.51,0.15 0.51,2.15 0,2.01 -0.06,2.27 -0.51,2.16 -0.28,-0.08 -0.85,0.21 -1.29,0.65l-0.79 0.79 0.12 6.91c0.12,6.63 0.15,6.99 0.91,8.92 1.73,4.41 5.01,7.71 9.51,9.55l1.57 0.65 54.62 0.08c38.27,0.05 55.09,-0.02 56.18,-0.25 3.9,-0.81 8.35,-4.25 10.31,-7.98 2.04,-3.89 1.97,-2.41 1.97,-37.42l0 -31.57 1.73 -0.36c3.07,-0.64 5.58,-2.81 6.56,-5.69 0.48,-1.39 0.42,-7.63 -0.08,-9.04 -0.22,-0.61 -0.75,-1.58 -1.19,-2.15l-0.79 -1.04 0.86 -1.27c1.31,-1.94 1.55,-2.99 1.54,-6.89 -0.01,-2.98 -0.11,-3.84 -0.61,-4.95 -1.21,-2.68 -3.79,-4.64 -6.55,-4.97l-1.47 -0.17 0 -2.43c0,-5.46 -2.22,-9.44 -6.46,-11.58 -2.32,-1.17 -4.13,-1.39 -11.56,-1.39l-6.98 0 0 -8.23c0,-5.25 -0.12,-8.63 -0.34,-9.35 -0.54,-1.8 -2.3,-3.88 -4.1,-4.81 -1.6,-0.84 -1.64,-0.84 -6.51,-0.76l-4.91 0.08 -0.59 0.78c-0.51,0.69 -0.54,0.92 -0.23,1.87 0.2,0.59 0.61,1.21 0.91,1.37 0.3,0.16 2.2,0.29 4.22,0.3 4.06,0 5.19,0.33 6.32,1.88 0.59,0.8 0.62,1.21 0.62,8.93l0 8.09 -1.34 0.1c-0.74,0.05 -2.45,0.01 -3.8,-0.1l-2.45 -0.2 0 -4.89c0,-4.49 -0.05,-4.93 -0.6,-5.48 -0.58,-0.59 -0.99,-0.59 -29.76,-0.59 -28.78,0 -29.18,0 -29.77,0.59 -0.55,0.55 -0.59,0.99 -0.59,5.66l0 5.06 -2.16 0c-1.19,0 -2.86,-0.09 -3.72,-0.19l-1.57 -0.19 0 -8.12 0 -8.13 0.77 -0.9c0.42,-0.5 1.25,-1.05 1.86,-1.22 0.71,-0.19 10.61,-0.31 28.03,-0.31 29.4,-0.02 27.67,0.09 28.32,-1.77 0.29,-0.82 0.25,-1.07 -0.26,-1.75l-0.59 -0.79 -28.41 -0.08 -28.4 -0.07 -1.55 0.77zm63.93 19.18l0 3.27 -25.89 0 -25.9 0 0 -3.27 0 -3.28 25.9 0 25.89 0 0 3.28zm-88.78 17.79c-0.06,0.61 -0.12,0.11 -0.12,-1.12 0,-1.23 0.06,-1.73 0.12,-1.12 0.06,0.62 0.06,1.62 0,2.24zm125.91 0c-0.07,0.61 -0.12,0.11 -0.12,-1.12 0,-1.23 0.05,-1.73 0.12,-1.12 0.06,0.62 0.06,1.62 0,2.24zm6.68 6.12c1.44,0.98 1.84,1.93 1.96,4.67 0.13,2.95 -0.34,4.18 -1.98,5.28l-1.01 0.67 -68.49 0c-64.62,0 -68.55,-0.03 -69.52,-0.52 -1.84,-0.94 -2.25,-1.84 -2.25,-4.93 0,-2.92 0.42,-4.11 1.75,-4.99 1.04,-0.69 7.06,-0.75 74.75,-0.74 61.37,0.02 64.03,0.04 64.79,0.56zm-122.09 20.75l0 5.65 -7.96 0c-8.76,0 -9.32,-0.1 -10.62,-1.88 -0.52,-0.71 -0.62,-1.28 -0.62,-3.57 0,-2.92 0.42,-4.11 1.75,-4.99 0.61,-0.41 4.3,-0.62 14.25,-0.81l3.2 -0.06 0 5.66zm71.14 0l0 5.65 -18.75 0 -18.76 0 0 -5.65 0 -5.66 18.76 0 18.75 0 0 5.66zm50.78 -5.01c1.47,0.81 1.99,1.89 2.14,4.44 0.16,2.69 -0.21,4.02 -1.45,5.21l-0.91 0.86 -8.46 0.09 -8.47 0.09 0 -5.69 0 -5.69 8.12 0.1c6.95,0.07 8.24,0.16 9.03,0.59zm-101.33 7.31c-2.17,0.05 -5.66,0.05 -7.73,0 -2.08,-0.05 -0.3,-0.09 3.96,-0.09 4.25,0 5.95,0.04 3.77,0.09zm71.14 0c-2.17,0.05 -5.66,0.05 -7.74,0 -2.07,-0.05 -0.29,-0.09 3.97,-0.09 4.25,0 5.95,0.04 3.77,0.09zm-84.07 12.94c-0.05,2.18 -0.09,0.48 -0.09,-3.78 0,-4.26 0.04,-6.04 0.09,-3.96 0.05,2.07 0.05,5.56 0,7.74zm71.14 0c-0.05,2.18 -0.09,0.48 -0.09,-3.78 0,-4.26 0.04,-6.04 0.09,-3.96 0.05,2.07 0.05,5.56 0,7.74zm-52.68 0.03c-0.05,2 -0.1,0.28 -0.1,-3.81 0,-4.1 0.05,-5.73 0.1,-3.63 0.05,2.1 0.05,5.45 0,7.44zm71.14 0c-0.05,2 -0.1,0.28 -0.1,-3.81 0,-4.1 0.05,-5.73 0.1,-3.63 0.05,2.1 0.05,5.45 0,7.44zm-75.83 -3.81l0 4.61 -4.61 0 -4.62 0 0 -4.61 0 -4.62 4.62 0 4.61 0 0 4.62zm71.14 0l0 4.61 -4.61 0 -4.62 0 0 -4.61 0 -4.62 4.62 0 4.61 0 0 4.62zm-97.71 -1.12l-5.28 0.09 -0.07 21.95 -0.07 21.95 -0.08 -21.73c-0.05,-11.96 -0.02,-21.9 0.06,-22.11 0.11,-0.28 1.42,-0.36 5.44,-0.31l5.29 0.07 -5.29 0.09zm66.98 0c-5.2,0.05 -13.71,0.05 -18.9,0 -5.2,-0.04 -0.95,-0.08 9.45,-0.08 10.39,0 14.64,0.04 9.45,0.08zm53.5 30.97l0 31.03 -0.07 -30.95 -0.08 -30.96 -5.21 -0.09 -5.21 -0.09 5.29 0.01 5.28 0.01 0 31.04zm-94.71 -20.55c-2,0.05 -5.35,0.05 -7.44,0 -2.1,-0.05 -0.47,-0.09 3.63,-0.09 4.09,0 5.81,0.04 3.81,0.09zm71.14 0c-2,0.05 -5.35,0.05 -7.44,0 -2.1,-0.05 -0.47,-0.09 3.63,-0.09 4.09,0 5.8,0.04 3.81,0.09zm-88.79 4.69c0.38,0.41 0.63,0.75 0.55,0.75 -0.09,0 -0.47,-0.34 -0.85,-0.75 -0.39,-0.41 -0.63,-0.74 -0.55,-0.74 0.08,0 0.46,0.33 0.85,0.74zm71.14 0c0.38,0.41 0.63,0.75 0.55,0.75 -0.09,0 -0.47,-0.34 -0.85,-0.75 -0.39,-0.41 -0.63,-0.74 -0.55,-0.74 0.08,0 0.46,0.33 0.85,0.74zm-42.87 -0.33c0,0.06 -0.23,0.29 -0.52,0.52 -0.47,0.37 -0.48,0.36 -0.11,-0.11 0.39,-0.5 0.63,-0.66 0.63,-0.41zm71.14 0c0,0.06 -0.23,0.29 -0.52,0.52 -0.47,0.37 -0.48,0.36 -0.11,-0.11 0.39,-0.5 0.63,-0.66 0.63,-0.41zm-75.68 12.27c-0.1,0.1 -0.36,0.11 -0.57,0.03 -0.24,-0.1 -0.17,-0.17 0.18,-0.18 0.31,-0.02 0.49,0.05 0.39,0.15zm4.16 0c-0.09,0.1 -0.35,0.11 -0.57,0.03 -0.23,-0.1 -0.16,-0.17 0.18,-0.18 0.32,-0.02 0.49,0.05 0.39,0.15zm43.76 0c-0.1,0.1 -0.36,0.11 -0.57,0.03 -0.24,-0.1 -0.17,-0.17 0.18,-0.18 0.31,-0.02 0.49,0.05 0.39,0.15zm4.17 0c-0.1,0.1 -0.36,0.11 -0.57,0.03 -0.24,-0.1 -0.17,-0.17 0.18,-0.18 0.31,-0.02 0.49,0.05 0.39,0.15zm-62.13 4.1c0,0.06 -0.24,0.3 -0.52,0.52 -0.48,0.37 -0.49,0.36 -0.12,-0.11 0.39,-0.49 0.64,-0.65 0.64,-0.41zm72.77 1.08c0.64,0.66 1.1,1.19 1.02,1.19 -0.08,0 -0.67,-0.53 -1.31,-1.19 -0.64,-0.65 -1.1,-1.19 -1.02,-1.19 0.08,0 0.68,0.54 1.31,1.19zm-57.57 -0.35c3.54,0.93 7.12,3.68 8.63,6.64 1.07,2.1 0.78,2.05 11.82,2.05 6.02,0 10.15,-0.12 10.48,-0.3 0.31,-0.16 1.04,-1.09 1.63,-2.06 2.9,-4.78 8.56,-7.48 13.92,-6.65 2.56,0.4 5.91,1.99 7.36,3.48l1.02 1.06 -3.7 0.01c-3.08,0 -3.93,0.11 -5.05,0.61 -1.79,0.82 -2.91,1.91 -3.75,3.7 -0.61,1.29 -0.7,1.93 -0.7,4.91 0,2.98 0.09,3.62 0.7,4.91 0.84,1.79 1.96,2.89 3.75,3.7 1.12,0.5 1.97,0.61 5.05,0.61l3.7 0.01 -1.02 1.06c-1.45,1.49 -4.8,3.08 -7.36,3.48 -5.36,0.83 -11.02,-1.87 -13.92,-6.64 -0.59,-0.98 -1.32,-1.91 -1.63,-2.07 -0.33,-0.18 -4.46,-0.3 -10.48,-0.3 -11.11,0 -10.74,-0.06 -11.88,2.17 -0.35,0.68 -1.38,1.98 -2.3,2.9 -3.12,3.11 -7.52,4.59 -11.72,3.94 -2.55,-0.4 -5.91,-1.99 -7.36,-3.48l-1.02 -1.06 3.7 -0.01c2.95,0 3.95,-0.12 4.9,-0.55 1.79,-0.81 2.99,-1.96 3.85,-3.67 0.69,-1.39 0.76,-1.88 0.76,-5 0,-3.12 -0.07,-3.61 -0.76,-5 -0.86,-1.71 -2.06,-2.86 -3.85,-3.67 -0.95,-0.43 -1.95,-0.55 -4.9,-0.55l-3.7 -0.01 1.02 -1.06c1.2,-1.24 4.62,-3.01 6.54,-3.38 2.1,-0.4 4.15,-0.33 6.27,0.22zm32.13 -0.15c0,0.06 -0.37,0.42 -0.82,0.82l-0.82 0.72 0.72 -0.82c0.67,-0.76 0.92,-0.95 0.92,-0.72zm-49.12 1.21c0,0.06 -0.23,0.3 -0.52,0.52 -0.47,0.37 -0.48,0.36 -0.11,-0.11 0.39,-0.5 0.63,-0.66 0.63,-0.41zm11.16 8.52c0.3,0.33 0.48,0.6 0.39,0.6 -0.08,0 -0.39,-0.27 -0.68,-0.6 -0.3,-0.33 -0.48,-0.6 -0.39,-0.6 0.08,0 0.39,0.27 0.68,0.6zm53.43 -0.49c0,0.05 -0.3,0.36 -0.67,0.67l-0.67 0.56 0.57 -0.67c0.53,-0.62 0.77,-0.8 0.77,-0.56zm-52.98 7.74c0,0.06 -0.3,0.36 -0.67,0.67l-0.67 0.57 0.57 -0.67c0.53,-0.63 0.77,-0.81 0.77,-0.57zm52.54 0.49c0.29,0.33 0.47,0.6 0.39,0.6 -0.09,0 -0.39,-0.27 -0.69,-0.6 -0.3,-0.33 -0.47,-0.59 -0.39,-0.59 0.08,0 0.39,0.26 0.69,0.59zm-89.52 10.18c-0.06,1.53 -0.1,0.36 -0.1,-2.59 0,-2.94 0.04,-4.19 0.09,-2.77 0.06,1.43 0.06,3.84 0.01,5.36zm25.11 -1.92c0.37,0.48 0.36,0.49 -0.11,0.12 -0.5,-0.39 -0.65,-0.64 -0.41,-0.64 0.06,0 0.3,0.24 0.52,0.52zm75.87 -0.13c0,0.05 -0.57,0.62 -1.27,1.26l-1.26 1.18 1.17 -1.27c1.1,-1.17 1.36,-1.4 1.36,-1.17zm-27.09 0.95c0.38,0.41 0.63,0.75 0.55,0.75 -0.08,0 -0.46,-0.34 -0.85,-0.75 -0.38,-0.41 -0.63,-0.74 -0.55,-0.74 0.08,0 0.47,0.33 0.85,0.74zm-46.99 0.97c0.37,0.47 0.36,0.48 -0.11,0.11 -0.5,-0.39 -0.66,-0.63 -0.41,-0.63 0.06,0 0.29,0.23 0.52,0.52zm10.3 4.42c-0.1,0.1 -0.36,0.11 -0.57,0.03 -0.24,-0.1 -0.17,-0.17 0.18,-0.18 0.31,-0.02 0.49,0.05 0.39,0.15zm4.16 0c-0.09,0.1 -0.35,0.11 -0.57,0.03 -0.23,-0.1 -0.16,-0.17 0.18,-0.18 0.32,-0.02 0.49,0.05 0.39,0.15zm43.76 0c-0.1,0.1 -0.36,0.11 -0.57,0.03 -0.24,-0.1 -0.17,-0.17 0.18,-0.18 0.31,-0.02 0.49,0.05 0.39,0.15zm4.17 0c-0.1,0.1 -0.36,0.11 -0.57,0.03 -0.24,-0.1 -0.17,-0.17 0.18,-0.18 0.31,-0.02 0.49,0.05 0.39,0.15zm-78.73 9.25c-0.2,0.08 -0.54,0.08 -0.74,0 -0.2,-0.08 -0.04,-0.15 0.37,-0.15 0.41,0 0.58,0.07 0.37,0.15z"/>
  <path class="fil2" d="M70.47 66.57c-0.85,0.42 -2.01,1.31 -2.58,1.97 -1.82,2.13 -1.95,2.94 -1.95,12.2l0 8.28 -6.98 0c-7.44,0 -9.23,0.22 -11.57,1.4 -4.24,2.13 -6.45,6.05 -6.45,11.42l0 2.58 -1.47 0.17c-2.75,0.33 -5.33,2.29 -6.55,4.97 -0.49,1.11 -0.6,1.97 -0.61,4.95 0,3.95 0.34,5.45 1.67,7.19l0.77 1.01 -0.61 0.65c-1.39,1.48 -1.82,3.1 -1.83,6.93 0,3.95 0.34,5.45 1.68,7.2 1.09,1.43 3.2,2.68 5.22,3.1l1.73 0.36 0 21.98 0 21.99 0.73 0.73c0.4,0.4 0.87,0.73 1.05,0.73 0.32,0 2.32,-0.78 2.46,-0.95 0.03,-0.05 0.13,-10.14 0.22,-22.42l0.15 -22.33 5.29 -0.08 5.28 -0.09 0.04 5c0.03,2.74 0.07,5.13 0.1,5.29 0.17,1.14 1.13,3.42 1.42,3.42 0.12,0 0.22,0.12 0.22,0.27 0,0.27 2.03,2.41 2.29,2.41 0.08,0 0.34,0.2 0.58,0.45 0.25,0.24 0.81,0.52 1.25,0.61 0.44,0.1 1.02,0.29 1.29,0.44 0.27,0.14 4.53,0.26 9.45,0.26 7.19,0 9.16,-0.08 10,-0.43 0.57,-0.24 1.04,-0.37 1.04,-0.28 0,0.59 2.83,-1.7 4.35,-3.52 0.47,-0.56 1.06,-1.69 0.88,-1.69 -0.09,0 -0.01,-0.37 0.17,-0.82 0.45,-1.15 0.47,-1.43 0.52,-6.7l0.03 -4.69 18.76 0 18.75 0 0.04 4.99c0.03,2.74 0.07,5.12 0.1,5.28 0.17,1.14 1.13,3.42 1.42,3.42 0.12,0 0.22,0.12 0.22,0.27 0,0.27 2.03,2.41 2.29,2.41 0.08,0 0.34,0.2 0.58,0.45 0.25,0.24 0.81,0.52 1.25,0.61 0.44,0.1 1.02,0.29 1.29,0.44 0.27,0.14 4.53,0.26 9.45,0.26 7.19,0 9.16,-0.08 10,-0.43 0.57,-0.24 1.04,-0.37 1.04,-0.28 0,0.59 2.83,-1.7 4.35,-3.52 0.47,-0.56 1.06,-1.69 0.88,-1.69 -0.09,0 -0.01,-0.37 0.17,-0.82 0.45,-1.15 0.47,-1.43 0.52,-6.71l0.03 -4.7 5.29 0.09 5.28 0.08 0 31.11c0,17.11 -0.09,31.58 -0.21,32.15 -0.35,1.74 -0.4,1.92 -0.76,2.57 -0.19,0.35 -0.28,0.7 -0.2,0.78 0.08,0.08 -0.06,0.31 -0.31,0.52 -0.25,0.21 -0.45,0.54 -0.45,0.75 0,0.53 -3.11,3.33 -4.49,4.03 -0.64,0.33 -1.17,0.51 -1.17,0.4 0,-0.1 -0.22,0 -0.49,0.22 -0.41,0.34 -9.19,0.41 -54.7,0.41l-54.2 0 -1.72 -0.69c-2.9,-1.18 -6.06,-4.6 -6.63,-7.19 -0.07,-0.33 -0.22,-0.91 -0.32,-1.27 -0.1,-0.37 -0.27,-3.35 -0.37,-6.63 -0.1,-3.27 -0.29,-6.11 -0.41,-6.3 -0.13,-0.2 -0.7,-0.51 -1.28,-0.7 -0.87,-0.29 -1.17,-0.27 -1.78,0.13 -0.4,0.26 -0.81,0.8 -0.91,1.21 -0.1,0.4 -0.13,3.64 -0.06,7.21 0.12,6.16 0.16,6.59 0.91,8.5 1.73,4.41 5.01,7.71 9.51,9.55l1.57 0.65 54.62 0.08c38.27,0.05 55.09,-0.02 56.18,-0.25 3.9,-0.81 8.35,-4.25 10.31,-7.98 2.04,-3.89 1.97,-2.41 1.97,-37.42l0 -31.57 1.73 -0.36c3.07,-0.64 5.58,-2.81 6.56,-5.69 0.48,-1.39 0.42,-7.63 -0.08,-9.04 -0.22,-0.61 -0.75,-1.58 -1.19,-2.15l-0.79 -1.04 0.86 -1.27c1.31,-1.94 1.55,-2.99 1.54,-6.89 -0.01,-2.98 -0.11,-3.84 -0.61,-4.95 -1.21,-2.68 -3.79,-4.64 -6.55,-4.97l-1.47 -0.17 0 -2.43c0,-5.46 -2.22,-9.44 -6.46,-11.58 -2.32,-1.17 -4.13,-1.39 -11.56,-1.39l-6.98 0 0 -8.23c0,-5.25 -0.12,-8.63 -0.34,-9.35 -0.54,-1.8 -2.3,-3.88 -4.1,-4.81 -1.6,-0.84 -1.64,-0.84 -6.51,-0.76l-4.91 0.08 -0.59 0.78c-0.51,0.69 -0.54,0.92 -0.23,1.87 0.2,0.59 0.61,1.21 0.91,1.37 0.3,0.16 2.2,0.29 4.22,0.3 4.06,0 5.19,0.33 6.32,1.88 0.59,0.8 0.62,1.21 0.62,8.93l0 8.09 -1.34 0.1c-0.74,0.05 -2.45,0.01 -3.8,-0.1l-2.45 -0.2 0 -4.89c0,-4.49 -0.05,-4.93 -0.6,-5.48 -0.58,-0.59 -0.99,-0.59 -29.76,-0.59 -28.78,0 -29.18,0 -29.77,0.59 -0.55,0.55 -0.59,0.99 -0.59,5.66l0 5.06 -2.16 0c-1.19,0 -2.86,-0.09 -3.72,-0.19l-1.57 -0.19 0 -8.12 0 -8.13 0.77 -0.9c0.42,-0.5 1.25,-1.05 1.86,-1.22 0.71,-0.19 10.61,-0.31 28.03,-0.31 29.4,-0.02 27.67,0.09 28.32,-1.77 0.29,-0.82 0.25,-1.07 -0.26,-1.75l-0.59 -0.79 -28.41 -0.08 -28.4 -0.07 -1.55 0.77zm63.93 19.18l0 3.27 -25.89 0 -25.9 0 0 -3.27 0 -3.28 25.9 0 25.89 0 0 3.28zm32.13 8.47c0.46,0.24 0.92,0.35 1.02,0.25 0.11,-0.1 0.19,-0.03 0.19,0.16 0,0.19 0.12,0.35 0.28,0.35 0.34,0 2.1,1.74 2.1,2.08 0,0.14 0.14,0.3 0.32,0.35 0.17,0.06 0.36,0.37 0.42,0.7 0.06,0.32 0.13,0.59 0.15,0.59 0.16,0 0.38,1.51 0.51,3.5l0.15 2.3 -63.16 0 -63.17 0 0.15 -2.3c0.08,-1.27 0.23,-2.71 0.34,-3.2 0.41,-1.8 2.11,-3.72 4.1,-4.62 1.25,-0.57 2.36,-0.58 58.52,-0.59 49.43,0 57.36,0.06 58.08,0.43zm11.68 15.44c1.44,0.98 1.84,1.93 1.96,4.67 0.13,2.95 -0.34,4.18 -1.98,5.28l-1.01 0.67 -68.49 0c-64.62,0 -68.55,-0.03 -69.52,-0.52 -1.84,-0.94 -2.25,-1.84 -2.25,-4.93 0,-2.92 0.42,-4.11 1.75,-4.99 1.04,-0.69 7.06,-0.75 74.75,-0.74 61.37,0.02 64.03,0.04 64.79,0.56zm-122.09 20.75l0 5.65 -7.96 0c-8.76,0 -9.32,-0.1 -10.62,-1.88 -0.52,-0.71 -0.62,-1.28 -0.62,-3.57 0,-2.92 0.42,-4.11 1.75,-4.99 0.61,-0.41 4.3,-0.62 14.25,-0.81l3.2 -0.06 0 5.66zm28.95 7.29c-0.04,7.04 -0.08,12.8 -0.1,12.8 -0.01,0 -0.07,0.24 -0.12,0.53 -0.13,0.68 -2.08,2.62 -2.76,2.75 -0.28,0.06 -0.59,0.11 -0.67,0.13 -0.72,0.13 -17.59,-0.01 -17.96,-0.16 -0.27,-0.1 -0.49,-0.29 -0.49,-0.42 0,-0.12 -0.25,-0.29 -0.55,-0.37 -0.3,-0.08 -0.82,-0.71 -1.17,-1.4 -0.6,-1.22 -0.62,-1.71 -0.65,-13.96l-0.04 -12.7 12.29 0 12.29 0 -0.07 12.8zm42.19 -7.29l0 5.65 -18.75 0 -18.76 0 0 -5.65 0 -5.66 18.76 0 18.75 0 0 5.66zm28.95 7.29c-0.04,7.04 -0.08,12.8 -0.1,12.8 -0.01,0 -0.07,0.24 -0.12,0.53 -0.13,0.68 -2.08,2.62 -2.76,2.75 -0.29,0.06 -0.59,0.11 -0.67,0.13 -0.72,0.13 -17.59,-0.01 -17.96,-0.16 -0.27,-0.1 -0.5,-0.29 -0.5,-0.42 0,-0.12 -0.24,-0.29 -0.54,-0.37 -0.3,-0.08 -0.82,-0.71 -1.17,-1.4 -0.6,-1.22 -0.62,-1.71 -0.65,-13.96l-0.04 -12.7 12.29 0 12.29 0 -0.07 12.8zm21.83 -12.3c1.47,0.81 1.99,1.89 2.14,4.44 0.16,2.69 -0.21,4.02 -1.45,5.21l-0.91 0.86 -8.46 0.09 -8.47 0.09 0 -5.69 0 -5.69 8.12 0.1c6.95,0.07 8.24,0.16 9.03,0.59zm-113.66 7.69c-0.5,0.41 -0.55,1.08 -0.61,8.55 -0.03,4.47 0.04,8.12 0.16,8.12 0.12,0 0.23,0.18 0.23,0.41 0,0.23 0.3,0.49 0.67,0.6 0.85,0.23 15.34,0.24 16.19,0 0.35,-0.09 0.72,-0.46 0.82,-0.82 0.24,-0.85 0.23,-15.34 -0.01,-16.2 -0.1,-0.36 -0.37,-0.66 -0.59,-0.66 -0.23,0 -0.42,-0.11 -0.42,-0.23 0,-0.12 -3.57,-0.22 -7.94,-0.22 -6.62,0 -8.04,0.07 -8.5,0.45zm71.14 0c-0.5,0.41 -0.55,1.08 -0.61,8.55 -0.03,4.47 0.04,8.12 0.16,8.12 0.13,0 0.23,0.18 0.23,0.41 0,0.23 0.3,0.49 0.67,0.6 0.85,0.23 15.34,0.24 16.19,0 0.35,-0.09 0.72,-0.46 0.82,-0.82 0.24,-0.85 0.23,-15.34 -0.01,-16.2 -0.1,-0.36 -0.37,-0.66 -0.59,-0.66 -0.23,0 -0.42,-0.11 -0.42,-0.23 0,-0.12 -3.57,-0.22 -7.94,-0.22 -6.62,0 -8.04,0.07 -8.5,0.45zm-57.97 8.78l0 4.61 -4.61 0 -4.62 0 0 -4.61 0 -4.62 4.62 0 4.61 0 0 4.62zm71.14 0l0 4.61 -4.61 0 -4.62 0 0 -4.61 0 -4.62 4.62 0 4.61 0 0 4.62zm-67.49 26.08c-0.37,0.13 -1.04,0.31 -1.49,0.38 -0.45,0.08 -0.85,0.16 -0.89,0.2 -0.05,0.03 -0.18,0.09 -0.3,0.12 -0.12,0.04 -0.49,0.17 -0.82,0.29 -0.33,0.12 -0.96,0.36 -1.41,0.53 -0.45,0.17 -0.82,0.42 -0.82,0.55 0,0.13 -0.29,0.33 -0.65,0.45 -0.8,0.25 -1.02,0.43 -3.31,2.72 -2.23,2.23 -2.59,2.66 -2.59,3.03 0,0.16 -0.21,0.5 -0.48,0.76 -0.26,0.27 -0.49,0.64 -0.52,0.85 -0.04,0.2 -0.16,0.52 -0.28,0.71 -0.26,0.42 0.34,1.89 0.98,2.38 0.3,0.24 2.26,0.36 5.99,0.38 6.53,0.04 6.76,0.08 7.6,1.04 0.58,0.66 0.65,1.09 0.65,3.74 0,2.65 -0.07,3.09 -0.65,3.74 -0.84,0.97 -1.07,1 -7.6,1.04 -3.73,0.02 -5.69,0.15 -5.99,0.38 -0.64,0.49 -1.24,1.96 -0.98,2.38 0.12,0.19 0.24,0.52 0.28,0.72 0.03,0.2 0.26,0.58 0.52,0.84 0.27,0.26 0.48,0.6 0.48,0.76 0,0.38 0.36,0.8 2.59,3.03 2.29,2.29 2.51,2.47 3.31,2.73 0.36,0.11 0.65,0.31 0.65,0.44 0,0.29 2.24,1.19 2.7,1.1 0.1,-0.02 0.4,0.14 0.67,0.37 0.27,0.22 0.5,0.33 0.5,0.24 0,-0.1 0.58,0 1.29,0.22 1.33,0.39 6.5,0.42 7.93,0.04 0.41,-0.11 0.88,-0.23 1.05,-0.27 0.16,-0.03 1.21,-0.49 2.34,-1.02 1.12,-0.53 2.16,-0.96 2.3,-0.96 0.15,0 0.27,-0.13 0.27,-0.3 0,-0.16 0.13,-0.3 0.29,-0.3 0.73,0 4.2,-3.45 5.04,-5 0.34,-0.65 0.41,-0.65 8.68,-0.65 7.58,0 8.35,0.04 8.52,0.51 0.43,1.11 4.44,5.14 5.11,5.14 0.16,0 0.33,0.11 0.39,0.23 0.08,0.2 3.33,1.89 3.89,2.03 0.12,0.03 0.26,0.08 0.3,0.11 0.07,0.06 0.21,0.1 1.86,0.5 1.15,0.28 6.58,0.28 7.74,0 0.49,-0.12 1.02,-0.25 1.19,-0.28 0.16,-0.04 0.46,-0.18 0.67,-0.3 0.2,-0.13 0.37,-0.14 0.37,-0.03 0,0.11 0.17,0.07 0.37,-0.09 0.21,-0.16 0.73,-0.38 1.17,-0.49 0.44,-0.1 0.98,-0.36 1.19,-0.57 0.22,-0.21 0.86,-0.67 1.44,-1.02 1.18,-0.73 4.46,-3.83 4.46,-4.22 0,-0.14 0.2,-0.43 0.45,-0.63 0.54,-0.45 1.64,-2.84 1.64,-3.57 0,-0.28 -0.27,-0.86 -0.6,-1.28l-0.6 -0.76 -5.62 -0.03c-6.6,-0.04 -6.83,-0.07 -7.67,-1.04 -0.57,-0.65 -0.65,-1.09 -0.65,-3.74 0,-2.65 0.08,-3.08 0.65,-3.74 0.84,-0.97 1.07,-1 7.67,-1.04l5.62 -0.03 0.6 -0.76c0.33,-0.42 0.6,-1 0.6,-1.28 0,-0.73 -1.1,-3.12 -1.64,-3.57 -0.25,-0.2 -0.45,-0.49 -0.45,-0.63 0,-0.38 -3.28,-3.49 -4.46,-4.22 -0.58,-0.35 -1.22,-0.81 -1.44,-1.02 -0.21,-0.21 -0.75,-0.47 -1.19,-0.57 -0.44,-0.11 -0.98,-0.34 -1.21,-0.52 -0.23,-0.18 -0.47,-0.3 -0.52,-0.26 -0.06,0.04 -0.14,0.07 -0.18,0.05 -0.09,-0.03 -0.68,-0.17 -1.86,-0.46 -1.16,-0.28 -6.59,-0.28 -7.74,0 -1.65,0.4 -1.79,0.44 -1.86,0.5 -0.04,0.03 -0.18,0.08 -0.3,0.12 -0.56,0.13 -3.81,1.82 -3.89,2.02 -0.06,0.13 -0.23,0.23 -0.39,0.23 -0.67,0 -4.68,4.04 -5.11,5.15 -0.17,0.46 -0.94,0.5 -8.52,0.5 -8.27,0 -8.34,0 -8.68,-0.65 -0.84,-1.55 -4.31,-5 -5.04,-5 -0.16,0 -0.29,-0.14 -0.29,-0.3 0,-0.16 -0.12,-0.3 -0.27,-0.3 -0.14,0 -1.18,-0.43 -2.3,-0.96 -1.13,-0.53 -2.18,-0.99 -2.34,-1.02 -0.17,-0.04 -0.64,-0.16 -1.05,-0.27 -1.15,-0.3 -6.61,-0.38 -7.36,-0.1zm6.79 4.68c3.54,0.93 7.12,3.68 8.63,6.64 1.07,2.1 0.78,2.05 11.82,2.05 6.02,0 10.15,-0.12 10.48,-0.3 0.31,-0.16 1.04,-1.09 1.63,-2.06 2.9,-4.78 8.56,-7.48 13.92,-6.65 2.56,0.4 5.91,1.99 7.36,3.48l1.02 1.06 -3.7 0.01c-3.08,0 -3.93,0.11 -5.05,0.61 -1.79,0.82 -2.91,1.91 -3.75,3.7 -0.61,1.29 -0.7,1.93 -0.7,4.91 0,2.98 0.09,3.62 0.7,4.91 0.84,1.79 1.96,2.89 3.75,3.7 1.12,0.5 1.97,0.61 5.05,0.61l3.7 0.01 -1.02 1.06c-1.45,1.49 -4.8,3.08 -7.36,3.48 -5.36,0.83 -11.02,-1.87 -13.92,-6.64 -0.59,-0.98 -1.32,-1.91 -1.63,-2.07 -0.33,-0.18 -4.46,-0.3 -10.48,-0.3 -11.11,0 -10.74,-0.06 -11.88,2.17 -0.35,0.68 -1.38,1.98 -2.3,2.9 -3.12,3.11 -7.52,4.59 -11.72,3.94 -2.55,-0.4 -5.91,-1.99 -7.36,-3.48l-1.02 -1.06 3.7 -0.01c2.95,0 3.95,-0.12 4.9,-0.55 1.79,-0.81 2.99,-1.96 3.85,-3.67 0.69,-1.39 0.76,-1.88 0.76,-5 0,-3.12 -0.07,-3.61 -0.76,-5 -0.86,-1.71 -2.06,-2.86 -3.85,-3.67 -0.95,-0.43 -1.95,-0.55 -4.9,-0.55l-3.7 -0.01 1.02 -1.06c1.2,-1.24 4.62,-3.01 6.54,-3.38 2.1,-0.4 4.15,-0.33 6.27,0.22z"/>
  <path class="fil2" d="M70.47 66.57c-0.85,0.42 -2.01,1.31 -2.58,1.97 -1.82,2.13 -1.95,2.94 -1.95,12.2l0 8.28 -6.98 0c-7.44,0 -9.23,0.22 -11.57,1.4 -4.24,2.13 -6.45,6.05 -6.45,11.42l0 2.58 -1.47 0.17c-2.75,0.33 -5.33,2.29 -6.55,4.97 -0.49,1.11 -0.6,1.97 -0.61,4.95 0,3.95 0.34,5.45 1.67,7.19l0.77 1.01 -0.61 0.65c-1.39,1.48 -1.82,3.1 -1.83,6.93 0,3.95 0.34,5.45 1.68,7.2 1.09,1.43 3.2,2.68 5.22,3.1l1.73 0.36 0 21.98 0 21.99 1.05 0 1.78 0 1.42 0c0,0 0.12,-9.63 0.21,-21.91l0.15 -22.33 5.26 -0.08 5.25 -0.08 0.11 5.44c0.13,6.13 0.38,7.09 2.5,9.43 2.72,3.02 4.43,3.38 15.31,3.23 9.68,-0.13 10.18,-0.25 12.82,-2.89 2.42,-2.42 2.72,-3.46 2.88,-9.92l0.13 -5.28 18.7 0 18.69 0 0.11 5.43c0.12,6.13 0.38,7.09 2.49,9.43 2.73,3.02 4.43,3.38 15.32,3.23 9.68,-0.13 10.18,-0.25 12.82,-2.89 2.42,-2.42 2.72,-3.46 2.88,-9.92l0.13 -5.29 5.26 0.08 5.25 0.08 0.08 30.51c0.06,20.2 -0.02,31.21 -0.23,32.57 -0.17,1.12 -0.67,2.76 -1.1,3.65 -0.99,2.02 -3.45,4.37 -5.67,5.41l-1.71 0.8 -54.17 0 -54.18 0 -1.72 -0.69c-2.23,-0.91 -4.91,-3.38 -5.94,-5.49 -1.09,-2.21 -1.41,-4.59 -1.41,-10.29 -0.01,-2.67 -0.22,-12.23 -0.22,-12.23l-1.42 0 -1.78 0 -1.05 0c0,0 -0.01,10.9 0.06,14.47 0.12,6.16 0.16,6.59 0.91,8.5 1.73,4.41 5.01,7.71 9.51,9.55l1.57 0.65 54.62 0.08c38.27,0.05 55.09,-0.02 56.18,-0.25 3.9,-0.81 8.35,-4.25 10.31,-7.98 2.04,-3.89 1.97,-2.41 1.97,-37.42l0 -31.57 1.73 -0.36c3.07,-0.64 5.58,-2.81 6.56,-5.69 0.48,-1.39 0.42,-7.63 -0.08,-9.04 -0.22,-0.61 -0.75,-1.58 -1.19,-2.15l-0.79 -1.04 0.86 -1.27c1.31,-1.94 1.55,-2.99 1.54,-6.89 -0.01,-2.98 -0.11,-3.84 -0.61,-4.95 -1.21,-2.68 -3.79,-4.64 -6.55,-4.97l-1.47 -0.17 0 -2.43c0,-5.46 -2.22,-9.44 -6.46,-11.58 -2.32,-1.17 -4.13,-1.39 -11.56,-1.39l-6.98 0 0 -8.23c0,-5.25 -0.12,-8.63 -0.34,-9.35 -0.54,-1.8 -2.3,-3.88 -4.1,-4.81 -1.6,-0.84 -1.64,-0.84 -6.51,-0.76l-4.82 0.08 0 0.79 0 1.89 0 1.34c0,0 2.2,0.29 4.22,0.3 4.06,0 5.19,0.33 6.32,1.88 0.59,0.8 0.62,1.21 0.62,8.93l0 8.09 -1.34 0.1c-0.74,0.05 -2.45,0.01 -3.8,-0.1l-2.45 -0.2 0 -4.89c0,-4.49 -0.05,-4.93 -0.6,-5.48 -0.58,-0.59 -0.99,-0.59 -29.76,-0.59 -28.78,0 -29.18,0 -29.77,0.59 -0.55,0.55 -0.59,0.99 -0.59,5.66l0 5.06 -2.16 0c-1.19,0 -2.86,-0.09 -3.72,-0.19l-1.57 -0.19 0 -8.12 0 -8.13 0.77 -0.9c0.42,-0.5 1.25,-1.05 1.86,-1.22 0.71,-0.19 10.61,-0.31 28.03,-0.31 29.4,-0.02 33.94,-0.29 33.94,-0.29l0 -1.34 0 -2.68 -34.88 -0.08 -28.4 -0.07 -1.55 0.77zm63.93 19.18l0 3.27 -25.89 0 -25.9 0 0 -3.27 0 -3.28 25.9 0 25.89 0 0 3.28zm32.19 8.38c0.64,0.19 1.68,0.79 2.32,1.34 1.73,1.49 2.45,3.23 2.63,6.38l0.15 2.65 -63.14 0 -63.15 0 0 -1.77c0,-4.15 1.29,-6.67 4.15,-8.13l1.62 -0.81 57.13 0c42.5,0 57.43,0.08 58.29,0.34zm11.62 15.53c1.44,0.98 1.84,1.93 1.96,4.67 0.13,2.95 -0.34,4.18 -1.98,5.28l-1.01 0.67 -68.49 0c-64.62,0 -68.55,-0.03 -69.52,-0.52 -1.84,-0.94 -2.25,-1.84 -2.25,-4.93 0,-2.92 0.42,-4.11 1.75,-4.99 1.04,-0.69 7.06,-0.75 74.75,-0.74 61.37,0.02 64.03,0.04 64.79,0.56zm-122.09 20.75l0 5.65 -7.96 0c-8.76,0 -9.32,-0.1 -10.62,-1.88 -0.52,-0.71 -0.62,-1.28 -0.62,-3.57 0,-2.92 0.42,-4.11 1.75,-4.99 0.61,-0.41 4.3,-0.62 14.25,-0.81l3.2 -0.06 0 5.66zm29.17 6.97c0,8.21 -0.11,12.93 -0.32,13.48 -0.17,0.46 -0.67,1.22 -1.11,1.69 -1.5,1.6 -1.99,1.67 -11.02,1.67 -8.08,0 -8.33,-0.01 -9.59,-0.68 -0.88,-0.47 -1.51,-1.1 -1.98,-1.98 -0.69,-1.3 -0.69,-1.31 -0.69,-14.06l0 -12.75 12.36 0 12.35 0 0 12.63zm41.97 -6.97l0 5.65 -18.75 0 -18.76 0 0 -5.65 0 -5.66 18.76 0 18.75 0 0 5.66zm29.17 6.97c0,8.21 -0.11,12.93 -0.32,13.48 -0.17,0.46 -0.67,1.22 -1.11,1.69 -1.5,1.6 -1.99,1.67 -11.02,1.67 -8.08,0 -8.33,-0.01 -9.59,-0.68 -0.88,-0.47 -1.51,-1.1 -1.98,-1.98 -0.69,-1.3 -0.69,-1.31 -0.69,-14.06l0 -12.75 12.36 0 12.35 0 0 12.63zm21.61 -11.98c1.47,0.81 1.99,1.89 2.14,4.44 0.16,2.69 -0.21,4.02 -1.45,5.21l-0.91 0.86 -8.46 0.09 -8.47 0.09 0 -5.69 0 -5.69 8.12 0.1c6.95,0.07 8.24,0.16 9.03,0.59zm-113.69 7.93c-0.43,0.48 -0.49,1.52 -0.49,8.49 0,7.54 0.03,7.97 0.59,8.53 0.57,0.57 1,0.6 8.49,0.6 7.49,0 7.91,-0.03 8.48,-0.6 0.56,-0.56 0.6,-0.99 0.6,-8.48 0,-7.49 -0.04,-7.92 -0.6,-8.49 -0.57,-0.56 -0.99,-0.59 -8.59,-0.59 -7.36,0 -8.03,0.04 -8.48,0.54zm71.14 0c-0.43,0.48 -0.49,1.52 -0.49,8.49 0,7.54 0.03,7.97 0.59,8.53 0.57,0.57 1,0.6 8.49,0.6 7.49,0 7.91,-0.03 8.48,-0.6 0.57,-0.56 0.6,-0.99 0.6,-8.48 0,-7.49 -0.03,-7.92 -0.6,-8.49 -0.57,-0.56 -0.99,-0.59 -8.59,-0.59 -7.36,0 -8.03,0.04 -8.48,0.54zm-57.94 8.54l0 4.61 -4.61 0 -4.62 0 0 -4.61 0 -4.62 4.62 0 4.61 0 0 4.62zm71.14 0l0 4.61 -4.61 0 -4.62 0 0 -4.61 0 -4.62 4.62 0 4.61 0 0 4.62zm-67.04 26.04c-5.23,0.95 -9.93,4.02 -12.64,8.27 -1.32,2.06 -1.53,3.27 -0.74,4.25 0.59,0.73 0.63,0.74 6.9,0.89l6.3 0.15 0.72 0.83c0.65,0.76 0.72,1.1 0.72,3.78 0,2.68 -0.07,3.02 -0.72,3.78l-0.72 0.84 -6.3 0.14c-6.27,0.15 -6.31,0.16 -6.9,0.89 -0.79,0.98 -0.58,2.19 0.74,4.25 2.27,3.55 6.12,6.43 10.33,7.71 2.85,0.87 7.3,0.93 9.97,0.14 3.99,-1.19 7.75,-3.81 10.13,-7.05l1.08 -1.47 8 0 7.99 0 0.89 1.29c1.36,1.97 4.17,4.42 6.46,5.62 3.11,1.63 5.17,2.14 8.61,2.14 5.32,0.01 9.67,-1.87 13.35,-5.78 2.45,-2.59 3.72,-4.96 3.3,-6.16 -0.5,-1.41 -1.26,-1.57 -7.52,-1.57l-5.76 -0.01 -0.86 -0.87c-0.85,-0.84 -0.88,-0.95 -0.88,-3.89 0,-2.94 0.03,-3.04 0.88,-3.89l0.86 -0.87 5.76 -0.01c6.26,0 7.02,-0.16 7.52,-1.57 0.42,-1.2 -0.85,-3.56 -3.3,-6.16 -3.68,-3.91 -8.03,-5.79 -13.35,-5.78 -3.44,0 -5.5,0.52 -8.61,2.15 -2.29,1.19 -5.1,3.64 -6.46,5.61l-0.89 1.29 -7.99 0 -8 0 -1.08 -1.47c-2.34,-3.2 -6.15,-5.87 -9.97,-6.99 -2,-0.58 -5.92,-0.83 -7.82,-0.48zm6.34 4.72c3.54,0.93 7.12,3.68 8.63,6.64 1.07,2.1 0.78,2.05 11.82,2.05 6.02,0 10.15,-0.12 10.48,-0.3 0.31,-0.16 1.04,-1.09 1.63,-2.06 2.9,-4.78 8.56,-7.48 13.92,-6.65 2.56,0.4 5.91,1.99 7.36,3.48l1.02 1.06 -3.7 0.01c-3.08,0 -3.93,0.11 -5.05,0.61 -1.79,0.82 -2.91,1.91 -3.75,3.7 -0.61,1.29 -0.7,1.93 -0.7,4.91 0,2.98 0.09,3.62 0.7,4.91 0.84,1.79 1.96,2.89 3.75,3.7 1.12,0.5 1.97,0.61 5.05,0.61l3.7 0.01 -1.02 1.06c-1.45,1.49 -4.8,3.08 -7.36,3.48 -5.36,0.83 -11.02,-1.87 -13.92,-6.64 -0.59,-0.98 -1.32,-1.91 -1.63,-2.07 -0.33,-0.18 -4.46,-0.3 -10.48,-0.3 -11.11,0 -10.74,-0.06 -11.88,2.17 -0.35,0.68 -1.38,1.98 -2.3,2.9 -3.12,3.11 -7.52,4.59 -11.72,3.94 -2.55,-0.4 -5.91,-1.99 -7.36,-3.48l-1.02 -1.06 3.7 -0.01c2.95,0 3.95,-0.12 4.9,-0.55 1.79,-0.81 2.99,-1.96 3.85,-3.67 0.69,-1.39 0.76,-1.88 0.76,-5 0,-3.12 -0.07,-3.61 -0.76,-5 -0.86,-1.71 -2.06,-2.86 -3.85,-3.67 -0.95,-0.43 -1.95,-0.55 -4.9,-0.55l-3.7 -0.01 1.02 -1.06c1.2,-1.24 4.62,-3.01 6.54,-3.38 2.1,-0.4 4.15,-0.33 6.27,0.22z"/>
  <path class="fil3" d="M13.14 54.01c-6.45,0 -13.14,2.63 -13.14,5.89 0,3 5.76,5.88 13.39,5.88 4.44,0 12.51,-2.13 12.51,-5.88 0.06,-3.32 -6.19,-5.89 -12.76,-5.89zm0.06 9.45c-4.57,0 -7.94,-1.88 -7.94,-3.88 0,-2.12 4.12,-3.88 7.19,-3.88 1.13,-2.56 8.2,1.25 8.2,3.88 0.06,2.44 -4.76,3.88 -7.45,3.88z"/>
  <path class="fil3" d="M12.2 57.02c-7.19,0.56 -7.88,4.31 -0.38,5.19l0.38 -5.19z"/>
  <path class="fil3" d="M14.2 56.08c-0.44,-0.13 -0.69,0 -0.69,0.37l-0.43 5.7c0.68,0.12 2.12,-0.07 3,-0.32l0.25 -5.06 -2.13 -0.69zm1.13 3.88c0,0.31 -0.25,0.56 -0.57,0.56l-0.06 0c-0.31,0 -0.56,-0.25 -0.56,-0.56l0 -0.69c0,-0.31 0.25,-0.56 0.56,-0.56l0.06 0c0.32,0 0.57,0.25 0.57,0.56l0 0.69z"/>
  <path class="fil3" d="M17.52 57.39c2.69,1.75 2.44,3.13 -0.19,4.07l0.19 -4.07z"/>
  <path class="fil3" d="M21.96 65.4c-7.26,2.94 -18.08,1.69 -21.96,-2.56l0 6.56c0.12,1.19 0.75,2.07 1.75,2.76l0 -2.82c0,-0.81 1.25,-0.81 1.25,0l0 3.63 2.32 1 0 -2.94c0,-0.81 1.25,-0.75 1.25,0l0 3.32 2.88 0.56 0 -3.19c0,-0.94 1.25,-0.94 1.25,0l0 2.88c3.5,-2.32 7.32,-5.57 11.26,-9.2z"/>
  <path class="fil3" d="M24.34 55.64c3.94,1.88 6.69,8.76 4.13,14.7l-0.88 -1.19c-0.63,-0.68 -1.56,0.13 -0.88,0.88l1.07 1.44 -1.88 2.56 -1.56 -1.81c-0.75,-0.75 -1.57,0.19 -0.88,0.88l1.69 1.81 -2.31 2.5 -2.32 -1.94c-0.69,-0.68 -1.5,0.19 -0.81,0.82l2.37 2.06 -2.44 2.32 -2.62 -2.26c-0.75,-0.75 -1.57,0.07 -0.82,0.82l2.57 2.25 -2.5 2.19c-0.07,-0.69 -0.32,-1.31 -0.88,-1.81 -0.56,-0.51 -1.13,-0.82 -1.75,-0.69 -0.88,0.18 -1.32,0 -1.69,-0.38 -0.63,-0.81 -0.25,-1.13 -0.94,-2 -0.56,-0.75 -1.25,-0.94 -1.81,-0.88l-0.94 0 5.94 -4.38 4.19 -3.31c5.01,-4.57 13.02,-9.76 5.95,-14.58z"/>
  <path class="fil3" d="M14.64 82.79c-0.56,-0.5 -1.06,-0.43 -1.69,-0.37 -0.69,0.06 -1.38,-0.31 -1.75,-0.75 -1,-1.07 -0.44,-1.38 -1.06,-2.19 -0.69,-0.88 -1.82,0.06 -3.13,-0.75l-1.5 1c-0.63,0.5 -0.76,1.25 -0.25,1.75l6 4.82c0.5,0.31 1,0.43 1.5,0.06l2.57 -2c-0.38,-0.44 -0.19,-1.07 -0.69,-1.57zm-2.94 1.63c-0.19,0.25 -0.56,0.31 -0.81,0.06l-3.01 -2.37c-0.25,-0.19 -0.31,-0.57 -0.06,-0.82 0.25,-0.25 0.56,-0.31 0.81,-0.06l3.01 2.38c0.18,0.25 0.25,0.62 0.06,0.81z"/>
  <path class="fil2" d="M86.9 35.43l-7.61 7.63c-1.31,1.18 -2.01,1.11 -3.24,-0.18l-31.47 -31.47c-1,-1.18 -1.04,-1.85 0,-3.07l7.53 -7.71c1.04,-0.86 1.6,-0.82 2.58,0l1.75 1.74 -4.49 4.5c-0.2,0.2 -0.2,0.54 0,0.74 0.21,0.21 0.54,0.21 0.75,0l4.48 -4.49 1.47 1.47 -2.21 2.22c-0.21,0.2 -0.21,0.54 0,0.75 0.2,0.2 0.54,0.2 0.74,0l2.22 -2.22 -0.42 -0.43 4.12 4.12 -2.2 2.21c-0.21,0.21 -0.21,0.54 0,0.75 0.2,0.2 0.54,0.2 0.74,0l2.21 -2.21 -0.52 -0.52 2.01 2.01 -2.27 2.27c-0.21,0.21 -0.2,0.54 0,0.75 0.21,0.2 0.54,0.2 0.74,0l2.27 -2.28 -0.2 -0.2 1.67 1.66 -4.48 4.49c-0.21,0.21 -0.2,0.54 0,0.75 0.21,0.2 0.54,0.21 0.75,0l4.48 -4.49 1.49 1.49 -2.21 2.22c-0.21,0.21 -0.21,0.54 0,0.75 0.2,0.2 0.54,0.21 0.74,0l2.22 -2.22 -0.54 -0.54 4.23 4.23 -4.49 4.49c-0.2,0.21 -0.2,0.54 0.01,0.75 0.2,0.2 0.54,0.21 0.74,0l4.49 -4.49 -0.32 -0.33 1.79 1.79 -2.25 2.25c-0.2,0.21 -0.2,0.54 0,0.74 0.21,0.21 0.54,0.21 0.75,0l2.24 -2.25 -0.5 -0.5 1.99 1.99 -2.29 2.3c-0.21,0.21 -0.21,0.54 0,0.75 0.2,0.2 0.54,0.2 0.74,0l2.3 -2.3 -0.71 -0.71 2.2 2.2 -4.54 4.55c-0.21,0.2 -0.21,0.53 0,0.74 0.2,0.2 0.54,0.2 0.74,0l4.54 -4.55 5.24 5.23c0.92,0.97 1.11,1.51 0,2.63zm-14.88 -17.5l0.73 0.74 -2.26 2.27c-0.21,0.2 -0.54,0.2 -0.74,0 -0.2,-0.2 -0.2,-0.53 0,-0.74l2.27 -2.27zm-10.39 -10.36l-0.74 -0.75 -4.48 4.49c-0.21,0.2 -0.21,0.54 0,0.75 0.21,0.2 0.54,0.2 0.75,0l4.47 -4.49zm18.49 31.59c-1.45,0 -2.63,-1.18 -2.63,-2.63 0,-1.46 1.18,-2.63 2.63,-2.63 1.45,0 2.62,1.17 2.62,2.63 0,1.45 -1.17,2.63 -2.62,2.63z"/>
  <g>
  </g>
  <g style="clip-path:url(#id0)">
   <g id="_2857045315536">
    <path class="fil3" d="M175.59 13.45l-1.25 -1.25 -1.93 1.87c-0.77,0.76 -1.6,-0.21 -0.9,-0.9l1.86 -1.87 -1.66 -1.45 -1.1 1.38c-0.56,0.62 -1.53,-0.07 -0.9,-0.9l0.9 -1.25 -1.94 -1.17 -0.69 1.52c-0.42,0.83 -1.6,0.35 -1.11,-0.62l0.62 -1.39 -2.08 -0.76 -0.48 1.66c-0.28,0.97 -1.45,0.63 -1.25,-0.41l0.42 -1.52 -2.15 -0.42 -0.2 1.52c-0.07,1.11 -1.39,0.9 -1.32,-0.07l0.14 -1.59 -2.22 0 0.07 1.66c0.07,1.04 -1.24,1.11 -1.31,0.07l-0.07 -1.59 -2.28 0.42 0.34 1.38c0.35,1.18 -0.97,1.52 -1.24,0.41l-0.42 -1.45 -2.15 0.83 0.7 1.39c0.41,0.9 -0.7,1.45 -1.11,0.62l-0.69 -1.45 -1.94 1.1 0.83 1.04c0.69,0.83 -0.35,1.59 -1.04,0.76l-0.9 -1.17 -1.66 1.45 1.87 1.87c0.69,0.69 -0.07,1.66 -0.9,0.9l-1.87 -1.87 -1.45 1.66 1.24 0.9c0.76,0.55 0.14,1.59 -0.69,1.04l-1.31 -0.9 -1.11 1.94 1.45 0.69c0.83,0.62 0.49,1.66 -0.55,1.31l-1.53 -0.69 -0.76 2.08 1.46 0.41c0.97,0.35 0.83,1.53 -0.35,1.25l-1.45 -0.35 -0.35 2.22 1.66 0.14c0.97,0.14 0.97,1.31 -0.07,1.31l-1.8 -0.14 0 2.22 1.8 -0.14c0.83,-0.07 1.04,1.11 0.21,1.32l-1.73 0.13 0.35 2.22 1.52 -0.42c0.9,-0.2 1.38,0.9 0.48,1.25l-1.66 0.42 0.76 2.14 1.46 -0.69c0.83,-0.35 1.31,0.69 0.69,1.11l-1.59 0.76 1.11 1.94 1.38 -0.97c0.69,-0.49 1.52,0.34 0.83,1.04l-1.45 1.03 1.45 1.73 1.94 -1.93c0.62,-0.56 1.59,0.2 0.97,0.9l-2.01 1.93 1.11 1.11c0.55,0.49 1.31,0.49 1.94,-0.07l26.85 -26.85c0.49,-0.63 0.69,-1.32 0.21,-1.8zm-27.06 16.75c-3.95,-8.93 4.98,-19.11 14.88,-14.95l-14.88 14.95z"/>
   </g>
  </g>
  <polygon class="fil4" points="138.7,42.79 176.07,42.79 176.07,5.42 138.7,5.42 "/>
  <path class="fil3" d="M209.89 77.6l0.58 -2.25 -12.53 -3.24 -0.59 2.28c-0.76,2.93 -0.09,4.73 1.96,5.26l6.31 1.61c2.06,0.54 3.5,-0.69 4.27,-3.66zm0.99 -3.83l6.15 -23.73 -12.53 -3.24 -0.73 2.84c3.21,1.21 4.43,5.46 3.14,10.42 -1.29,4.97 -4.41,8.09 -7.82,7.61l-0.73 2.85 12.52 3.25zm6.56 -25.31l0.58 -2.25c0.76,-2.95 0.1,-4.71 -1.96,-5.26l-6.3 -1.66c-2.04,-0.55 -3.5,0.71 -4.26,3.66l-0.59 2.26 12.53 3.25zm-11.59 11.33c1.03,-4 0.05,-7.42 -2.54,-8.39l-0.66 2.56c1.66,0.66 2.3,2.85 1.64,5.42 -0.67,2.59 -2.29,4.18 -4.07,3.95l-0.67 2.57c2.74,0.41 5.26,-2.1 6.3,-6.11z"/>
 </g>
</svg>
