<svg width="281" height="707" viewBox="0 0 281 707" fill="none" xmlns="http://www.w3.org/2000/svg">
<path d="M1 12L31 12" stroke="#4A4B4E" stroke-width="2" stroke-linecap="round"/>
<path d="M14 68L31 68" stroke="#4A4B4E" stroke-width="2" stroke-linecap="round"/>
<path d="M14 40L31 40" stroke="#4A4B4E" stroke-width="2" stroke-linecap="round"/>
<path d="M14 97L31 97" stroke="#4A4B4E" stroke-width="2" stroke-linecap="round"/>
<path d="M14 125L31 125" stroke="#4A4B4E" stroke-width="2" stroke-linecap="round"/>
<path d="M14 153L31 153" stroke="#4A4B4E" stroke-width="2" stroke-linecap="round"/>
<path d="M1 182L31 182" stroke="#4A4B4E" stroke-width="2" stroke-linecap="round"/>
<path d="M14 210L31 210" stroke="#4A4B4E" stroke-width="2" stroke-linecap="round"/>
<path d="M14 239L31 239" stroke="#4A4B4E" stroke-width="2" stroke-linecap="round"/>
<path d="M14 267L31 267" stroke="#4A4B4E" stroke-width="2" stroke-linecap="round"/>
<path d="M14 295L31 295" stroke="#4A4B4E" stroke-width="2" stroke-linecap="round"/>
<path d="M14 324L31 324" stroke="#4A4B4E" stroke-width="2" stroke-linecap="round"/>
<path d="M1 353L31 353" stroke="#4A4B4E" stroke-width="2" stroke-linecap="round"/>
<path d="M14 381L31 381" stroke="#4A4B4E" stroke-width="2" stroke-linecap="round"/>
<path d="M14 410L31 410" stroke="#4A4B4E" stroke-width="2" stroke-linecap="round"/>
<path d="M14 438L31 438" stroke="#4A4B4E" stroke-width="2" stroke-linecap="round"/>
<path d="M14 466L31 466" stroke="#4A4B4E" stroke-width="2" stroke-linecap="round"/>
<path d="M14 495L31 495" stroke="#4A4B4E" stroke-width="2" stroke-linecap="round"/>
<path d="M1 523L31 523" stroke="#4A4B4E" stroke-width="2" stroke-linecap="round"/>
<path d="M14 551L31 551" stroke="#4A4B4E" stroke-width="2" stroke-linecap="round"/>
<path d="M14 580L31 580" stroke="#4A4B4E" stroke-width="2" stroke-linecap="round"/>
<path d="M14 609L31 609" stroke="#4A4B4E" stroke-width="2" stroke-linecap="round"/>
<path d="M14 637L31 637" stroke="#4A4B4E" stroke-width="2" stroke-linecap="round"/>
<path d="M14 666L31 666" stroke="#4A4B4E" stroke-width="2" stroke-linecap="round"/>
<path d="M1 694L31 694" stroke="#4A4B4E" stroke-width="2" stroke-linecap="round"/>
<path d="M250 12L280 12" stroke="#4A4B4E" stroke-width="2" stroke-linecap="round"/>
<path d="M250 40.4167L267 40.4167" stroke="#4A4B4E" stroke-width="2" stroke-linecap="round"/>
<path d="M250 68.8333L267 68.8333" stroke="#4A4B4E" stroke-width="2" stroke-linecap="round"/>
<path d="M250 97.25L267 97.25" stroke="#4A4B4E" stroke-width="2" stroke-linecap="round"/>
<path d="M250 125.667L267 125.667" stroke="#4A4B4E" stroke-width="2" stroke-linecap="round"/>
<path d="M250 154.083L267 154.083" stroke="#4A4B4E" stroke-width="2" stroke-linecap="round"/>
<path d="M250 182.5L280 182.5" stroke="#4A4B4E" stroke-width="2" stroke-linecap="round"/>
<path d="M250 210.917L267 210.917" stroke="#4A4B4E" stroke-width="2" stroke-linecap="round"/>
<path d="M250 239.333L267 239.333" stroke="#4A4B4E" stroke-width="2" stroke-linecap="round"/>
<path d="M250 267.75L267 267.75" stroke="#4A4B4E" stroke-width="2" stroke-linecap="round"/>
<path d="M250 296.167L267 296.167" stroke="#4A4B4E" stroke-width="2" stroke-linecap="round"/>
<path d="M250 324.583L267 324.583" stroke="#4A4B4E" stroke-width="2" stroke-linecap="round"/>
<path d="M250 353L280 353" stroke="#4A4B4E" stroke-width="2" stroke-linecap="round"/>
<path d="M250 381.417L267 381.417" stroke="#4A4B4E" stroke-width="2" stroke-linecap="round"/>
<path d="M250 409.833L267 409.833" stroke="#4A4B4E" stroke-width="2" stroke-linecap="round"/>
<path d="M250 438.25L267 438.25" stroke="#4A4B4E" stroke-width="2" stroke-linecap="round"/>
<path d="M250 466.667L267 466.667" stroke="#4A4B4E" stroke-width="2" stroke-linecap="round"/>
<path d="M250 495.083L267 495.083" stroke="#4A4B4E" stroke-width="2" stroke-linecap="round"/>
<path d="M250 523.5L280 523.5" stroke="#4A4B4E" stroke-width="2" stroke-linecap="round"/>
<path d="M250 551.917L267 551.917" stroke="#4A4B4E" stroke-width="2" stroke-linecap="round"/>
<path d="M250 580.333L267 580.333" stroke="#4A4B4E" stroke-width="2" stroke-linecap="round"/>
<path d="M250 608.75L267 608.75" stroke="#4A4B4E" stroke-width="2" stroke-linecap="round"/>
<path d="M250 637.167L267 637.167" stroke="#4A4B4E" stroke-width="2" stroke-linecap="round"/>
<path d="M250 665.583L267 665.583" stroke="#4A4B4E" stroke-width="2" stroke-linecap="round"/>
<path d="M250 694L280 694" stroke="#4A4B4E" stroke-width="2" stroke-linecap="round"/>
</svg>
